<svg width="291" height="204" viewBox="0 0 291 204" fill="none" xmlns="http://www.w3.org/2000/svg">
<g style="mix-blend-mode:overlay" clip-path="url(#clip0_6772_17494)">
<path d="M0 89.3313V90.6357C0.870418 90.4966 1.74102 90.3574 2.83519 90.1826C1.9711 88.4942 0.998859 88.8513 0 89.3313Z" fill="#1B1D1E"/>
<path d="M291 114.152C286.437 114.152 282.556 114.109 278.675 114.174C277.192 114.199 276.123 113.902 275.936 112.132C277.132 111.375 278.338 110.612 279.833 109.665C278.742 108.697 277.905 108.168 277.357 107.426C276.022 105.616 274.372 104.818 272.081 104.817C270.772 104.817 268.882 104.487 268.272 103.604C266.909 101.629 263.854 100.11 265.572 96.8073C265.839 96.2954 265.596 95.5234 265.603 94.8717C265.629 92.171 265.677 89.4751 268.142 87.2952C266.983 86.2764 265.998 85.5027 265.132 84.6129C264.649 84.1166 264.061 83.4356 264.044 82.8232C263.972 80.2826 262.264 79.3744 260.245 79.143C258.812 78.9787 257.25 79.3035 255.84 79.7256C253.424 80.4487 251.079 81.2038 248.611 79.7407C248.224 76.6917 250.74 75.0575 252.366 73.2915C253.688 71.856 253.973 70.7883 253.168 69.3651C251.471 66.3687 250.764 63.128 250.343 59.7709C250.232 58.8821 249.866 58.0253 249.426 56.4887C248.929 57.834 248.793 58.5742 248.41 59.1505C247.891 59.9302 247.268 60.691 246.537 61.2664C245.471 62.105 244.27 62.7712 243.561 63.2295C242.772 63.5621 242.085 63.8527 241.446 64.1223C240.994 63.0826 240.349 62.127 239.502 61.3475C239.429 61.2802 239.347 61.2348 239.272 61.171C237.049 57.7077 232.979 55.276 228.857 55.416C217.933 55.787 217.399 71.64 225.171 76.5487C225.273 76.6132 225.389 76.6461 225.494 76.7034C225.636 77.1153 225.781 77.5272 225.943 77.939C226.292 78.8292 226.606 79.9885 227.31 80.4376C229.691 81.9555 232.241 83.2099 234.882 84.6505C235.376 87.2705 235.434 87.8196 234.25 89.9971C232.56 93.1039 230.76 96.1572 228.879 99.1526C227.575 101.23 223.922 101.409 222.123 99.5049C221.674 99.0294 221.531 98.8335 220.752 98.7857C217.806 98.6045 214.867 98.164 211.954 97.6586C210.834 97.4642 209.096 97.0797 208.842 96.359C208.135 94.349 206.474 94.5666 205.075 93.8503C204.656 94.6383 204.323 95.2643 203.879 96.099C202.755 95.3941 201.715 94.8228 200.764 94.1291C198.937 92.7957 197.544 91.3473 198.375 88.6871C198.737 87.5283 198.296 86.1195 198.224 84.8242C198.186 84.1337 198.157 83.4426 198.113 82.5263C199.169 82.6823 199.913 82.7385 200.63 82.9082C203.197 83.5154 203.353 83.5427 204.523 81.3749C205.914 78.797 206.183 76.0417 205.11 73.278C204.826 72.5471 204.53 71.8563 204.468 71.1197C205.363 71.4394 206.337 71.0399 206.694 70.015C207.847 66.7043 206.685 63.2777 205.215 60.273C204.009 57.808 202.163 55.0637 202.273 52.1918C202.421 52.0981 202.569 52.0041 202.718 51.9104C202.583 51.7305 202.449 51.5508 202.314 51.3709C202.403 50.5025 202.037 49.6468 201.119 49.3949C200.677 49.2733 200.201 49.3534 199.809 49.5767C199.168 49.1416 198.14 49.0943 197.637 49.7361C195.816 52.0583 195.455 55.2589 197.135 57.7855C197.243 57.9471 197.386 58.0948 197.549 58.2232C197.691 58.5575 197.838 58.8884 198.012 59.2013C196.663 58.7688 195.289 59.419 193.64 61.0807C192.156 57.5163 192.3 53.9049 192.399 50.232C192.472 47.5334 193.729 46.1021 196.229 44.9997C196.454 46.3651 196.61 47.5068 196.855 48.6289C196.901 48.8404 197.303 48.9743 197.73 49.279C197.974 48.3063 198.174 47.5123 198.364 46.7565C201.126 46.4144 202.004 45.0657 200.695 42.9761C199.851 41.6279 198.611 40.5272 197.517 39.2795C197.548 38.7695 197.554 38.2274 197.619 37.6924C198.128 33.4627 197.591 29.6943 193.429 27.2998C192.98 27.0412 192.892 26.024 192.782 25.3355C192.578 24.0579 192.952 22.0922 192.252 21.6027C190.25 20.2025 190.458 18.0723 189.616 16.3062C188.949 14.9078 187.686 13.7295 186.49 12.677C185.976 12.2251 184.964 12.3397 183.959 12.1569C183.959 13.1633 183.749 13.8882 183.994 14.3936C185.354 17.2036 186.525 20.1348 189.044 22.2334C189.721 22.7968 190.398 23.697 190.515 24.5219C190.74 26.1154 190.798 27.8088 190.5 29.3807C190.112 31.4309 189.831 33.6597 188.145 34.5753C188.563 38.9994 188.967 43.0683 189.316 47.1421C189.379 47.8857 189.517 49.0188 189.114 49.3432C186.117 51.7545 187.943 54.3099 188.716 56.8405C188.963 57.6515 189.272 58.4438 189.446 58.9398C188.536 60.2736 187.646 61.2335 187.163 62.3669C186.396 64.1679 184.745 63.0087 182.943 63.6914C184.595 64.9934 185.744 66.0843 187.062 66.901C190.473 69.014 192.046 73.0209 190.763 77.0984C190.084 76.8284 189.379 76.6262 188.752 76.2826C187.33 75.5039 186.75 75.9474 186.793 77.4922C186.842 79.276 186.021 79.8499 184.326 79.2823C184.121 79.2137 183.809 79.4669 183.564 79.5643C183.542 80.9491 184.853 82.3985 183.058 83.5076C182.115 83.0598 181.162 82.6081 179.728 81.9276C180.522 84.1138 181.089 85.6761 181.68 87.3012C179.749 87.3741 179.77 87.3421 178.285 86.3984C174.598 84.0552 171.488 84.684 169.529 88.3442C168.914 89.4915 168.159 90.6162 167.824 91.8479C167.248 93.9652 165.976 94.9236 163.857 94.9785C163.104 94.9979 162.354 95.1214 161.628 95.1945C160.948 98.0383 160.003 98.6894 156.971 98.468C157.915 95.8588 157.804 95.6352 155.799 93.8964C155.097 93.2881 154.649 92.3877 153.901 91.3696C153.556 91.2989 152.809 91.1657 152.071 90.9918C148.654 90.1855 145.162 88.3995 142.072 91.7798C142.009 91.8497 141.872 91.8574 141.767 91.884C138.141 92.8026 134.514 93.7165 130.89 94.6407C130.437 94.7564 129.997 94.924 129.551 95.0674C132.04 95.5405 134.455 95.4856 136.867 95.5524C141.173 95.6716 141.924 96.2853 142.132 100.309C140.439 100.842 138.726 101.381 136.558 102.064C137.915 102.482 138.824 102.772 139.739 103.042C142.969 103.997 143.468 103.658 143.699 99.9257C146.451 100.074 149.209 100.223 151.992 100.373C151.488 104.391 151.482 104.348 148.039 104.815C147.22 104.927 146.389 105.328 145.674 105.773C143.919 106.867 141.844 106.561 140.618 105.612C139.154 104.48 138.174 104.117 136.635 105.057C135.039 106.031 135.902 107.248 136.339 108.308C135.225 108.717 134.278 109.065 133.332 109.412C133.338 109.668 133.345 109.925 133.351 110.181C134.78 110.573 136.21 110.965 137.845 111.413C137.508 111.863 137.245 112.214 136.989 112.557C139.202 111.803 141.421 111.048 143.85 110.221C143.93 111.127 143.99 111.796 144.065 112.637C141.546 112.706 139.301 112.94 138.398 115.824C140.124 115.824 141.639 115.98 143.101 115.769C144.093 115.627 145.282 115.194 145.879 114.474C146.402 113.844 146.221 112.631 146.387 111.409C147.139 111.409 148.148 111.105 148.737 111.473C149.896 112.197 150.822 113.294 152.226 114.588C154.063 114.832 156.328 113.025 158.843 113.926C159.134 114.03 159.963 113.474 160.079 113.086C160.676 111.092 162.017 111.473 163.401 111.802C163.89 114.513 163.85 114.57 166.139 116.21C169.541 118.648 172.775 121.436 177.394 121.934C176.908 123.994 179.08 124.842 179.369 126.134C180.111 129.442 183.094 130.191 185.04 132.055C185.82 132.801 187.241 132.906 188.155 131.575C188.743 130.719 189.358 129.692 190.76 130.421C190.994 130.543 191.631 130.307 191.809 130.048C192.183 129.507 192.558 129.15 192.944 128.942C193.541 129.085 194.157 129.18 194.793 129.198C194.831 129.199 194.869 129.191 194.907 129.192C195.111 129.334 195.318 129.498 195.534 129.706C195.84 130.003 196.834 129.997 197.189 129.72C197.423 129.536 197.565 129.09 197.595 128.669C198.214 128.426 198.801 128.107 199.347 127.722C200.024 129.313 201.188 130.612 202.204 132.003C202.629 131.676 202.999 131.392 203.358 131.116C203.2 132.187 203.181 133.272 203.303 134.361C202.447 136.881 202.268 139.623 203.069 142.282C204.268 146.262 207.6 150.171 211.604 151.744C214.809 154.822 219.874 155.131 223.545 152.376C225.302 151.058 226.638 149.38 227.621 147.51C227.812 147.667 228.002 147.826 228.204 147.976C231.253 150.236 235.741 148.362 237.555 145.525C238.161 144.71 238.641 143.826 238.997 142.875C239.232 142.359 239.412 141.843 239.544 141.331C241.445 141.86 242.612 142.937 242.227 145.446C242.096 146.304 242.966 147.316 243.458 148.441C246.297 146.734 248.77 148.115 251.31 148.399C256.139 148.939 258.859 151.747 260.188 156.193C260.654 157.751 260.858 159.434 261.578 160.861C262.929 163.537 264.368 166.219 266.156 168.611C267.511 170.425 269.41 170.664 270.772 169.916C272.514 168.958 273.234 167.113 272.454 164.814C271.795 162.871 270.936 160.976 269.982 159.157C268.298 155.948 268.493 153.082 270.588 150.027C272.139 147.765 273.494 145.281 272.241 142.142C271.748 140.905 272.057 139.06 272.622 137.762C273.338 136.121 274.702 134.766 275.762 133.269C276.732 131.899 277.671 130.505 278.612 129.137C277.547 127.926 276.785 127.062 276.105 126.29C278.674 119.46 284.492 116.703 291 114.152Z" fill="#1B1D1E"/>
<path d="M106.94 76.6752C108.238 78.6438 109.408 80.5881 110.765 82.392C111.309 83.1157 112.202 83.6618 113.044 84.0625C115.959 85.4494 118.967 84.9071 121.983 84.3823C123.449 84.1273 124.669 83.7055 125.031 81.4855C125.937 82.317 126.372 82.6266 126.694 83.0264C128.712 85.528 131.076 86.8788 134.343 85.4657C135.405 85.0061 136.331 85.1121 137.378 85.7916C139.612 87.2412 142.109 88.0831 144.787 87.3796C145.589 87.169 146.562 86.3977 146.832 85.6562C147.267 84.4603 146.332 83.5177 145.203 83.2695C143.42 82.8772 141.563 82.8253 139.767 82.4785C138.428 82.2199 136.84 82.0726 135.878 81.2638C133.437 79.2098 130.729 78.1606 127.532 78.1242C126.776 75.2482 125.147 73.2605 122.209 73.0159C119.099 72.757 115.961 72.8219 112.834 72.7711C109.998 72.7251 108.281 74.3508 106.94 76.6752Z" fill="#1B1D1E"/>
<path d="M128.612 177.78C123.902 177.44 120.578 179.663 117.9 183.309C116.676 184.976 116.346 186.884 117.165 188.494C117.955 190.047 119.763 190.701 121.683 190.203C121.891 190.149 122.113 190.152 122.329 190.128C122.87 190.159 123.414 190.241 123.953 190.214C127.746 190.031 131.87 186.893 132.748 183.549C133.624 180.208 132.043 178.027 128.612 177.78Z" fill="#1B1D1E"/>
<path d="M161.145 160.66C159.032 157.995 153.391 157.623 150.549 159.512C147.867 161.295 148.251 163.87 147.798 166.528C148.972 167.276 149.975 167.745 150.768 168.451C153.327 170.725 156.155 170.446 158.979 169.305C162.463 167.897 163.474 163.596 161.145 160.66Z" fill="#1B1D1E"/>
<path d="M174.979 132.414C174.482 132.488 173.976 132.505 173.475 132.549C173.448 132.388 173.421 132.228 173.394 132.067C174.23 131.657 175.066 131.246 176.461 130.561C174.826 129.2 175.627 126.145 172.879 126.332C171.009 126.459 169.195 127.409 167.264 128.019C167.942 128.901 168.443 129.552 169.181 130.512C166.163 131.069 165.654 135.196 162.107 134.523C162.007 134.504 161.854 135.03 161.653 135.229C161.128 135.75 160.562 136.231 159.976 136.761C160.206 137.458 160.478 138.161 160.672 138.885C161.3 141.236 162.998 142.365 165.084 141.42C166.287 140.875 167.203 139.69 168.236 138.779C168.738 138.335 169.152 137.763 169.711 137.417C171.368 136.391 172.859 135.057 175.193 136.041C176.131 136.436 177.286 135.41 177.217 134.084C177.15 132.763 176.298 132.219 174.979 132.414Z" fill="#1B1D1E"/>
<path d="M136.763 112.715C136.795 112.726 136.826 112.731 136.858 112.743C136.858 112.743 136.854 112.739 136.853 112.738C136.897 112.679 136.944 112.616 136.989 112.557C136.909 112.584 136.826 112.612 136.746 112.639C136.754 112.664 136.755 112.69 136.763 112.715Z" fill="#1B1D1E"/>
<path d="M127.355 115.031C126.568 115.793 125.41 116.484 124.355 116.6C121.895 116.87 120.427 118.397 118.835 119.854C118.804 119.776 118.781 119.697 118.735 119.624C118.476 119.215 118.035 119.006 117.56 118.988C117.177 118.974 116.79 119.126 116.491 119.367C116.465 119.356 116.445 119.338 116.417 119.328C115.937 119.151 115.382 119.335 115.031 119.684C114.713 120 114.514 120.474 114.528 120.924C114.56 121.972 115.566 122.608 116.544 122.568C116.994 122.549 117.445 122.432 117.833 122.199C117.834 122.198 117.835 122.196 117.837 122.196C117.955 122.191 118.074 122.185 118.187 122.153C120.127 123.327 121.59 123.399 123.679 122.772C127.149 121.729 130.073 119.498 133.664 118.588C136.481 117.874 137.519 115.174 136.763 112.715C133.132 111.416 130.088 112.381 127.355 115.031Z" fill="#1B1D1E"/>
<path d="M133.061 101.327C130.47 99.4455 127.68 99.4019 124.733 100.348C123 100.905 121.221 101.325 119.451 101.76C117.644 102.203 116.089 103.478 114.074 103.308C113.726 103.279 113.319 103.935 112.834 104.369C114.041 105.894 115.191 105.55 116.384 105.332C119.121 104.831 121.761 104.866 124.38 106.196C127.284 107.67 130.304 107.235 133.058 105.667C135.103 104.504 135.025 102.753 133.061 101.327Z" fill="#1B1D1E"/>
<path d="M100.49 118.271C102.394 117.774 104.215 117.645 106.18 117.989C107.617 118.24 109.214 118.157 110.631 117.795C112.311 117.366 113.091 115.638 112.787 113.918C112.496 112.269 111.473 111.306 109.601 111.344C108.344 111.37 106.973 111.566 105.868 112.118C103.277 113.411 100.809 114.953 98.3117 116.43C98.0796 116.567 97.9957 116.954 97.4465 117.929C98.7464 118.097 99.695 118.478 100.49 118.271Z" fill="#1B1D1E"/>
<path d="M149.378 190.054C147.907 191.271 146.398 192.481 145.132 193.895C144.034 195.122 143.251 196.63 142.307 198.046C142.373 198.159 142.443 198.379 142.592 198.509C142.739 198.639 143.084 198.798 143.141 198.741C144.988 196.907 147.521 197.456 149.709 196.826C151.448 196.325 152.833 195.452 153.403 193.581C153.788 192.316 153.633 191.278 152.571 190.419C151.573 189.61 150.505 189.122 149.378 190.054Z" fill="#1B1D1E"/>
<path d="M126.753 145.749C128.331 145.833 129.931 145.576 131.516 145.407C131.797 145.377 132.051 145.097 132.37 144.9C132.455 144.045 132.538 143.203 132.619 142.384C134.048 141.752 135.707 141.473 135.696 139.506C134.827 138.753 133.99 138.026 133.148 137.295C130.499 138.82 128.001 140.083 125.732 141.673C125.064 142.14 124.775 143.552 124.841 144.493C124.875 144.977 126.058 145.711 126.753 145.749Z" fill="#1B1D1E"/>
<path d="M118.537 163.858C117.965 163.77 117.614 163.604 117.345 163.692C112.7 165.203 110.195 169.011 107.694 172.798C107.522 173.058 107.625 173.781 107.856 173.96C108.226 174.247 108.837 174.42 109.296 174.343C109.787 174.262 110.258 173.882 110.674 173.552C112.62 172.007 114.56 170.453 116.472 168.867C117.954 167.638 118.897 166.148 118.537 163.858Z" fill="#1B1D1E"/>
<path d="M145.698 142.14C148.107 142.687 150.407 142.336 152.708 141.653C153.662 141.371 154.69 141.137 154.517 139.81C154.36 138.605 153.611 137.667 152.419 137.718C149.356 137.848 146.185 137.624 143.416 139.299C143.874 141.824 143.895 141.731 145.698 142.14Z" fill="#1B1D1E"/>
<path d="M35.0877 143.37C33.2718 144.457 31.2732 145.234 29.4037 146.238C28.8198 146.552 28.3954 147.162 27.467 148.047C28.5536 148.401 29.0333 148.741 29.3127 148.62C32.3947 147.283 35.6975 146.976 38.9403 146.33C41.009 145.917 41.293 144.916 40.8513 142.382C38.7767 141.726 36.943 142.26 35.0877 143.37Z" fill="#1B1D1E"/>
<path d="M85.4086 82.7136C87.0003 82.6245 88.5954 82.5951 90.1866 82.5017C91.8539 82.4037 93.5184 82.2601 95.2564 82.131C94.5288 79.5595 93.8611 78.7393 91.6272 78.9544C88.8208 79.2245 86.0683 80.0545 83.106 80.6824C83.5002 82.4587 84.3081 82.7754 85.4086 82.7136Z" fill="#1B1D1E"/>
<path d="M106.57 150.548C107.52 148.437 106.904 147.23 104.241 147.48C103.721 147.529 103.207 147.658 102.697 147.814C102.626 147.427 102.302 147.024 101.869 147.075C101.686 147.097 101.507 147.138 101.326 147.171C101.043 146.833 100.414 146.871 100.131 147.181C100.091 147.224 100.074 147.271 100.044 147.316C100.024 147.307 100.006 147.29 99.9858 147.283C98.6664 146.783 97.2375 147.633 96.747 148.865C96.4263 149.062 96.124 149.288 95.8608 149.559C95.6194 149.806 95.5501 150.174 95.6841 150.491C95.743 150.631 95.8414 150.726 95.9481 150.809C95.8816 150.917 95.8062 151.017 95.745 151.129C95.5185 151.542 95.6503 152.048 96.0514 152.297C97.8269 153.4 100.259 152.376 101.09 150.582C102.167 150.948 103.247 151.314 104.317 151.677C104.653 153.496 104.812 153.54 108.573 152.043C107.951 151.578 107.328 151.113 106.57 150.548ZM97.8468 151.048C97.8796 151.009 97.9134 150.971 97.9469 150.933C98.0216 150.958 98.0951 150.984 98.1841 150.984C98.1148 151.001 98.0456 151.02 97.975 151.035C97.9663 151.037 97.9542 151.038 97.943 151.039C97.9578 151.039 97.9622 151.038 97.9843 151.037C97.9384 151.039 97.8928 151.045 97.8468 151.048Z" fill="#1B1D1E"/>
<path d="M73.956 158.846C72.5501 159.335 71.2281 160.108 69.9457 160.881C69.6004 161.089 69.2996 161.83 69.4076 162.202C69.5192 162.588 70.1168 162.976 70.5673 163.08C71.0537 163.192 71.659 163.082 72.1374 162.886C74.4184 161.95 76.6995 161.007 78.9265 159.952C79.9027 159.489 80.7247 158.744 80.0313 157.217C77.8459 157.788 75.8553 158.186 73.956 158.846Z" fill="#1B1D1E"/>
<path d="M136.923 47.3544C137.733 48.127 138.895 47.3073 138.886 46.1731C138.87 44.0584 135.016 39.9332 132.979 39.8499C131.985 39.8092 131.226 40.7536 131.846 41.5768C133.386 43.6222 135.072 45.5894 136.923 47.3544Z" fill="#1B1D1E"/>
<path d="M88.7979 97.5727C90.7571 97.8069 93.0746 97.4829 94.5118 95.1618C92.1245 93.8641 89.8163 94.265 87.5563 94.8136C84.9692 95.4416 82.5205 96.653 79.7672 96.5827C79.5483 96.5769 79.321 96.8896 78.7896 97.2814C79.4638 97.4881 79.8413 97.7409 80.1575 97.6791C83.0382 97.1166 85.8702 97.2228 88.7979 97.5727Z" fill="#1B1D1E"/>
<path d="M9.2508 121.325C7.5634 121.977 5.85587 122.587 4.12992 123.128C3.30716 123.386 2.4883 123.517 2.35986 124.807C2.95218 124.935 3.52886 125.262 3.90394 125.106C6.43571 124.051 9.0976 123.966 11.7688 123.688C13.1816 123.541 15.0258 123.33 15.7009 121.052C13.2954 119.937 11.2813 120.539 9.2508 121.325Z" fill="#1B1D1E"/>
<path d="M112.258 68.5246C112.675 67.2329 111.776 66.4774 110.751 66.001C108.439 64.9265 105.991 64.8949 103.522 65.2842C103.392 65.3049 103.307 65.62 102.917 66.2763C105.141 67.4621 107.152 68.6898 109.295 69.6114C110.367 70.0724 111.772 70.0279 112.258 68.5246Z" fill="#1B1D1E"/>
<path d="M83.9059 182.749C83.2956 183.336 82.5303 184.456 82.7222 185.042C83.1522 186.358 84.3292 185.601 85.195 185.292C86.3104 184.895 87.4222 184.464 88.4825 183.941C89.9014 183.24 90.8898 182.176 91.0444 179.939C87.9252 179.629 85.783 180.942 83.9059 182.749Z" fill="#1B1D1E"/>
<path d="M88.6499 162.051C93.4698 164.397 96.0496 163.966 97.6422 160.621C94.3482 158.466 91.58 159.683 88.6499 162.051Z" fill="#1B1D1E"/>
<path d="M35.9364 107.415C34.7297 105.792 33.2349 106.281 31.9678 106.591C29.6905 107.147 27.4631 107.928 25.2567 108.73C24.9604 108.838 24.9062 109.611 24.7932 109.927C27.376 109.801 29.6855 109.628 31.9972 109.595C33.6362 109.571 34.8656 108.958 35.9364 107.415Z" fill="#1B1D1E"/>
<path d="M123.871 95.955C124.46 95.689 124.906 95.1077 125.643 94.4783C121.477 91.8686 118.367 94.6125 114.683 95.5095C119.013 96.6031 122.046 96.7789 123.871 95.955Z" fill="#1B1D1E"/>
<path d="M83.2786 105.749C80.2569 104.571 78.1576 105.645 76.1572 107.377C78.5226 107.615 80.9645 108.02 83.2786 105.749Z" fill="#1B1D1E"/>
<path d="M166.494 143.249C163.043 142.994 161.884 143.629 161.043 146.255C162.853 145.166 165.099 145.583 166.494 143.249Z" fill="#1B1D1E"/>
<path d="M279.629 151.84C282.266 152.709 284.252 152.439 286.132 150.962C283.953 149.85 282.012 150.556 279.629 151.84Z" fill="#1B1D1E"/>
<path d="M161.896 200.543C160.595 201.055 159.893 202.122 159.932 204C161.235 203.79 162.498 203.666 163.378 202.661C163.708 202.284 163.826 201.317 163.569 200.944C163.317 200.578 162.36 200.36 161.896 200.543Z" fill="#1B1D1E"/>
<path d="M132.097 126.144C134.281 126.389 135.952 126.482 137.286 124.206C134.834 123.411 133.422 124.091 132.097 126.144Z" fill="#1B1D1E"/>
<path d="M91.2412 85.5197C89.3049 83.7907 89.1733 83.7714 86.4683 84.6437C88.0746 85.7619 89.6656 86.0539 91.2412 85.5197Z" fill="#1B1D1E"/>
<path d="M104.46 134.771C104.489 134.814 104.505 134.865 104.546 134.902C104.722 135.064 104.913 135.129 105.15 135.152C106.262 135.262 107.51 135.266 108.365 134.427C108.779 134.021 109.019 133.497 109.083 132.926C109.141 132.412 108.941 131.798 108.536 131.461C108.093 131.092 107.55 130.992 106.993 131.111C106.974 131.114 106.958 131.129 106.939 131.134C106.707 131.105 106.466 131.114 106.254 131.19C105.976 131.291 105.752 131.463 105.559 131.674C104.741 132.273 104.204 133.284 104.296 134.298C104.304 134.391 104.325 134.484 104.353 134.573C104.219 134.697 104.084 134.822 103.95 134.949C104.12 134.889 104.29 134.83 104.46 134.771Z" fill="#1B1D1E"/>
<path d="M80.9321 77.4327C79.982 75.825 78.5357 76.0005 76.6348 76.2324C78.567 78.7644 79.0098 78.8692 80.9321 77.4327Z" fill="#1B1D1E"/>
<path d="M74.4163 93.2762C76.2593 93.1949 77.8754 93.1239 79.4917 93.0526C76.8315 91.7268 76.2029 91.818 74.4163 93.2762Z" fill="#1B1D1E"/>
<path d="M274.358 90.6538C272.877 89.7211 271.444 89.4572 270.061 89.8621C271.426 90.6648 272.858 90.9288 274.358 90.6538Z" fill="#1B1D1E"/>
<path d="M55.4438 102.39C57.1914 103.676 58.4678 102.72 59.8337 102.008C58.5067 101.938 56.9872 101.108 55.4438 102.39Z" fill="#1B1D1E"/>
<path d="M74.1264 107.614C73.1609 107.775 72.195 107.936 71.2292 108.097C72.667 109.925 73.4394 109.016 74.1264 107.614Z" fill="#1B1D1E"/>
<path d="M142.289 138.668C141.239 137.87 140.453 137.932 139.882 139.021C139.778 139.221 139.918 139.781 140.086 139.854C141.229 140.352 141.818 139.744 142.289 138.668Z" fill="#1B1D1E"/>
<path d="M151.505 187.366C151.392 187.481 151.437 187.753 151.376 188.175H154.055C153.137 186.555 152.37 186.493 151.505 187.366Z" fill="#1B1D1E"/>
<path d="M108.069 85.6666C108.043 85.4293 108.017 85.1919 107.992 84.9543C106.861 85.0857 105.731 85.2168 104.601 85.348C104.624 85.5658 104.648 85.7837 104.671 86.0015C105.792 85.7729 107.003 86.4024 108.069 85.6666Z" fill="#1B1D1E"/>
<path d="M104.019 102.825C104.57 102.957 105.118 103.118 105.677 103.18C105.741 103.188 105.866 102.642 105.963 102.353C105.385 102.219 104.808 102.085 104.23 101.951C104.16 102.242 104.089 102.534 104.019 102.825Z" fill="#1B1D1E"/>
<path d="M89.642 60.2091C88.8124 59.0823 87.9871 58.9506 86.54 59.9042C87.7923 60.7432 88.5815 61.161 89.642 60.2091Z" fill="#1B1D1E"/>
<path d="M147.888 74.3764C147.359 73.9064 146.996 73.3898 146.793 73.4461C146.394 73.5568 146.084 73.986 145.736 74.2833C146.051 74.5305 146.341 74.9222 146.686 74.9795C146.972 75.0268 147.323 74.6789 147.888 74.3764Z" fill="#1B1D1E"/>
<path d="M263.593 75.1168C262.032 75.3293 261.705 75.9588 262.805 77.2524C263.139 76.3487 263.366 75.7328 263.593 75.1168Z" fill="#1B1D1E"/>
<path d="M45.1679 167.619C44.9719 167.91 44.7588 168.144 44.6208 168.338C44.8485 168.719 45.1229 169.056 45.4525 169.32C45.4023 168.857 45.3956 168.389 45.4272 167.929C45.3433 167.834 45.2558 167.732 45.1679 167.619Z" fill="#1B1D1E"/>
<path d="M184.343 175.978H186.633C185.869 174.819 185.106 175.308 184.343 175.978Z" fill="#1B1D1E"/>
<path d="M231.72 163.656C232.679 163.597 233.356 163.555 234.221 163.502C233.456 162.814 232.622 162.865 231.72 163.656Z" fill="#1B1D1E"/>
<path d="M136.915 54.4874C137.473 54.6346 138.032 54.7815 138.59 54.9285C138.666 54.7025 138.742 54.4764 138.818 54.2506C138.221 54.1289 137.623 54.0076 137.026 53.886C136.989 54.0865 136.952 54.2871 136.915 54.4874Z" fill="#1B1D1E"/>
<path d="M49.9326 102.269L51.4655 102.423C51.4778 102.284 51.4901 102.146 51.5026 102.007H49.9414C49.9384 102.095 49.9356 102.182 49.9326 102.269Z" fill="#1B1D1E"/>
<path d="M134.153 147.234C134.357 147.276 134.672 146.79 134.937 146.54C134.659 146.3 134.381 146.06 133.753 145.518C133.569 145.931 133.287 146.271 133.366 146.45C133.512 146.78 133.839 147.169 134.153 147.234Z" fill="#1B1D1E"/>
<path d="M93.6155 148.339C92.2711 147.593 90.4823 147.959 89.511 149.124C88.9717 149.445 88.541 149.94 88.3866 150.564C88.2692 151.038 88.5389 151.453 88.9834 151.614C90.8239 152.28 93.1497 151.313 93.9457 149.517C94.1078 149.152 94.0693 148.731 93.7681 148.463C94.2086 148.41 94.6948 148.349 95.3232 148.271C94.8163 148.044 94.1073 148.144 93.6155 148.339Z" fill="#1B1D1E"/>
<path d="M144.978 182.213C145.936 182.133 146.711 181.949 147.56 181.468C148.158 181.128 148.61 180.68 149.028 180.182C149.812 180.506 150.409 180.014 150.97 179.518C151.119 179.387 151.124 178.805 150.976 178.669C150.906 178.605 150.845 178.573 150.778 178.525C151.088 178.132 151.319 177.773 151.531 177.27C151.8 176.632 151.936 176.134 151.951 175.397C151.961 174.912 151.891 174.405 151.735 173.944C151.321 172.726 150.577 171.74 149.484 171.047C148.447 170.39 147.008 170.181 145.835 170.562C145.201 170.767 144.622 171.114 144.18 171.603C144.01 171.624 143.839 171.651 143.668 171.687C143.627 171.695 143.587 171.703 143.547 171.714C143.283 171.789 142.881 171.964 142.64 172.095C142.595 172.119 142.557 172.145 142.515 172.175C142.424 172.238 142.327 172.308 142.231 172.378C141.802 172.61 141.405 172.889 141.082 173.296C140.529 173.99 140.079 174.645 139.869 175.533C139.641 176.496 139.669 177.232 139.831 178.193C139.856 178.336 139.886 178.476 139.936 178.613C140.085 179.02 140.238 179.467 140.486 179.832C140.972 180.546 141.543 181.19 142.327 181.592C143.133 182.006 144.061 182.291 144.978 182.213Z" fill="#1B1D1E"/>
<path d="M136.048 160.358C136.033 160.377 136.017 160.394 136.002 160.413C136 160.417 135.999 160.42 135.997 160.424C136.014 160.401 136.03 160.38 136.048 160.358Z" fill="#1B1D1E"/>
<path d="M135.56 160.998C135.723 160.818 135.868 160.625 135.997 160.424C135.836 160.632 135.674 160.84 135.513 161.049C135.529 161.032 135.544 161.015 135.56 160.998Z" fill="#1B1D1E"/>
<path d="M135.56 156.168C134.908 155.57 134.053 155.127 133.143 155.167C132.262 155.207 131.339 155.496 130.727 156.168C130.499 156.417 130.301 156.707 130.096 156.975C130.274 156.744 130.452 156.514 130.631 156.283C130.167 156.881 129.644 157.425 129.096 157.943C128.845 157.952 128.596 157.986 128.353 158.065L127.537 158.409C127.023 158.713 126.615 159.121 126.311 159.634C125.984 160.074 125.657 160.514 125.33 160.955C125.215 161.227 125.1 161.499 124.985 161.771C124.843 162.224 124.822 162.678 124.924 163.132C124.925 163.441 125.003 163.728 125.157 163.994C125.295 164.418 125.531 164.784 125.864 165.093C126.3 165.494 126.808 165.789 127.372 165.972C128.233 166.25 129.231 166.031 130.005 165.627C131.203 165.003 132.296 164.204 133.329 163.337C134.355 162.475 135.188 161.472 136.002 160.413C136.348 159.868 136.561 159.25 136.561 158.583C136.561 157.745 136.188 156.745 135.56 156.168Z" fill="#1B1D1E"/>
<path d="M163.612 150.995C160.527 150.995 159.611 154.349 160.854 156.356C160.798 156.74 160.745 157.125 160.687 157.505C160.871 157.508 161.055 157.511 161.239 157.514C161.198 157.254 161.158 156.994 161.118 156.734C161.668 157.387 162.497 157.825 163.612 157.825C168.009 157.825 168.017 150.995 163.612 150.995Z" fill="#1B1D1E"/>
<path d="M160.232 122.027C160.023 122.151 159.844 122.303 159.67 122.461C159.446 122.51 159.23 122.587 159.022 122.696C158.598 122.834 158.232 123.069 157.922 123.403C157.589 123.712 157.353 124.078 157.216 124.502C157.002 124.909 156.904 125.347 156.921 125.818C156.962 126.12 157.003 126.423 157.043 126.725C157.206 127.304 157.499 127.806 157.922 128.232C158.153 128.41 158.383 128.588 158.614 128.766C159.147 129.075 159.722 129.231 160.339 129.233C160.424 129.242 160.511 129.244 160.597 129.239C160.976 129.217 161.355 129.163 161.727 129.089C161.808 129.073 161.887 129.051 161.964 129.023C162.316 128.897 162.665 128.757 162.997 128.584C163.07 128.547 163.14 128.503 163.207 128.455C163.502 128.243 163.805 128.03 164.071 127.779C164.134 127.72 164.191 127.656 164.245 127.588C164.443 127.336 164.654 127.087 164.834 126.821C164.86 126.782 164.885 126.741 164.907 126.7C165.157 126.308 165.292 125.885 165.313 125.43C165.333 125.342 165.326 125.255 165.337 125.167C165.711 124.961 166.074 124.693 166.388 124.245C165.925 124.144 165.572 124.161 165.284 124.245C165.269 124.186 165.27 124.127 165.252 124.068C165.146 123.624 164.942 123.237 164.64 122.907C164.45 122.614 164.197 122.384 163.909 122.189C164.083 122.233 164.257 122.277 164.431 122.321C165.89 121.023 165.34 119.637 164.71 118.249C164.717 118.156 164.723 118.064 164.729 117.971C164.729 117.971 164.617 118.044 164.618 118.043C162.494 116.646 162.258 119.462 160.538 119.459C161.085 120.377 161.448 120.986 161.803 121.582C161.551 121.593 161.3 121.616 161.048 121.683L160.232 122.027Z" fill="#1B1D1E"/>
<path d="M154.415 129.542C154.432 129.516 154.455 129.497 154.472 129.47C154.749 129.025 154.887 128.535 154.937 128.018C154.973 127.654 154.647 127.282 154.31 127.194C153.533 126.993 152.785 127.191 152.168 127.606C150.992 127.935 149.983 128.992 150.055 130.261C150.076 130.63 150.305 130.991 150.683 131.084C150.76 131.103 150.841 131.102 150.92 131.115C150.973 131.247 151.012 131.385 151.085 131.504C151.32 131.885 151.861 132.065 152.254 131.811C152.545 131.623 152.713 131.28 152.667 130.947C152.937 130.846 153.198 130.721 153.432 130.553C153.519 130.49 153.591 130.415 153.672 130.348C154.011 130.617 154.351 130.886 154.69 131.155C154.869 130.906 155.048 130.658 155.227 130.409C154.895 130.199 154.564 129.99 154.232 129.78C154.305 129.711 154.365 129.633 154.415 129.542Z" fill="#1B1D1E"/>
<path d="M152.111 77.3823C152.149 77.7244 152.359 78.0618 152.72 78.1264C153.214 78.2149 153.722 78.2019 154.195 78.0174C154.655 77.8377 155.088 77.5728 155.404 77.1862C155.586 76.9639 155.729 76.7487 155.84 76.4849C155.887 76.3736 155.936 76.2631 155.966 76.1458C156.04 75.8552 155.974 75.5773 155.821 75.3263C155.528 74.8454 155.065 74.5069 154.535 74.3311C154.088 74.1834 153.618 74.2245 153.185 74.3711C153.132 74.3627 153.086 74.3394 153.03 74.3352C152.681 74.3086 152.276 74.6174 152.206 74.9621C152.2 74.9913 152.204 75.0212 152.199 75.0506C152.082 75.1907 151.959 75.3261 151.882 75.4956C151.61 76.0937 151.478 76.9749 152.111 77.3823Z" fill="#1B1D1E"/>
<path d="M176.97 78.1264C176.88 78.1125 176.793 78.1076 176.705 78.1028C176.647 78.0695 176.593 78.0284 176.526 78.0133C176.309 77.9638 176.061 77.9733 175.868 78.0993C175.489 78.3474 175.226 78.6958 175.087 79.1261C175.069 79.1819 175.056 79.2388 175.047 79.2969C175.028 79.4217 175.005 79.5506 175.006 79.6779C175.008 79.8079 175.029 79.9417 175.053 80.0682C175.064 80.1292 175.083 80.188 175.106 80.2454C175.135 80.3135 175.163 80.3814 175.192 80.4493C175.246 80.5488 175.319 80.6288 175.412 80.6889C175.559 80.8024 175.74 80.8761 175.93 80.8723C176.322 80.8647 176.715 80.8573 177.108 80.8497C177.206 80.8478 177.304 80.8474 177.402 80.8441C177.72 80.8333 177.999 80.7006 178.169 80.4207C178.184 80.3961 178.197 80.3712 178.209 80.3451C178.309 80.1295 178.383 79.9063 178.365 79.6637C178.346 79.4137 178.293 79.2141 178.172 78.9922C178.093 78.8473 177.984 78.7102 177.863 78.5978C177.619 78.3723 177.303 78.1778 176.97 78.1264Z" fill="#1B1D1E"/>
<path d="M181.409 78.1865C181.466 78.2309 181.524 78.2754 181.581 78.32C181.715 78.3972 181.858 78.4361 182.013 78.4365H182.831C182.948 78.4409 183.058 78.4164 183.16 78.363C183.266 78.3286 183.357 78.2696 183.435 78.1865C183.518 78.1091 183.577 78.0175 183.611 77.9117C183.665 77.8099 183.689 77.7002 183.685 77.5826C183.675 77.5071 183.664 77.4314 183.654 77.3557C183.614 77.2111 183.54 77.0855 183.435 76.979C183.377 76.9345 183.319 76.89 183.262 76.8454C183.128 76.7682 182.985 76.7293 182.831 76.7287H182.013C181.895 76.7245 181.785 76.749 181.683 76.8024C181.578 76.8368 181.486 76.8956 181.409 76.979C181.325 77.0563 181.266 77.1479 181.232 77.2537C181.178 77.3555 181.154 77.4652 181.158 77.5826C181.168 77.6583 181.179 77.734 181.189 77.8096C181.229 77.9543 181.303 78.0799 181.409 78.1865Z" fill="#1B1D1E"/>
<path d="M97.9432 151.039C97.8423 151.044 97.8899 151.045 97.9432 151.039V151.039Z" fill="#1B1D1E"/>
<path d="M127.568 135.38C127.885 135.255 128.203 135.127 128.508 134.974C128.809 134.822 129.11 134.627 129.373 134.393C131.559 133.988 132.632 132.244 133.457 130.202C132.432 131.017 131.269 131.666 130.212 132.443C130.203 132.228 130.173 132.015 130.095 131.815C129.819 131.107 129.212 130.582 128.418 130.588C127.579 130.594 126.912 131.171 126.555 131.889C126.129 132.037 125.749 132.285 125.492 132.686C124.893 133.619 125.145 135.256 126.372 135.527C126.786 135.619 127.182 135.533 127.568 135.38ZM128.012 132.833C128.011 132.85 128.009 132.866 128.006 132.881C128.008 132.868 128.008 132.86 128.008 132.847C128.009 132.843 128.011 132.838 128.012 132.833ZM128.285 132.361C128.306 132.347 128.314 132.342 128.285 132.361V132.361ZM128.035 133.014C128.071 132.963 128.089 132.924 128.035 133.014V133.014Z" fill="#1B1D1E"/>
<path d="M130.448 109.52C130.372 109.392 130.27 109.29 130.141 109.214C129.705 108.985 129.231 108.93 128.751 109.035C128.556 109.077 128.361 109.159 128.193 109.263C128.163 109.282 128.138 109.306 128.11 109.326C127.926 109.308 127.747 109.329 127.575 109.419C127.365 109.528 127.162 109.725 127.057 109.937C126.949 110.155 126.881 110.396 126.899 110.641C126.92 110.915 126.983 111.135 127.111 111.379C127.138 111.432 127.171 111.481 127.207 111.528C127.285 111.631 127.36 111.739 127.457 111.825C127.655 112.002 127.857 112.127 128.112 112.207C128.371 112.289 128.643 112.274 128.904 112.217C129.037 112.188 129.164 112.129 129.287 112.073C129.361 112.04 129.429 112.001 129.495 111.953C129.551 111.912 129.594 111.868 129.643 111.826C129.662 111.817 129.684 111.816 129.701 111.807C129.842 111.724 129.961 111.574 130.034 111.416C130.051 111.392 130.07 111.375 130.087 111.351C130.179 111.224 130.232 111.074 130.294 110.929C130.74 111.027 131.185 111.126 131.631 111.224C131.685 110.921 131.739 110.618 131.792 110.315H130.489C130.512 110.194 130.549 110.076 130.565 109.951C130.564 109.797 130.525 109.653 130.448 109.52Z" fill="#1B1D1E"/>
<path d="M247.421 45.9387C247.688 46.0931 247.975 46.1707 248.284 46.1718C248.418 46.1832 248.552 46.1754 248.686 46.1601C248.621 48.5141 248.957 51.3995 249.674 54.8131C249.429 51.8626 250.172 48.9514 250.415 45.8589C250.45 45.8407 250.492 45.8431 250.526 45.8215C250.894 45.5842 251.204 45.2374 251.311 44.801C251.371 44.5562 251.431 44.3114 251.491 44.0667C251.661 43.6461 251.787 43.2198 251.762 42.7517C251.744 42.3936 251.61 42.0283 251.387 41.7342C251.428 41.6179 251.493 41.5085 251.499 41.3828C251.55 41.1558 251.54 40.9289 251.469 40.7019C251.359 40.3058 251.053 39.8765 250.683 39.6814C250.287 39.4721 249.806 39.367 249.367 39.5093C248.966 39.6388 248.53 39.897 248.346 40.2939C247.833 41.3967 247.32 42.4995 246.808 43.6022C246.654 43.8686 246.576 44.1559 246.575 44.4643C246.576 44.7723 246.654 45.0596 246.808 45.326C246.96 45.5827 247.164 45.7867 247.421 45.9387Z" fill="#1B1D1E"/>
<path d="M174.75 3.70257C174.777 3.75298 174.819 3.79428 174.852 3.8432C174.874 3.98291 174.878 4.12727 174.944 4.25451C175.013 4.46621 175.131 4.64944 175.298 4.80403C175.452 4.97053 175.636 5.08828 175.848 5.15711C176.051 5.26389 176.271 5.313 176.506 5.30426C176.626 5.29886 176.742 5.25775 176.862 5.23264C177.246 5.29979 177.644 5.28975 178.005 5.17906C178.211 5.116 178.422 5.03563 178.604 4.91769C178.638 4.89611 178.668 4.86672 178.702 4.84291C178.936 4.74022 179.147 4.62098 179.354 4.43421C179.562 4.24688 179.628 4.10029 179.726 3.87036C179.754 3.80246 179.783 3.73438 179.812 3.66648C179.844 3.50668 179.865 3.34577 179.874 3.18393C179.877 3.1363 179.877 3.08887 179.874 3.04143C179.839 2.52465 179.728 2.09939 179.482 1.64158C179.372 1.43807 179.205 1.24255 179.065 1.07048C179.002 0.992533 178.934 0.919982 178.857 0.854501C178.677 0.699913 178.486 0.542348 178.279 0.422175C178.07 0.301258 177.839 0.209733 177.613 0.131974C177.383 0.0530985 177.116 0.0317054 176.884 0.00770801C176.78 -0.00308154 176.677 -0.00289551 176.572 0.0104984C176.337 0.00156913 176.118 0.0506801 175.914 0.157645C175.702 0.226475 175.519 0.344044 175.364 0.510724C175.106 0.79181 174.97 1.12424 174.912 1.4909C174.825 1.58187 174.723 1.65944 174.662 1.7731C174.454 2.16766 174.345 2.6517 174.49 3.08887C174.56 3.29926 174.646 3.50687 174.75 3.70257ZM177.759 2.13102C177.744 2.07837 177.705 2.03949 177.685 1.99001C177.696 2.00396 177.707 2.01791 177.717 2.03205C177.731 2.06516 177.745 2.09809 177.759 2.13102Z" fill="#1B1D1E"/>
<path d="M124.152 32.6305C124.094 32.7091 124.045 32.7953 124.02 32.8976C123.879 33.4901 124.061 34.114 124.515 34.5266C124.907 34.8819 125.439 35.1186 125.976 35.0979C126.688 35.0704 127.52 34.5795 127.444 33.7678C127.42 33.5169 127.34 33.2864 127.259 33.057C127.291 33.0114 127.346 32.9852 127.368 32.9333C127.493 32.6388 127.461 32.2508 127.377 31.9481C127.23 31.4196 126.882 31.0007 126.442 30.6867C125.961 30.3429 125.325 30.2436 124.757 30.3808C124.561 30.4281 124.341 30.5942 124.246 30.7732C124.134 30.9839 124.112 31.1966 124.16 31.4311C124.161 31.436 124.162 31.4408 124.163 31.4457C124.117 31.4938 124.056 31.529 124.023 31.5848C123.946 31.7178 123.907 31.8616 123.906 32.0156C123.907 32.1699 123.946 32.3135 124.023 32.4467C124.052 32.5136 124.113 32.5668 124.152 32.6305Z" fill="#1B1D1E"/>
<path d="M93.6542 131.65C92.7041 132.082 91.9608 132.958 91.9249 134.068C91.9154 134.366 92.0947 134.657 92.348 134.805C92.6298 134.97 92.9273 134.938 93.2104 134.805C93.3955 134.718 93.5803 134.631 93.7651 134.544C93.7675 135.001 94.0192 135.443 94.4598 135.649C95.4148 136.094 96.5798 135.563 97.2498 134.844C97.9128 134.132 98.252 133.184 98.0703 132.218C97.9126 131.38 97.2416 130.714 96.4205 130.514C95.7081 130.34 94.882 130.442 94.2797 130.878C94.0142 131.07 93.8092 131.348 93.6542 131.65ZM95.6493 132.143C95.6489 132.143 95.6497 132.143 95.6493 132.143C95.6095 132.157 95.5896 132.168 95.579 132.16C95.6071 132.157 95.6259 132.15 95.6493 132.143ZM95.9321 132.153C95.9034 132.154 95.871 132.161 95.8578 132.154C95.888 132.157 95.9079 132.154 95.9321 132.153ZM96.3261 133.198C96.3215 133.207 96.3192 133.211 96.3127 133.224C96.3183 133.206 96.325 133.191 96.3319 133.179C96.3297 133.185 96.3284 133.192 96.3261 133.198ZM96.2239 132.268C96.2403 132.283 96.2478 132.29 96.2597 132.3C96.2586 132.297 96.2582 132.293 96.258 132.29C96.2627 132.293 96.2725 132.299 96.2746 132.301C96.2761 132.304 96.2764 132.304 96.2781 132.307C96.2766 132.308 96.2722 132.307 96.2653 132.305C96.269 132.308 96.2787 132.317 96.2792 132.318C96.2947 132.331 96.2934 132.332 96.3012 132.34C96.3016 132.341 96.3031 132.343 96.3032 132.343C96.307 132.349 96.3101 132.356 96.3139 132.362C96.2969 132.354 96.2725 132.332 96.2604 132.305C96.2385 132.296 96.2135 132.277 96.1997 132.256C96.2066 132.26 96.2198 132.266 96.2239 132.268ZM96.0599 132.187C96.0667 132.189 96.0734 132.191 96.0801 132.193C96.0975 132.204 96.107 132.213 96.1322 132.225C96.1082 132.221 96.0797 132.207 96.0599 132.187ZM94.6693 134.975C94.5937 134.943 94.5231 134.901 94.4634 134.848C94.5239 134.902 94.5972 134.937 94.6693 134.975Z" fill="#1B1D1E"/>
<path d="M96.2647 132.305L96.2595 132.3L96.2602 132.304L96.2647 132.305Z" fill="#1B1D1E"/>
</g>
<defs>
<clipPath id="clip0_6772_17494">
<rect width="291" height="204" fill="white"/>
</clipPath>
</defs>
</svg>
