<svg width="140" height="217" viewBox="0 0 140 217" fill="none" xmlns="http://www.w3.org/2000/svg">
<g clip-path="url(#clip0_6772_26928)">
<g style="mix-blend-mode:overlay">
<path d="M50.4774 56.2271C51.8277 57.8838 53.881 58.0662 55.5439 57.0195C58.5634 55.1185 62.1458 53.3946 64.0406 50.609C66.2993 47.2879 69.3719 45.5837 72.3505 43.4097C74.0113 42.1977 75.6307 40.533 76.4904 38.7061C78.0261 35.4426 75.9155 32.562 72.2773 32.7468C70.2998 32.8472 68.0055 33.065 66.4654 34.1215C63.0027 36.497 59.5812 39.1224 56.787 42.2259C54.3481 44.935 52.7907 48.4373 50.7822 51.6887C49.2963 53.0218 49.2458 54.7163 50.4774 56.2271Z" fill="#1B1D1E"/>
</g>
<g style="mix-blend-mode:overlay">
<path d="M27.7539 70.3377C28.5511 71.5291 29.3487 72.737 29.9784 74.0197C30.8653 75.8261 32.3275 76.4352 34.194 76.3877C36.1763 76.3371 37.3644 75.2624 37.984 73.4318C38.5787 71.6757 39.2187 69.9349 39.9392 67.9037C38.5125 66.3062 37.2832 64.6909 35.8128 63.3377C33.4175 61.1339 30.2532 61.1071 27.9506 63.0592C25.7742 64.904 25.7284 67.3095 27.7539 70.3377Z" fill="#1B1D1E"/>
</g>
<g style="mix-blend-mode:overlay">
<path d="M44.474 114.889C44.4461 114.865 44.4173 114.844 44.3893 114.819C44.3749 114.851 44.3652 114.871 44.3509 114.901C44.3718 114.933 44.391 114.968 44.4132 114.998C44.4314 114.958 44.4553 114.928 44.474 114.889Z" fill="#1B1D1E"/>
</g>
<g style="mix-blend-mode:overlay">
<path d="M55.4584 117.804C56.2059 117.558 57.1295 117.833 57.9705 117.887C61.5392 118.118 65.1059 118.405 68.6784 118.538C69.2179 118.558 70.1138 117.961 70.2473 117.483C70.3882 116.979 69.9811 115.997 69.5155 115.714C68.433 115.055 67.0856 114.834 65.9984 114.181C62.7401 112.224 59.5437 111.956 56.6468 114.046C54.2907 113.399 52.2608 112.673 50.168 112.311C47.7722 111.897 45.6417 112.463 44.4739 114.889C47.6503 117.65 51.1167 119.234 55.4584 117.804Z" fill="#1B1D1E"/>
</g>
<g style="mix-blend-mode:overlay">
<path d="M84.4967 139.381C83.0629 136.082 80.7973 134.184 77.1521 134.148C79.4307 136.029 80.3826 139.7 84.4967 139.381Z" fill="#1B1D1E"/>
</g>
<g style="mix-blend-mode:overlay">
<path d="M46.7471 159.541C46.0863 160.239 45.933 161.21 47.1328 161.958C48.7902 162.991 50.3215 164.226 51.9069 165.375C52.0959 165.167 52.2848 164.959 52.4738 164.751C51.29 163.074 50.1957 161.321 48.8635 159.772C48.5031 159.353 47.0597 159.21 46.7471 159.541Z" fill="#1B1D1E"/>
</g>
<g style="mix-blend-mode:overlay">
<path d="M119.668 173.415C120.386 171.757 119.049 170.719 117.816 170.057C117.122 169.685 116.07 169.98 114.019 169.968C115.519 171.824 116.194 173.048 117.223 173.77C117.743 174.135 119.482 173.844 119.668 173.415Z" fill="#1B1D1E"/>
</g>
<g style="mix-blend-mode:overlay">
<path d="M89.9366 143.736C89.8991 143.947 89.8976 144.189 90.0192 144.365C90.4629 145.01 90.9273 145.684 91.6274 146.076C92.3361 146.474 93.144 146.524 93.8928 146.209C94.578 145.92 95.0794 145.173 95.0306 144.421C94.9808 143.656 94.5602 142.98 93.9137 142.568C93.2204 142.126 92.367 142.082 91.5699 142.084C91.5109 142.084 91.4551 142.107 91.3969 142.118C89.3672 140.648 88.8149 140.682 86.5779 140.829C87.5148 142.152 88.5749 143.173 89.9366 143.736ZM92.8743 144.195C92.8955 144.208 92.9172 144.22 92.9379 144.234C92.9858 144.28 93.0331 144.328 93.0751 144.38C93.0828 144.393 93.0924 144.406 93.0995 144.42C93.1016 144.424 93.1043 144.431 93.1068 144.437C93.1081 144.442 93.1098 144.448 93.111 144.453C93.0952 144.462 93.0802 144.472 93.0643 144.48C93.0399 144.487 93.0156 144.494 92.9908 144.499C92.9824 144.501 92.969 144.503 92.9557 144.505C92.9153 144.506 92.8757 144.5 92.8356 144.498C92.783 144.486 92.7316 144.471 92.6806 144.454C92.5843 144.402 92.4915 144.344 92.4032 144.279C92.3762 144.254 92.3519 144.227 92.3258 144.201C92.5054 144.203 92.6855 144.206 92.8743 144.195Z" fill="#1B1D1E"/>
</g>
<g style="mix-blend-mode:overlay">
<path d="M56.3536 29.9286C57.1186 28.7421 56.3787 27.739 55.201 27.2977C54.6851 27.1045 53.9779 27.4218 52.8679 27.5747C53.4142 28.7564 53.6094 29.8024 54.2386 30.3107C54.6263 30.6237 56.0693 30.3697 56.3536 29.9286Z" fill="#1B1D1E"/>
</g>
<g style="mix-blend-mode:overlay">
<path d="M45.0746 88.9888C46.3616 91.2925 47.8811 91.8192 50.1873 91.5105C48.9344 89.8999 48.0215 88.3209 45.0746 88.9888Z" fill="#1B1D1E"/>
</g>
<g style="mix-blend-mode:overlay">
<path d="M5.71458 146.145C4.39972 145.193 3.60551 144.617 2.81127 144.042C2.53247 144.471 1.93561 144.995 2.03079 145.311C2.40336 146.547 3.28024 147.097 5.71458 146.145Z" fill="#1B1D1E"/>
</g>
<g style="mix-blend-mode:overlay">
<path d="M86.5653 210.978C86.541 211.063 86.4952 211.143 86.4901 211.24C86.4876 211.291 86.4899 211.34 86.4943 211.391C86.5229 211.711 86.5893 212.016 86.769 212.29C87.0864 212.773 87.5681 213.151 88.1394 213.285C88.806 213.441 89.5462 213.326 90.0439 212.822C90.3479 212.514 90.4383 212.059 90.238 211.669C90.1525 211.502 90.0618 211.339 89.9551 211.185C89.8474 211.029 89.7391 210.896 89.6203 210.772C89.6235 210.75 89.6266 210.729 89.6296 210.707C89.5896 210.695 89.5478 210.684 89.5078 210.672C89.4376 210.608 89.3741 210.541 89.2894 210.479C89.2307 210.436 89.1646 210.412 89.1022 210.379C88.959 210.245 88.7963 210.135 88.606 210.068C88.2637 209.949 87.9078 210.013 87.5729 210.13C86.8989 209.941 86.1504 209.731 85.2392 209.475C85.659 210.264 86.1088 210.703 86.5653 210.978Z" fill="#1B1D1E"/>
</g>
<g style="mix-blend-mode:overlay">
<path d="M58.9119 92.0339C58.0495 90.9137 57.2246 89.7054 54.9773 90.8078C56.3279 91.642 57.3582 92.2784 58.3883 92.9147C58.5629 92.6212 58.7376 92.3274 58.9119 92.0339Z" fill="#1B1D1E"/>
</g>
<g style="mix-blend-mode:overlay">
<path d="M71.124 135.631C71.1912 135.453 71.2586 135.276 71.3257 135.098C70.4244 134.541 69.5229 133.984 68.6213 133.428C68.4428 133.814 68.2641 134.2 68.0856 134.586C69.0983 134.934 70.1112 135.283 71.124 135.631Z" fill="#1B1D1E"/>
</g>
<g style="mix-blend-mode:overlay">
<path d="M66.2894 82.3105C66.3598 81.9604 66.4304 81.61 66.5009 81.2598C65.6809 81.0451 64.8608 80.8305 64.0405 80.6159C63.9399 81.0235 63.839 81.4311 63.7382 81.8387C64.5885 81.996 65.4389 82.1534 66.2894 82.3105Z" fill="#1B1D1E"/>
</g>
<g style="mix-blend-mode:overlay">
<path d="M56.0971 77.4369C55.5808 75.9557 55.1918 74.8401 54.8028 73.7244C54.7048 75.0428 53.0714 77.055 56.0971 77.4369Z" fill="#1B1D1E"/>
</g>
<g style="mix-blend-mode:overlay">
<path d="M39.2611 90.1133C38.5609 89.8227 37.8605 89.5321 37.1603 89.2417C37.0668 89.4607 36.9733 89.6796 36.88 89.8986C37.5187 90.2931 38.1574 90.6875 38.796 91.082C38.9511 90.7592 39.1061 90.4362 39.2611 90.1133Z" fill="#1B1D1E"/>
</g>
<g style="mix-blend-mode:overlay">
<path d="M3.15632 83.8024C3.14219 83.8933 3.06219 84.2855 3.04975 84.5027C3.03394 84.7766 3.08391 85.0352 3.11321 85.3147C3.11718 85.3515 3.12051 85.3968 3.12369 85.4364C3.0709 85.4611 3.02512 85.4773 2.97074 85.5039C3.03086 85.5448 3.08098 85.579 3.13937 85.6186C3.15412 85.8006 3.17342 85.9872 3.22101 86.1551C3.34604 86.5965 3.5301 87.0866 3.72576 87.5005C3.7615 87.5762 3.80083 87.6471 3.84479 87.7182C4.0873 88.1096 4.38402 88.5307 4.67665 88.8862C4.73881 88.9616 4.80355 89.0338 4.87502 89.1009C4.90948 89.1332 4.94563 89.1605 4.98017 89.1922C5.35526 89.7185 5.82748 90.176 6.35731 90.5032C6.90583 90.8713 7.50194 91.0778 8.14565 91.1227C8.58154 91.2288 9.02031 91.2239 9.46029 91.1665C9.49958 91.1695 9.53846 91.1753 9.57808 91.1746C10.1702 91.1652 10.844 91.1183 11.4291 90.9337C12.7534 90.5156 13.734 89.9788 14.8016 89.0729C15.2415 88.6996 15.6202 88.2612 15.99 87.82C16.4948 87.3829 16.8541 86.8558 17.0674 86.2388C17.2048 85.9919 17.299 85.7319 17.3741 85.4665C17.6494 85.1328 17.8837 84.7736 18.0273 84.3585C18.3378 83.8004 18.4887 83.1955 18.48 82.5433C18.4565 81.3254 18.094 80.0425 17.2001 79.1634C16.3099 78.2875 15.0929 77.5919 13.8037 77.6333C12.302 77.6812 10.7646 77.854 9.31732 78.276C8.42932 78.5348 7.5534 78.8655 6.70578 79.2323C6.57101 79.2906 6.43718 79.3519 6.30962 79.4247C5.87827 79.6713 5.43436 79.9891 5.05404 80.3051C4.5738 80.7037 4.14866 81.2089 3.85651 81.7605C3.63184 82.1844 3.40957 82.6359 3.27111 83.1027C3.20858 83.3139 3.17333 83.6928 3.15632 83.8024Z" fill="#1B1D1E"/>
</g>
<g style="mix-blend-mode:overlay">
<path d="M5.97554 93.4579C0.726972 90.216 -4.32026 98.3674 0.936997 101.615C6.18556 104.857 11.2328 96.7053 5.97554 93.4579Z" fill="#1B1D1E"/>
</g>
<g style="mix-blend-mode:overlay">
<path d="M8.008 162.572C7.90186 161.799 7.65081 161.061 7.34702 160.345C7.23362 160.11 7.07117 159.92 6.86027 159.776C6.67335 159.594 6.4505 159.47 6.1917 159.404C6.06773 159.367 5.92082 159.377 5.78091 159.368C3.60524 153.29 1.5687 148.085 0.790935 146.964C0.476875 147.016 0.162594 147.068 -0.151466 147.121C0.702751 150.092 1.10309 153.308 2.53667 155.967C3.32838 157.435 3.5436 159.023 3.87062 160.597C3.85732 160.637 3.82272 160.665 3.81266 160.707C3.78723 160.871 3.76176 161.034 3.73637 161.198C3.73313 161.369 3.81174 161.521 3.85063 161.682C3.65843 161.966 3.49559 162.266 3.42701 162.614C3.37396 162.884 3.31483 163.17 3.32414 163.448C3.3333 163.724 3.35664 164.011 3.42433 164.28C3.56599 164.842 3.8202 165.296 4.17903 165.744C4.54583 166.203 5.07048 166.488 5.60992 166.689C5.93413 166.782 6.26054 166.791 6.58896 166.714C6.83926 166.665 7.05973 166.559 7.25052 166.397C7.47277 166.266 7.64903 166.086 7.77936 165.856C7.96039 165.561 8.05556 165.24 8.06507 164.895C8.16503 164.118 8.11412 163.347 8.008 162.572ZM6.97756 163.818C6.94529 163.858 6.91331 163.897 6.88108 163.936C6.92063 163.901 6.93154 163.848 6.96645 163.811C6.97019 163.813 6.97382 163.816 6.97756 163.818Z" fill="#1B1D1E"/>
</g>
<g style="mix-blend-mode:overlay">
<path d="M66.6633 182.917C67.0755 183.224 67.559 183.45 67.8849 183.856C68.2568 184.32 68.5101 184.95 68.7698 185.481C69.3354 186.638 69.7925 187.829 70.1411 189.069C70.8037 191.423 70.7546 194.156 72.3135 196.163C73.8733 198.17 76.5814 198.603 78.6126 197.12C79.1791 196.707 79.2691 195.901 79.1735 195.274C78.6554 191.874 77.0538 188.71 74.6659 186.24C74.1596 185.717 73.5647 185.605 73.0124 185.71C72.9648 185.585 72.9386 185.458 72.8888 185.333C72.0638 183.265 71.1068 181.323 69.234 180.037C67.6827 178.971 66.6377 177.523 66.1993 175.682C65.6266 173.278 61.8941 174.159 62.467 176.564C63.0788 179.132 64.5447 181.344 66.6633 182.917Z" fill="#1B1D1E"/>
</g>
<g style="mix-blend-mode:overlay">
<path d="M53.4142 166.765C53.2332 167.06 53.1378 167.38 53.1283 167.726C53.1453 167.889 53.1622 168.051 53.1794 168.214C53.2581 168.542 53.4117 168.83 53.64 169.078C54.0986 169.62 54.5573 170.162 55.0159 170.704C55.1907 170.906 55.4017 171.05 55.6485 171.135C55.8718 171.259 56.1137 171.32 56.3747 171.316C56.6281 171.331 56.8672 171.285 57.0918 171.179C57.3333 171.11 57.5449 170.986 57.7267 170.804C57.8354 170.672 57.9441 170.539 58.0528 170.407C58.2337 170.112 58.329 169.791 58.3387 169.446C58.3215 169.283 58.3045 169.121 58.2874 168.958C58.2089 168.63 58.0553 168.342 57.8269 168.094C57.3681 167.552 56.9095 167.01 56.4508 166.468C56.276 166.266 56.0653 166.122 55.8184 166.037C55.5952 165.912 55.353 165.852 55.0921 165.856C54.8387 165.841 54.5998 165.887 54.3749 165.993C54.1333 166.062 53.9219 166.187 53.7403 166.368C53.6316 166.5 53.5229 166.633 53.4142 166.765Z" fill="#1B1D1E"/>
</g>
<g style="mix-blend-mode:overlay">
<path d="M67.6609 138.786C67.2705 138.46 66.7725 138.322 66.1457 138.329C65.9643 138.331 65.7866 138.668 65.4481 139.012C65.8715 139.273 66.2893 139.531 66.7476 139.814C66.7476 139.814 66.7475 139.814 66.7476 139.814C66.718 139.936 66.72 140.058 66.754 140.181C66.7789 140.307 66.8315 140.417 66.9123 140.512C66.9779 140.623 67.0683 140.711 67.1832 140.777C67.2987 140.841 67.427 140.885 67.5586 140.906C67.5562 140.979 67.5424 141.051 67.5626 141.125C67.63 141.363 67.7686 141.595 67.9918 141.72C68.203 141.838 68.4773 141.916 68.7161 141.837C68.9685 141.755 69.146 141.669 69.3508 141.493C69.4432 141.414 69.5154 141.311 69.5906 141.217C69.6194 141.181 69.6458 141.143 69.6681 141.103C69.7269 140.996 69.7765 140.881 69.8191 140.767C69.8355 140.724 69.8478 140.679 69.8562 140.633C69.8775 140.516 69.9022 140.397 69.9063 140.277C69.9109 140.155 69.8914 140.03 69.8747 139.91C69.8524 139.75 69.7909 139.587 69.709 139.449C69.648 139.346 69.5787 139.245 69.4982 139.156C69.4806 139.137 69.4618 139.119 69.4424 139.102C69.3634 139.033 69.282 138.961 69.1944 138.903C68.8306 138.659 68.3738 138.613 67.9527 138.687C67.8531 138.705 67.7556 138.748 67.6609 138.786Z" fill="#1B1D1E"/>
</g>
<g style="mix-blend-mode:overlay">
<path d="M78.9886 170.608C78.7715 172.131 79.9852 173.789 81.5054 174.036C81.763 174.078 81.9843 174.089 82.2243 173.962C82.2993 173.922 82.3659 173.854 82.4326 173.789C82.4707 173.806 82.5045 173.839 82.5435 173.848C82.7803 173.906 83.0463 173.902 83.2625 173.774C83.4685 173.654 83.694 173.445 83.733 173.197C83.79 172.836 83.8066 172.546 83.7536 172.184C83.7171 171.932 83.6277 171.69 83.5273 171.457C83.3105 170.954 82.9334 170.55 82.5105 170.215C82.1522 169.931 81.7105 169.711 81.261 169.621C80.6413 169.498 80.0832 169.553 79.4971 169.785C79.1616 169.917 79.034 170.289 78.9886 170.608Z" fill="#1B1D1E"/>
</g>
<g style="mix-blend-mode:overlay">
<path d="M103.482 198.352C103.479 198.352 103.477 198.353 103.475 198.353C103.449 198.201 103.421 198.049 103.404 197.899C103.043 197.943 102.681 197.988 102.013 198.069C102.097 198.322 102.152 198.548 102.211 198.759C102.121 198.813 102.036 198.873 101.977 198.96C101.886 199.053 101.824 199.164 101.791 199.294C101.778 199.376 101.765 199.458 101.753 199.54C101.749 199.707 101.787 199.865 101.864 200.013C102.011 200.333 102.312 200.548 102.633 200.663C102.658 200.672 102.683 200.679 102.71 200.685C102.809 200.705 102.914 200.724 103.015 200.73C103.043 200.732 103.07 200.731 103.097 200.729C103.2 200.721 103.308 200.715 103.409 200.693C103.436 200.688 103.462 200.68 103.489 200.67C103.584 200.637 103.684 200.605 103.775 200.559C103.782 200.556 103.787 200.549 103.794 200.545C103.933 200.535 104.075 200.526 104.207 200.486C104.377 200.434 104.553 200.371 104.706 200.278C104.773 200.23 104.841 200.182 104.908 200.134L105.071 199.935L105.176 199.7C105.216 199.578 105.225 199.456 105.201 199.332C105.203 199.249 105.184 199.17 105.145 199.096C105.126 199.014 105.087 198.942 105.03 198.88C104.989 198.803 104.932 198.742 104.859 198.697C104.765 198.606 104.654 198.543 104.524 198.51C104.322 198.426 104.114 198.397 103.897 198.365C103.759 198.344 103.62 198.34 103.482 198.352Z" fill="#1B1D1E"/>
</g>
<g style="mix-blend-mode:overlay">
<path d="M60.4885 180.738C60.2455 180.628 60.0345 180.557 59.764 180.62C59.5351 180.675 59.2854 180.841 59.1689 181.05C59.048 181.267 58.9822 181.528 59.0515 181.774C59.1154 182 59.2556 182.268 59.4808 182.369C59.7348 182.484 59.9658 182.638 60.188 182.804C60.3772 182.971 60.5502 183.153 60.7046 183.353C60.845 183.565 60.9698 183.785 61.0663 184.021C61.0871 184.085 61.1105 184.148 61.128 184.213C61.259 184.697 61.7721 185.069 62.2815 184.926C62.7685 184.788 63.1341 184.289 62.9943 183.772C62.6431 182.474 61.7264 181.297 60.4885 180.738Z" fill="#1B1D1E"/>
</g>
<g style="mix-blend-mode:overlay">
<path d="M24.9503 106.492C24.4629 106.502 23.9416 106.892 23.9683 107.428C24.0051 108.159 24.5228 108.693 25.2601 108.746C25.6149 108.771 25.9176 108.653 26.1805 108.466C26.2443 108.543 26.3123 108.618 26.4069 108.67C27.3257 109.176 28.3694 109.419 29.4168 109.318C30.6317 109.199 32.2939 108.601 32.0424 107.07C31.8732 106.042 30.6851 105.323 29.7569 105.084C29.3912 104.99 29.0205 104.961 28.6511 104.963C27.6449 104.549 26.7174 104.849 25.1312 105.714C25.2632 105.956 25.3897 106.152 25.5176 106.36C25.4574 106.434 25.4004 106.511 25.3442 106.587C25.2268 106.527 25.0966 106.49 24.9503 106.492Z" fill="#1B1D1E"/>
</g>
<g style="mix-blend-mode:overlay">
<path d="M12.0538 112.472C12.0513 112.481 12.0557 112.49 12.053 112.499C12.0768 112.416 12.0693 112.431 12.0538 112.472Z" fill="#1B1D1E"/>
</g>
<g style="mix-blend-mode:overlay">
<path d="M11.1659 108.482C11.2369 108.521 11.3143 108.539 11.3901 108.563C11.4219 108.616 11.4424 108.674 11.4858 108.72C12.1248 109.409 13.2955 109.461 13.9749 108.799C14.1478 108.631 14.2857 108.368 14.281 108.12C14.2763 107.882 14.2075 107.611 14.025 107.444C13.677 107.126 13.2788 106.877 12.818 106.757C12.3709 106.641 11.9 106.627 11.4492 106.733C11.21 106.789 10.9829 106.953 10.8541 107.162C10.7304 107.362 10.6716 107.656 10.7367 107.886C10.8039 108.125 10.9425 108.357 11.1659 108.482Z" fill="#1B1D1E"/>
</g>
<g style="mix-blend-mode:overlay">
<path d="M39.4256 107.029C39.423 106.905 39.3898 106.788 39.3264 106.677C39.2448 106.525 39.1305 106.403 38.9835 106.312C38.7809 106.218 38.5826 106.124 38.3623 106.082C38.1482 106.042 37.93 106.006 37.7111 106.018C37.5002 106.03 37.2807 106.05 37.077 106.112C36.8678 106.174 36.655 106.253 36.4674 106.367C36.3999 106.415 36.3325 106.463 36.2649 106.512C36.1638 106.599 36.092 106.704 36.0494 106.828C36.0042 106.902 35.9802 106.982 35.978 107.068C35.9484 107.189 35.9505 107.312 35.9844 107.435C35.9891 107.458 36.0013 107.48 36.0083 107.503C36.0018 107.593 35.9924 107.684 36.0175 107.773C36.083 108.005 36.222 108.255 36.4465 108.368C36.6456 108.468 36.8481 108.56 37.0686 108.596C37.214 108.619 37.3599 108.648 37.5078 108.648C37.6538 108.649 37.8025 108.629 37.9458 108.61C38.1595 108.58 38.3726 108.499 38.566 108.409C38.6275 108.38 38.6869 108.347 38.7432 108.309C38.8673 108.225 38.9949 108.14 39.1047 108.037C39.159 107.971 39.2134 107.905 39.2677 107.838C39.3413 107.729 39.3826 107.609 39.3918 107.481C39.3988 107.456 39.3905 107.432 39.3936 107.407C39.395 107.403 39.3991 107.401 39.4002 107.397C39.4405 107.275 39.449 107.152 39.4256 107.029Z" fill="#1B1D1E"/>
</g>
<g style="mix-blend-mode:overlay">
<path d="M6.81423 105.498C6.84121 105.21 6.76109 104.92 6.64167 104.661C6.5169 104.39 6.30903 104.201 6.08192 104.021C5.91002 103.884 5.69912 103.798 5.49702 103.719C5.34846 103.661 5.19269 103.622 5.03587 103.594C4.54022 103.503 4.01371 103.423 3.54341 103.665C2.92135 103.984 2.70176 104.747 2.91364 105.387C2.94048 105.468 2.97347 105.532 3.00372 105.602C2.91678 105.704 2.84841 105.822 2.81895 105.942C2.76085 106.179 2.76554 106.445 2.89277 106.662C3.01838 106.875 3.21944 107.077 3.47048 107.132C3.86174 107.218 4.2666 107.31 4.66915 107.301C4.89574 107.296 5.13578 107.276 5.35347 107.207C5.65212 107.113 5.87826 106.991 6.12529 106.799C6.23269 106.716 6.31057 106.598 6.39692 106.489C6.42168 106.459 6.45122 106.435 6.47192 106.403C6.49609 106.368 6.53342 106.343 6.5548 106.308C6.70793 106.056 6.78677 105.789 6.81423 105.498Z" fill="#1B1D1E"/>
</g>
</g>
<defs>
<clipPath id="clip0_6772_26928">
<rect width="275.296" height="179.383" fill="white" transform="translate(113.459 216.958) rotate(-171.767)"/>
</clipPath>
</defs>
</svg>
