<svg width="146" height="146" viewBox="0 0 146 146" fill="none" xmlns="http://www.w3.org/2000/svg">
<path d="M22.931 114.145C22.9173 114.087 22.8985 114.033 22.8746 113.983C22.8507 113.934 22.8276 113.875 22.8054 113.807C22.537 113.11 22.5043 112.478 22.7071 111.909C22.1297 110.967 21.868 110.04 21.9222 109.126C22.0003 108.158 22.4591 107.324 23.2987 106.624C24.425 105.684 25.7393 105.282 27.2416 105.418C28.7252 105.552 29.941 106.188 30.889 107.324C31.5552 108.123 31.8706 108.928 31.8351 109.739C32.1971 109.819 32.6427 109.916 33.172 110.03C33.72 110.146 34.3517 110.279 35.0671 110.428L35.3589 110.185C36.6592 109.1 37.5614 108.86 38.0653 109.464C38.1848 109.607 38.2353 109.782 38.2166 109.989C38.2167 110.197 38.1451 110.361 38.0017 110.481C37.5922 110.822 36.678 110.882 35.2593 110.659C35.133 110.799 34.9513 111.029 34.7142 111.348C34.4873 111.659 34.2143 112.06 33.8953 112.552C33.3579 113.365 32.8538 113.968 32.3828 114.36C31.0517 115.471 29.4455 115.804 27.564 115.359C25.8327 114.928 24.3991 114.031 23.2632 112.67C23.1949 112.588 23.1274 112.496 23.0608 112.396C22.9839 112.304 22.9164 112.212 22.8583 112.122C22.6913 112.608 22.7111 113.121 22.918 113.661C22.9539 113.787 22.9889 113.871 23.0231 113.912C23.0487 113.942 23.1153 113.991 23.2229 114.058C23.3219 114.114 23.3843 114.157 23.4099 114.188C23.4611 114.25 23.456 114.306 23.3946 114.357C23.282 114.451 23.1274 114.38 22.931 114.145ZM35.4179 110.474C36.7155 110.677 37.5639 110.612 37.9632 110.279C38.168 110.108 38.1594 109.889 37.9373 109.623C37.5188 109.121 36.8181 109.28 35.8352 110.1C35.7635 110.16 35.6918 110.22 35.6202 110.28C35.5587 110.331 35.4913 110.396 35.4179 110.474ZM23.0016 111.794C23.5225 112.419 24.2663 112.935 25.2327 113.345C25.6613 113.525 26.0924 113.678 26.5261 113.802C26.9786 113.929 27.4344 114.017 27.8937 114.068C28.568 114.148 29.1041 114.135 29.5018 114.029C30.893 113.719 32.1056 113.133 33.1398 112.271C33.0681 112.33 33.1773 112.222 33.4674 111.945C33.7575 111.668 34.2335 111.219 34.8956 110.598C34.5524 110.519 34.1205 110.428 33.5998 110.324C33.0978 110.222 32.5028 110.102 31.8147 109.964C31.757 110.602 31.4722 111.135 30.9602 111.562C30.2742 112.134 29.4856 112.376 28.5945 112.286C27.6845 112.194 26.9434 111.805 26.3712 111.119C26.0466 110.73 25.8646 110.335 25.8252 109.934C24.9017 110.2 24.1891 110.543 23.6874 110.961C23.5339 111.09 23.4033 111.224 23.2958 111.366C23.1781 111.516 23.08 111.659 23.0016 111.794ZM22.8606 111.625C22.9988 111.354 23.2112 111.098 23.4979 110.859C24.061 110.389 24.8393 110.001 25.8327 109.693C25.8632 109.251 26.0474 108.889 26.3853 108.607C26.5082 108.504 26.6772 108.415 26.8922 108.34C27.1756 108.243 27.3514 108.235 27.4197 108.317C27.4368 108.337 27.4436 108.366 27.4403 108.404C27.3617 108.435 27.3045 108.439 27.2687 108.417L27.2815 108.432C26.9572 108.46 26.6824 108.567 26.4571 108.755C26.1909 108.977 26.0365 109.271 25.994 109.636C27.4125 109.235 29.2152 109.241 31.4023 109.657C31.4463 108.856 31.1822 108.113 30.61 107.427C29.8071 106.464 28.6469 105.948 27.1292 105.877C25.6593 105.801 24.4329 106.172 23.4499 106.992C22.7639 107.565 22.3614 108.3 22.2423 109.198C22.1828 109.647 22.2061 110.07 22.3121 110.468C22.4079 110.874 22.5907 111.26 22.8606 111.625ZM26.4274 110.968C26.8886 111.521 27.5665 111.823 28.4611 111.876C29.3557 111.928 30.0743 111.728 30.6169 111.276C31.0265 110.934 31.2815 110.47 31.3819 109.882C30.32 109.692 29.3341 109.602 28.4242 109.615C27.5245 109.619 26.7111 109.715 25.9839 109.905C26.0063 110.286 26.1541 110.64 26.4274 110.968ZM31.1701 120.338C30.7821 119.992 30.5614 119.599 30.5081 119.158C30.4547 118.717 30.6366 118.263 31.0539 117.795C31.3912 117.417 31.8209 117.086 32.343 116.801C32.8651 116.517 33.4529 116.309 34.1065 116.177C35.5166 115.899 36.5698 116.07 37.2662 116.691C37.9128 117.269 37.9742 117.851 37.4504 118.437C37.2551 118.656 36.9724 118.833 36.6023 118.967C36.1757 119.105 35.863 119.085 35.664 118.907C35.5148 118.774 35.4935 118.648 35.6 118.528C35.7154 118.399 35.9917 118.36 36.429 118.411C36.8752 118.451 37.2092 118.347 37.4312 118.099C37.733 117.76 37.7098 117.436 37.3617 117.125C36.9936 116.797 36.346 116.701 35.419 116.839C34.7455 116.953 34.0952 117.141 33.4679 117.403C33.1909 117.513 32.8562 117.688 32.4637 117.928C32.0801 118.157 31.7552 118.421 31.4889 118.72C31.2669 118.968 31.1308 119.231 31.0804 119.508C31.03 119.785 31.1441 120.047 31.4226 120.296C31.6813 120.527 32.012 120.697 32.4149 120.806C32.8266 120.905 33.2207 120.944 33.5972 120.923C33.9172 120.905 34.3104 120.845 34.7768 120.743C35.262 120.639 35.8049 120.472 36.4055 120.239C36.4797 120.216 36.5318 120.218 36.5616 120.244C36.6213 120.298 36.5769 120.347 36.4284 120.394C35.9575 120.581 35.4849 120.74 35.0107 120.871C34.5465 121.011 34.0265 121.083 33.4507 121.087C33.093 121.107 32.7033 121.063 32.2817 120.955C31.8689 120.837 31.4984 120.631 31.1701 120.338ZM36.1965 124.191C35.5534 123.715 35.4419 123.193 35.8621 122.625C36.1951 122.175 36.7526 121.791 37.5345 121.474C37.8031 121.357 38.467 121.144 39.5263 120.833C40.2289 120.623 40.6516 120.421 40.7943 120.228C40.9291 120.046 40.8464 119.844 40.5463 119.622C40.3426 119.471 40.1135 119.31 39.8591 119.138C39.6153 118.975 39.4144 118.843 39.2564 118.742C39.0974 118.89 38.9025 119.053 38.6717 119.23C38.4408 119.408 38.1914 119.588 37.9232 119.771C37.7586 119.882 37.5222 120.022 37.214 120.192C36.9165 120.37 36.5696 120.536 36.1733 120.691C36.1094 120.71 36.0668 120.712 36.0453 120.696C36.0346 120.688 36.0372 120.673 36.053 120.652C36.0927 120.598 36.1657 120.544 36.272 120.49C36.4687 120.404 36.7 120.293 36.9658 120.158C37.2395 120.012 37.5237 119.841 37.8184 119.644C38.0786 119.471 38.336 119.28 38.5906 119.071C38.8639 118.858 39.0415 118.708 39.1236 118.619C38.9853 118.268 39.035 117.932 39.2729 117.61C39.5425 117.246 39.8059 117.159 40.0632 117.349C40.2454 117.484 40.2136 117.717 39.9678 118.05C39.9123 118.125 39.8342 118.208 39.7335 118.299C39.6328 118.39 39.5108 118.499 39.3677 118.626C39.5257 118.726 39.7694 118.89 40.0989 119.117C40.4471 119.341 40.7713 119.564 41.0714 119.786C41.6181 120.191 41.7685 120.559 41.5227 120.891C41.2611 121.245 40.2985 121.661 38.635 122.139C38.2545 122.272 37.8249 122.427 37.346 122.603C36.8858 122.777 36.5249 123.041 36.2632 123.394C36.1919 123.491 36.1459 123.598 36.1254 123.715C36.1048 123.833 36.1642 123.943 36.3036 124.046C36.7645 124.387 37.4798 124.485 38.4496 124.34C38.9344 124.267 39.4137 124.157 39.8874 124.01C40.3611 123.863 40.8411 123.663 41.3275 123.409C41.4338 123.355 41.503 123.34 41.5352 123.363C41.5566 123.379 41.5554 123.403 41.5316 123.435C41.492 123.489 41.4323 123.536 41.3526 123.577C40.8928 123.817 40.4035 124.019 39.8846 124.182C39.3736 124.335 38.8477 124.452 38.3069 124.533C37.3931 124.669 36.6896 124.555 36.1965 124.191ZM40.9946 127.406C40.4893 127.108 40.2333 126.663 40.2266 126.071C40.2023 125.561 40.3459 125.042 40.6576 124.514C41.1928 123.607 41.9779 122.932 43.0128 122.49C44.1458 122.013 45.1544 122.035 46.0386 122.557C46.4865 122.821 46.7395 123.179 46.7978 123.631C46.8513 124.065 46.7425 124.512 46.4715 124.972C46.3496 125.178 46.2013 125.377 46.0266 125.568C45.8634 125.766 45.6705 125.962 45.4478 126.156C44.9775 126.559 44.5313 126.83 44.1093 126.968L44.1132 127.04C44.1806 127.188 44.2947 127.31 44.4555 127.405C44.7885 127.601 45.1342 127.658 45.4926 127.575C45.851 127.493 46.3398 127.255 46.9589 126.861C46.9974 126.822 47.034 126.813 47.0684 126.833C47.0914 126.847 47.0984 126.874 47.0896 126.915C47.0875 126.945 47.0615 126.976 47.0114 127.008C46.4721 127.371 45.9868 127.604 45.5553 127.705C45.1354 127.814 44.7474 127.763 44.3914 127.553C44.1617 127.417 44.021 127.249 43.9692 127.048C43.7324 127.187 43.4909 127.308 43.2447 127.41C43.0053 127.501 42.7588 127.565 42.5052 127.601C41.9115 127.715 41.408 127.65 40.9946 127.406ZM41.1964 127.34C41.8051 127.699 42.6766 127.586 43.8111 127.001C43.8314 126.967 43.869 126.943 43.9237 126.928C43.9203 126.462 44.01 126.074 44.193 125.764C44.1997 125.752 44.2133 125.729 44.2336 125.695C44.2607 125.649 44.3003 125.595 44.3525 125.533C44.4385 125.413 44.536 125.3 44.6449 125.194C44.7607 125.077 44.8926 124.984 45.0408 124.917C45.3756 124.743 45.6637 124.727 45.9048 124.869L46.0598 124.961C46.099 124.999 46.1301 125.026 46.153 125.039C46.176 125.053 46.1932 125.063 46.2047 125.07C46.8145 124.036 46.7921 123.326 46.1375 122.94C45.5863 122.615 44.8673 122.64 43.9805 123.014C43.267 123.305 42.6309 123.727 42.0725 124.28C41.7591 124.575 41.4872 124.918 41.2569 125.309C40.6539 126.331 40.6337 127.008 41.1964 127.34ZM47.0364 130.573C46.0567 130.119 45.867 129.244 46.4673 127.95C46.8264 127.176 47.4137 126.353 48.2292 125.482C48.6053 125.083 48.985 124.708 49.3684 124.357C49.7518 124.006 50.1333 123.69 50.5128 123.411C50.98 123.069 51.4481 122.757 51.9171 122.475C52.3916 122.181 52.8731 121.919 53.3615 121.69C54.7905 120.986 55.8254 120.782 56.4665 121.08C56.7326 121.203 56.8068 121.392 56.6889 121.646C56.5318 121.984 56.1515 122.44 55.5479 123.013C53.5449 124.891 51.0568 126.294 48.0834 127.222C47.5244 127.889 47.1382 128.452 46.925 128.912C46.5604 129.698 46.626 130.206 47.1219 130.436C47.2912 130.515 47.4685 130.56 47.6538 130.573C47.8447 130.573 48.0203 130.559 48.1805 130.53C48.6249 130.428 49.0406 130.261 49.4275 130.029C49.8144 129.796 50.1711 129.55 50.4975 129.29C50.8239 129.03 51.107 128.816 51.3466 128.648C51.4109 128.604 51.4556 128.603 51.4807 128.644C51.5114 128.673 51.5006 128.712 51.4484 128.761C50.9708 129.157 50.4635 129.554 49.9263 129.951C49.3892 130.349 48.8239 130.601 48.2305 130.708C47.7973 130.786 47.3993 130.741 47.0364 130.573ZM48.222 127.066C48.5593 126.973 48.9311 126.837 49.3375 126.658C49.7439 126.479 50.188 126.266 50.6699 126.019C51.1518 125.772 51.6595 125.486 52.1927 125.16C52.726 124.834 53.2762 124.472 53.8431 124.074C55.3574 123.027 56.2464 122.22 56.5101 121.651C56.6055 121.445 56.5867 121.312 56.4536 121.25C56.0061 121.042 54.7617 121.634 52.7206 123.024C52.1658 123.428 51.6496 123.828 51.172 124.224C50.5844 124.73 50.041 125.22 49.5419 125.694C49.0605 126.162 48.6205 126.619 48.222 127.066ZM51.5514 132.401C50.5401 132.021 50.2848 131.164 50.7856 129.828C51.0852 129.029 51.6086 128.164 52.356 127.234C52.7009 126.808 53.0512 126.406 53.4069 126.026C53.7627 125.647 54.1192 125.304 54.4766 124.996C54.9166 124.62 55.3598 124.274 55.8061 123.957C56.257 123.627 56.7173 123.33 57.187 123.065C58.5587 122.255 59.5753 121.974 60.237 122.222C60.5117 122.325 60.5999 122.507 60.5016 122.769C60.3706 123.119 60.0257 123.602 59.4671 124.219C57.6119 126.243 55.2369 127.83 52.3422 128.981C51.8351 129.688 51.4926 130.278 51.3148 130.753C51.0105 131.564 51.1144 132.066 51.6262 132.258C51.801 132.323 51.9813 132.355 52.167 132.354C52.3574 132.34 52.5314 132.312 52.689 132.272C53.1244 132.136 53.5262 131.938 53.8944 131.677C54.2627 131.416 54.5997 131.144 54.9056 130.86C55.2114 130.576 55.4775 130.341 55.7037 130.155C55.7646 130.107 55.8091 130.102 55.8372 130.141C55.8699 130.168 55.8621 130.208 55.8138 130.261C55.3675 130.691 54.8916 131.125 54.386 131.562C53.8804 131.999 53.3358 132.293 52.7522 132.445C52.3262 132.556 51.9259 132.541 51.5514 132.401ZM52.4686 128.814C52.7978 128.696 53.1583 128.532 53.55 128.323C53.9416 128.113 54.3684 127.868 54.8303 127.585C55.2922 127.303 55.7767 126.979 56.2839 126.614C56.791 126.248 57.3122 125.846 57.8474 125.406C59.2783 124.247 60.1037 123.375 60.3237 122.788C60.4033 122.576 60.3744 122.444 60.2371 122.393C59.7751 122.219 58.579 122.903 56.6488 124.444C56.1261 124.888 55.6416 125.326 55.1953 125.757C54.6476 126.306 54.1428 126.836 53.681 127.346C53.2363 127.849 52.8321 128.338 52.4686 128.814ZM59.1529 134.51C58.2302 134.298 57.8733 133.737 58.082 132.828C58.246 132.113 58.7197 131.271 59.503 130.302C59.5409 130.256 59.7165 130.056 60.0299 129.704C60.3593 129.342 60.8263 128.827 61.4311 128.158L60.4175 127.926L60.3874 127.878L60.4338 127.765L60.4577 127.75L61.5688 128.005L63.536 125.871C63.641 125.95 63.7715 126.007 63.9274 126.043C64.1094 126.085 64.3192 126.065 64.557 125.982C64.8047 125.916 64.984 125.821 65.0948 125.695L65.1488 125.728L62.719 128.269L64.064 128.578L64.079 128.602L64.0522 128.719L64.0042 128.749L62.5812 128.422L60.7189 130.457C59.6071 131.666 58.9647 132.647 58.7918 133.401C58.6695 133.934 58.8163 134.248 59.2322 134.343C59.8819 134.492 60.6217 134.279 61.4515 133.703C61.6782 133.55 61.9597 133.307 62.2961 132.974C62.6324 132.641 62.9253 132.318 63.1748 132.006C63.2157 131.947 63.2527 131.935 63.2857 131.97C63.3347 131.995 63.3387 132.037 63.2978 132.096C63.0134 132.441 62.7205 132.763 62.4191 133.064C62.1306 133.367 61.8157 133.637 61.4742 133.873C60.6284 134.459 59.8547 134.671 59.1529 134.51ZM64.6108 135.552C64.0293 135.474 63.6202 135.164 63.3834 134.621C63.1625 134.161 63.0927 133.627 63.1741 133.019C63.3138 131.975 63.7742 131.048 64.5553 130.238C65.413 129.357 66.3507 128.985 67.3683 129.121C67.8837 129.19 68.2563 129.422 68.486 129.816C68.7044 130.195 68.7782 130.648 68.7074 131.177C68.6756 131.415 68.6164 131.656 68.5299 131.9C68.4567 132.146 68.3552 132.401 68.2256 132.666C67.9495 133.221 67.644 133.644 67.3091 133.936L67.3407 134.001C67.4605 134.111 67.6129 134.178 67.7979 134.203C68.1812 134.254 68.5218 134.172 68.8197 133.956C69.1176 133.741 69.4751 133.331 69.8921 132.728C69.9124 132.677 69.9424 132.654 69.982 132.659C70.0085 132.663 70.0256 132.685 70.0336 132.727C70.0432 132.755 70.0313 132.794 69.9978 132.843C69.6425 133.387 69.2859 133.79 68.928 134.052C68.5834 134.315 68.2062 134.419 67.7965 134.364C67.5322 134.329 67.3371 134.229 67.2112 134.064C67.0472 134.284 66.8718 134.489 66.6849 134.68C66.4997 134.857 66.2975 135.011 66.078 135.143C65.5756 135.48 65.0865 135.616 64.6108 135.552ZM64.7708 135.412C65.4712 135.506 66.23 135.063 67.0473 134.082C67.0526 134.043 67.0777 134.006 67.1227 133.971C66.9379 133.543 66.8693 133.151 66.9171 132.794C66.9189 132.781 66.9224 132.754 66.9277 132.714C66.9348 132.662 66.9502 132.596 66.9741 132.519C67.0067 132.375 67.0526 132.233 67.1117 132.093C67.1726 131.94 67.2581 131.804 67.3683 131.684C67.609 131.393 67.8681 131.266 68.1456 131.304L68.3241 131.327C68.3751 131.348 68.4139 131.36 68.4403 131.363C68.4668 131.367 68.4866 131.369 68.4998 131.371C68.659 130.182 68.362 129.537 67.6087 129.436C66.9743 129.351 66.3217 129.654 65.6509 130.344C65.107 130.89 64.6855 131.526 64.3864 132.253C64.2127 132.647 64.0957 133.069 64.0356 133.518C63.8781 134.694 64.1232 135.325 64.7708 135.412ZM75.5503 136C74.7506 136.021 74.3415 135.678 74.3231 134.972C74.3086 134.412 74.5119 133.767 74.933 133.036C75.073 132.778 75.4648 132.201 76.1084 131.304C76.533 130.706 76.7421 130.288 76.7359 130.048C76.73 129.821 76.5405 129.713 76.1673 129.722C75.914 129.729 75.6343 129.743 75.3281 129.764C75.0352 129.785 74.7956 129.805 74.6093 129.823C74.5749 130.037 74.5213 130.285 74.4486 130.567C74.376 130.849 74.2903 131.145 74.1916 131.454C74.1298 131.643 74.0298 131.899 73.8915 132.222C73.7665 132.546 73.5954 132.89 73.3782 133.256C73.3396 133.31 73.307 133.338 73.2803 133.339C73.267 133.339 73.26 133.326 73.2593 133.299C73.2576 133.233 73.282 133.145 73.3325 133.037C73.4343 132.848 73.5483 132.618 73.6747 132.348C73.8007 132.065 73.9193 131.755 74.0306 131.418C74.1296 131.122 74.215 130.813 74.2866 130.491C74.3713 130.156 74.4187 129.928 74.4289 129.808C74.1038 129.616 73.936 129.32 73.9256 128.92C73.9139 128.467 74.0679 128.236 74.3878 128.228C74.6144 128.222 74.7331 128.426 74.7438 128.839C74.7462 128.932 74.7358 129.046 74.7127 129.18C74.6895 129.314 74.6603 129.475 74.6252 129.662C74.8114 129.644 75.1043 129.623 75.5038 129.6C75.9163 129.562 76.3092 129.539 76.6824 129.529C77.3622 129.511 77.7074 129.709 77.7182 130.122C77.7296 130.562 77.2267 131.482 76.2094 132.882C75.9915 133.221 75.7482 133.608 75.4793 134.042C75.2235 134.462 75.1013 134.892 75.1128 135.332C75.1159 135.452 75.1455 135.564 75.2016 135.669C75.2577 135.775 75.3724 135.825 75.5456 135.821C76.1188 135.806 76.7429 135.443 77.4179 134.731C77.7555 134.376 78.0657 133.994 78.3485 133.587C78.6313 133.179 78.8863 132.726 79.1134 132.227C79.1639 132.119 79.2092 132.064 79.2492 132.063C79.2758 132.062 79.2897 132.082 79.2907 132.122C79.2924 132.189 79.2744 132.262 79.2365 132.343C79.022 132.816 78.7605 133.276 78.4521 133.724C78.1433 134.159 77.8007 134.575 77.4242 134.971C76.7881 135.642 76.1634 135.985 75.5503 136ZM81.0143 135.672C80.3656 135.75 79.8941 135.625 79.5996 135.298C79.3035 134.957 79.1157 134.456 79.0361 133.794C78.9215 132.841 79.1993 131.801 79.8695 130.673C80.5863 129.485 81.4013 128.837 82.3148 128.727C82.9899 128.646 83.3553 128.837 83.411 129.3C83.4794 129.869 83.24 130.502 82.6926 131.199C81.9138 132.206 81.0346 132.768 80.055 132.886C79.9455 133.316 79.9154 133.736 79.9647 134.146C80.0188 134.596 80.147 134.937 80.3494 135.167C80.5517 135.398 80.8183 135.494 81.1493 135.454C81.4935 135.413 81.8398 135.277 82.1882 135.047C82.535 134.804 82.8248 134.534 83.0578 134.238C83.2558 133.985 83.4707 133.651 83.7025 133.233C83.946 132.801 84.1792 132.283 84.402 131.679C84.4338 131.608 84.4695 131.57 84.5092 131.565C84.5886 131.556 84.5966 131.622 84.5331 131.764C84.3621 132.241 84.1689 132.701 83.9535 133.143C83.7513 133.583 83.4615 134.021 83.084 134.456C82.8627 134.738 82.5721 135.001 82.212 135.246C81.8504 135.477 81.4512 135.619 81.0143 135.672ZM80.0582 132.745C80.7863 132.657 81.5535 132.169 82.3598 131.28L82.3574 131.26C82.5834 131.018 82.7867 130.698 82.9672 130.3C83.1826 129.858 83.2729 129.491 83.2378 129.2C83.2124 128.988 83.0408 128.901 82.7231 128.94C82.22 129 81.6652 129.523 81.0585 130.509C80.7753 130.946 80.5551 131.349 80.3979 131.717C80.2407 132.085 80.1275 132.428 80.0582 132.745ZM89.9195 133.72C89.2447 133.879 88.7971 133.491 88.5766 132.557C88.4908 132.194 88.4512 131.765 88.4577 131.27C87.9628 133.236 87.2677 134.325 86.3723 134.536C85.944 134.637 85.5691 134.5 85.2474 134.124C84.9891 133.842 84.8018 133.455 84.6854 132.962C84.5905 132.559 84.5494 132.124 84.562 131.655C84.6019 130.837 84.8991 130.007 85.4536 129.164C86.0736 128.25 86.7405 127.709 87.4543 127.541C88.1031 127.387 88.5194 127.7 88.7032 128.479C88.7828 128.816 88.8048 129.229 88.7693 129.717L89.4054 127.101L89.4638 127.087C89.518 127.143 89.61 127.155 89.7398 127.124C89.9993 127.063 90.2935 126.829 90.6223 126.423L90.6704 126.453L89.7785 130.074C89.4198 131.515 89.3186 132.567 89.4748 133.229C89.5361 133.488 89.6835 133.59 89.9171 133.535C90.0728 133.498 90.2472 133.396 90.4402 133.227C90.6333 133.058 90.8209 132.808 91.0032 132.477C91.2289 132.041 91.4137 131.634 91.5578 131.257C91.7117 130.865 91.8705 130.348 92.0342 129.706C92.0579 129.632 92.0891 129.591 92.1281 129.582C92.2059 129.563 92.2212 129.628 92.174 129.776C92.0446 130.273 91.8956 130.773 91.7273 131.279C91.5688 131.768 91.3458 132.246 91.0583 132.711C90.7014 133.288 90.3218 133.625 89.9195 133.72ZM86.418 134.382C87.1447 134.21 87.837 132.964 88.4951 130.644C88.7053 129.91 88.7323 129.212 88.5761 128.55C88.4107 127.849 88.1009 127.552 87.6467 127.66C87.1536 127.776 86.6921 128.316 86.2622 129.281C86.0952 129.677 85.9592 130.058 85.8541 130.425C85.762 130.79 85.6992 131.133 85.6659 131.456C85.5771 132.299 85.6062 133.032 85.7532 133.655C85.8849 134.213 86.1065 134.455 86.418 134.382ZM94.4186 132.282C93.9708 132.455 93.5816 132.391 93.2509 132.09C92.9202 131.789 92.6683 131.414 92.4953 130.967C92.3175 130.507 92.2322 130.082 92.2392 129.693C92.2356 129.166 92.3103 128.601 92.4636 127.999C92.612 127.384 92.86 126.824 93.2077 126.318C93.5506 125.799 94.0019 125.432 94.5616 125.216C95.1834 124.975 95.6337 125.216 95.9124 125.937C96.0518 126.298 96.1261 126.712 96.1354 127.18L96.8699 120.036L96.9072 120.021C96.9762 120.052 97.0728 120.043 97.1972 119.995C97.4584 119.894 97.7141 119.631 97.9642 119.206L98.016 119.228L97.2862 125.664C97.0066 128.159 96.9917 129.73 97.2416 130.377C97.3713 130.712 97.573 130.827 97.8466 130.722C97.9959 130.664 98.1546 130.538 98.3228 130.345C98.491 130.151 98.6428 129.878 98.7782 129.526C98.9421 129.062 99.0697 128.634 99.161 128.241C99.26 127.832 99.3468 127.298 99.4214 126.64C99.4347 126.563 99.46 126.518 99.4973 126.503C99.5719 126.475 99.596 126.537 99.5694 126.69C99.5089 127.199 99.4297 127.716 99.3319 128.24C99.2417 128.746 99.086 129.25 98.8647 129.75C98.5899 130.37 98.2597 130.755 97.8742 130.904C97.5632 131.024 97.2684 131.038 96.9897 130.946C96.7234 130.848 96.5086 130.588 96.3452 130.165C96.1915 129.767 96.0893 129.299 96.0387 128.762C95.8168 130.777 95.2767 131.95 94.4186 132.282ZM94.4843 132.064C94.8201 131.934 95.122 131.531 95.39 130.856C95.6579 130.181 95.8581 129.274 95.9904 128.137C96.0017 128.018 96.0038 127.839 95.9968 127.599C95.9973 127.341 95.9782 127.07 95.9395 126.784C95.9084 126.482 95.8472 126.213 95.7559 125.976C95.6598 125.728 95.5308 125.542 95.3688 125.418C95.2069 125.295 95.0015 125.282 94.7528 125.378C94.5165 125.469 94.2951 125.654 94.0888 125.934C93.8901 126.197 93.7246 126.582 93.5923 127.091C93.3647 127.908 93.2605 128.656 93.2797 129.334C93.2837 129.419 93.2978 129.585 93.3221 129.833C93.3416 130.068 93.3794 130.332 93.4353 130.625C93.4865 130.905 93.5601 131.17 93.6562 131.419C93.7475 131.655 93.8617 131.84 93.9988 131.972C94.1359 132.105 94.2977 132.136 94.4843 132.064ZM103.041 128.972L102.985 128.96C102.95 128.19 102.892 127.411 102.813 126.621C102.733 125.832 102.648 125.023 102.558 124.193C102.523 123.867 102.47 123.465 102.4 122.986C102.342 122.501 102.266 121.939 102.173 121.302L102.206 121.28C102.321 121.286 102.429 121.256 102.529 121.191C102.765 121.04 102.954 120.767 103.098 120.374L103.11 120.318L103.114 120.363L103.098 120.374C103.12 120.581 103.151 120.95 103.19 121.479C103.234 121.99 103.295 122.664 103.374 123.502C103.356 121.452 103.655 120.229 104.271 119.833C104.686 119.566 105.02 119.628 105.272 120.021C105.482 120.346 105.648 120.913 105.772 121.721C105.798 121.244 105.825 120.855 105.852 120.552C105.872 120.238 105.896 120.016 105.924 119.887C106.07 119.08 106.328 118.557 106.698 118.319C107.18 118.009 107.573 118.089 107.876 118.56C108.1 118.907 108.237 119.318 108.289 119.793C108.344 120.248 108.369 120.731 108.365 121.242C108.353 121.741 108.364 122.226 108.397 122.696C108.422 122.933 108.461 123.178 108.512 123.43C108.568 123.664 108.646 123.859 108.747 124.016C108.841 124.162 108.965 124.257 109.119 124.3C109.267 124.332 109.447 124.279 109.66 124.142C109.817 124.041 109.95 123.916 110.06 123.766C110.163 123.605 110.245 123.449 110.306 123.298C110.458 122.868 110.539 122.427 110.55 121.976C110.561 121.525 110.544 121.092 110.499 120.677C110.454 120.262 110.424 119.909 110.411 119.616C110.408 119.539 110.431 119.5 110.479 119.501C110.52 119.491 110.547 119.521 110.561 119.591C110.64 120.206 110.703 120.847 110.751 121.514C110.8 122.18 110.71 122.793 110.483 123.351C110.402 123.546 110.294 123.735 110.158 123.917C110.033 124.093 109.875 124.242 109.684 124.364C109.292 124.617 108.952 124.717 108.664 124.664C108.381 124.593 108.149 124.417 107.968 124.137C107.838 123.935 107.724 123.659 107.627 123.31C107.564 123.065 107.511 122.798 107.468 122.509C107.428 122.201 107.406 121.859 107.401 121.481C107.361 120.112 107.247 119.282 107.059 118.99C106.936 118.8 106.791 118.759 106.623 118.867C106.152 119.17 105.94 120.344 105.988 122.39C105.997 123.019 106.03 123.663 106.09 124.323C106.142 124.971 106.209 125.641 106.29 126.334L106.257 126.356C106.164 126.384 106.08 126.414 106.006 126.446C105.931 126.478 105.866 126.512 105.81 126.548C105.473 126.765 105.347 127.012 105.431 127.291L105.359 127.29C105.309 126.276 105.267 125.47 105.232 124.874C105.198 124.278 105.176 123.888 105.168 123.703C105.006 121.873 104.802 120.768 104.556 120.386C104.448 120.218 104.332 120.174 104.209 120.253C103.749 120.549 103.543 121.744 103.59 123.838C103.612 125.203 103.714 126.557 103.896 127.898L103.873 127.937C103.691 127.975 103.544 128.03 103.432 128.102C103.242 128.224 103.131 128.398 103.102 128.623C103.084 128.841 103.063 128.957 103.041 128.972ZM114.085 120.915C113.64 121.297 113.136 121.395 112.573 121.21C112.083 121.069 111.638 120.765 111.239 120.299C110.553 119.5 110.169 118.539 110.085 117.416C109.999 116.19 110.346 115.243 111.126 114.575C111.521 114.236 111.941 114.112 112.388 114.204C112.816 114.293 113.204 114.54 113.551 114.945C113.707 115.128 113.848 115.332 113.972 115.559C114.107 115.778 114.229 116.023 114.341 116.297C114.571 116.872 114.683 117.382 114.677 117.826L114.747 117.846C114.909 117.83 115.06 117.761 115.202 117.64C115.496 117.388 115.661 117.079 115.699 116.713C115.736 116.347 115.669 115.808 115.497 115.095C115.472 115.046 115.475 115.008 115.506 114.982C115.526 114.965 115.554 114.967 115.59 114.989C115.618 115 115.639 115.035 115.653 115.093C115.822 115.72 115.885 116.255 115.842 116.696C115.809 117.128 115.635 117.479 115.321 117.748C115.119 117.922 114.914 118 114.708 117.984C114.763 118.253 114.799 118.521 114.816 118.787C114.825 119.043 114.805 119.297 114.758 119.549C114.674 120.147 114.45 120.603 114.085 120.915ZM114.087 120.703C114.624 120.243 114.799 119.381 114.612 118.119C114.586 118.089 114.575 118.045 114.58 117.989C114.137 117.841 113.799 117.631 113.564 117.358C113.556 117.348 113.538 117.327 113.512 117.297C113.478 117.256 113.439 117.201 113.397 117.132C113.312 117.012 113.237 116.883 113.172 116.746C113.098 116.598 113.053 116.444 113.037 116.282C112.981 115.909 113.059 115.631 113.271 115.449L113.408 115.332C113.457 115.307 113.492 115.286 113.512 115.269C113.532 115.251 113.548 115.238 113.558 115.23C112.777 114.318 112.098 114.11 111.521 114.605C111.035 115.021 110.826 115.71 110.894 116.67C110.939 117.44 111.133 118.178 111.475 118.885C111.653 119.277 111.89 119.645 112.185 119.989C112.957 120.89 113.591 121.128 114.087 120.703ZM119.402 115.692C118.852 116.273 118.32 116.321 117.807 115.835C117.4 115.45 117.086 114.851 116.866 114.036C116.783 113.756 116.65 113.071 116.469 111.982C116.345 111.259 116.196 110.815 116.022 110.65C115.857 110.494 115.647 110.552 115.39 110.823C115.216 111.007 115.028 111.215 114.827 111.447C114.635 111.669 114.48 111.853 114.362 111.998C114.489 112.173 114.627 112.387 114.776 112.637C114.924 112.888 115.073 113.157 115.222 113.445C115.312 113.622 115.423 113.873 115.555 114.2C115.695 114.517 115.819 114.881 115.925 115.293C115.936 115.359 115.932 115.401 115.914 115.421C115.905 115.43 115.89 115.426 115.871 115.408C115.823 115.362 115.778 115.283 115.737 115.171C115.675 114.965 115.593 114.722 115.491 114.442C115.379 114.153 115.243 113.85 115.083 113.534C114.944 113.255 114.785 112.976 114.607 112.698C114.429 112.401 114.301 112.207 114.223 112.115C113.858 112.21 113.53 112.12 113.24 111.845C112.91 111.533 112.856 111.261 113.076 111.029C113.231 110.864 113.459 110.924 113.76 111.208C113.827 111.272 113.901 111.36 113.979 111.471C114.058 111.582 114.151 111.716 114.259 111.873C114.378 111.729 114.57 111.506 114.835 111.206C115.099 110.888 115.36 110.593 115.617 110.322C116.084 109.828 116.468 109.723 116.768 110.007C117.088 110.309 117.384 111.315 117.658 113.024C117.745 113.418 117.847 113.863 117.964 114.359C118.081 114.837 118.299 115.227 118.619 115.53C118.706 115.612 118.807 115.671 118.921 115.705C119.035 115.74 119.152 115.694 119.271 115.568C119.665 115.152 119.848 114.453 119.821 113.473C119.808 112.983 119.756 112.494 119.667 112.006C119.578 111.518 119.437 111.017 119.243 110.504C119.203 110.392 119.196 110.321 119.223 110.292C119.242 110.273 119.265 110.277 119.295 110.304C119.343 110.35 119.382 110.415 119.413 110.499C119.596 110.985 119.738 111.495 119.838 112.03C119.928 112.555 119.98 113.091 119.995 113.638C120.021 114.562 119.823 115.246 119.402 115.692ZM123.026 111.587C122.624 112.101 122.203 112.348 121.763 112.325C121.313 112.295 120.825 112.074 120.3 111.664C119.544 111.072 119.003 110.141 118.676 108.87C118.341 107.525 118.456 106.489 119.023 105.765C119.442 105.229 119.835 105.105 120.203 105.392C120.654 105.746 120.934 106.362 121.042 107.242C121.206 108.504 120.984 109.524 120.376 110.301C120.603 110.682 120.879 110.999 121.205 111.254C121.562 111.533 121.894 111.683 122.2 111.702C122.506 111.722 122.762 111.6 122.967 111.337C123.181 111.064 123.329 110.723 123.412 110.314C123.485 109.897 123.498 109.501 123.452 109.127C123.413 108.809 123.328 108.42 123.196 107.961C123.061 107.484 122.859 106.953 122.588 106.369C122.56 106.296 122.558 106.244 122.583 106.213C122.632 106.15 122.685 106.191 122.74 106.336C122.958 106.794 123.147 107.255 123.308 107.72C123.478 108.174 123.584 108.688 123.625 109.262C123.669 109.618 123.65 110.01 123.57 110.437C123.479 110.857 123.297 111.24 123.026 111.587ZM120.278 110.199C120.73 109.621 120.925 108.733 120.864 107.534L120.848 107.522C120.836 107.191 120.753 106.821 120.598 106.413C120.437 105.948 120.241 105.625 120.01 105.445C119.842 105.313 119.659 105.373 119.462 105.626C119.15 106.025 119.129 106.787 119.4 107.913C119.51 108.422 119.639 108.862 119.789 109.233C119.939 109.604 120.102 109.926 120.278 110.199Z" fill="#C9AB81"/>
<circle cx="125.509" cy="94.9355" r="1.5" fill="#C9AB81"/>
<circle cx="20.5085" cy="94.9355" r="1.5" fill="#C9AB81"/>
<line x1="73.4998" y1="20" x2="73.4998" y2="111" stroke="#C9AB81"/>
<circle cx="73.5085" cy="111.936" r="1.5" fill="#C9AB81"/>
</svg>
