<svg width="24" height="24" viewBox="0 0 24 24" fill="none" xmlns="http://www.w3.org/2000/svg">
<rect width="24" height="24" rx="12" fill="#C9AB81"/>
<path d="M15.588 5.38H8.41312C6.43092 5.38 4.81836 6.99257 4.81836 8.97477V15.5388C4.81836 17.521 6.43092 19.1335 8.41312 19.1335H15.588C17.5702 19.1335 19.1828 17.521 19.1828 15.5388V8.97477C19.1828 6.99257 17.5702 5.38 15.588 5.38ZM6.08648 8.97477C6.08648 7.69202 7.13038 6.64813 8.41312 6.64813H15.588C16.8708 6.64813 17.9147 7.69202 17.9147 8.97477V15.5388C17.9147 16.8215 16.8708 17.8654 15.588 17.8654H8.41312C7.13038 17.8654 6.08648 16.8215 6.08648 15.5388V8.97477Z" fill="#1B1D1E"/>
<path d="M12.001 15.5997C13.8442 15.5997 15.3447 14.1001 15.3447 12.256C15.3447 10.4119 13.8451 8.91223 12.001 8.91223C10.1569 8.91223 8.65723 10.4119 8.65723 12.256C8.65723 14.1001 10.1569 15.5997 12.001 15.5997ZM12.001 10.1812C13.1456 10.1812 14.0766 11.1122 14.0766 12.2568C14.0766 13.4014 13.1456 14.3324 12.001 14.3324C10.8563 14.3324 9.92535 13.4014 9.92535 12.2568C9.92535 11.1122 10.8563 10.1812 12.001 10.1812Z" fill="#1B1D1E"/>
<path d="M15.6539 9.4525C16.1502 9.4525 16.5548 9.04874 16.5548 8.55157C16.5548 8.05439 16.151 7.65063 15.6539 7.65063C15.1567 7.65063 14.7529 8.05439 14.7529 8.55157C14.7529 9.04874 15.1567 9.4525 15.6539 9.4525Z" fill="#1B1D1E"/>
</svg>
