<svg width="196" height="262" viewBox="0 0 196 262" fill="none" xmlns="http://www.w3.org/2000/svg">
<path d="M174.191 206C175.743 203.183 177.142 200.277 178.378 197.293C182.75 186.738 185 175.425 185 164H98L11 164C11 175.425 13.2503 186.738 17.6225 197.293C18.8582 200.277 20.2566 203.183 21.8094 206" stroke="#C9AB81"/>
<path d="M23.3707 228.989C23.3475 228.903 23.3168 228.823 23.2787 228.75C23.2405 228.677 23.2032 228.589 23.1667 228.488C22.7322 227.456 22.6539 226.51 22.9318 225.648C22.0225 224.262 21.5873 222.883 21.6263 221.511C21.6986 220.056 22.348 218.785 23.5744 217.696C25.2196 216.235 27.1716 215.572 29.4303 215.706C31.6609 215.839 33.5131 216.735 34.9869 218.395C36.0226 219.562 36.5326 220.754 36.5169 221.971C37.0633 222.075 37.7359 222.2 38.5347 222.346C39.3618 222.495 40.315 222.665 41.3945 222.856L41.8208 222.478C43.7202 220.792 45.0616 220.39 45.845 221.272C46.0309 221.481 46.1147 221.741 46.0962 222.052C46.106 222.364 46.0062 222.613 45.7968 222.799C45.1985 223.33 43.8307 223.462 41.6933 223.193C41.5104 223.409 41.2486 223.761 40.9078 224.251C40.582 224.728 40.1913 225.342 39.7358 226.094C38.9677 227.338 38.2396 228.265 37.5516 228.876C35.6073 230.602 33.2144 231.175 30.373 230.595C27.7574 230.029 25.5666 228.751 23.8006 226.762C23.6944 226.642 23.589 226.509 23.4844 226.361C23.3649 226.226 23.2595 226.092 23.1683 225.959C22.9403 226.697 22.9938 227.465 23.3288 228.264C23.3885 228.452 23.4449 228.575 23.498 228.635C23.5378 228.68 23.6399 228.75 23.8043 228.845C23.9554 228.925 24.0509 228.987 24.0907 229.032C24.1704 229.122 24.1653 229.206 24.0756 229.286C23.9111 229.432 23.6761 229.333 23.3707 228.989ZM41.9226 222.909C43.8774 223.153 45.1464 223.016 45.7297 222.498C46.0288 222.232 46.0058 221.905 45.6605 221.516C45.0099 220.783 43.9667 221.054 42.5309 222.329C42.4262 222.422 42.3215 222.515 42.2168 222.608C42.1271 222.687 42.029 222.788 41.9226 222.909ZM23.3679 225.461C24.1779 226.374 25.3168 227.114 26.7847 227.683C27.4356 227.934 28.0891 228.143 28.745 228.31C29.4292 228.478 30.1167 228.59 30.8077 228.645C31.8224 228.733 32.6255 228.689 33.2169 228.512C35.2884 227.983 37.0794 227.048 38.59 225.707C38.4853 225.8 38.644 225.632 39.0661 225.204C39.4883 224.776 40.1813 224.08 41.1452 223.118C40.6271 223.016 39.9752 222.899 39.1897 222.768C38.4324 222.638 37.5348 222.485 36.4968 222.31C36.4398 223.27 36.0373 224.082 35.2895 224.746C34.2874 225.636 33.1163 226.034 31.776 225.94C30.4074 225.844 29.2783 225.295 28.3887 224.293C27.8841 223.725 27.593 223.141 27.5153 222.541C26.1431 222.984 25.0906 223.531 24.3577 224.181C24.1334 224.38 23.9439 224.589 23.7893 224.806C23.6198 225.037 23.4793 225.255 23.3679 225.461ZM23.1488 225.214C23.3434 224.801 23.6501 224.408 24.0688 224.037C24.8914 223.306 26.0403 222.687 27.5155 222.18C27.5408 221.516 27.8003 220.965 28.2938 220.526C28.4733 220.367 28.7225 220.226 29.0415 220.103C29.4618 219.944 29.7251 219.924 29.8313 220.044C29.8579 220.074 29.8695 220.117 29.8661 220.174C29.7498 220.223 29.6643 220.232 29.6095 220.201L29.6294 220.223C29.1444 220.279 28.7373 220.454 28.4083 220.746C28.0194 221.091 27.8016 221.538 27.7547 222.088C29.8629 221.42 32.566 221.347 35.8643 221.869C35.8932 220.666 35.4629 219.564 34.5733 218.562C33.3251 217.156 31.5617 216.435 29.2829 216.399C27.0756 216.353 25.254 216.967 23.8182 218.242C22.8162 219.131 22.2466 220.252 22.1096 221.604C22.0411 222.28 22.0955 222.913 22.2729 223.505C22.4353 224.109 22.7273 224.679 23.1488 225.214ZM28.4661 224.064C29.1831 224.872 30.2134 225.294 31.5571 225.332C32.9007 225.369 33.9689 225.036 34.7616 224.332C35.3598 223.801 35.7207 223.093 35.8441 222.208C34.2432 221.971 32.7609 221.883 31.3972 221.943C30.0485 221.991 28.8335 222.173 27.752 222.492C27.8032 223.061 28.0412 223.586 28.4661 224.064ZM35.9049 237.864C35.3123 237.357 34.9692 236.774 34.8756 236.114C34.7819 235.455 35.0407 234.768 35.652 234.054C36.1462 233.477 36.7805 232.967 37.5546 232.524C38.3288 232.081 39.2039 231.75 40.18 231.533C42.2861 231.072 43.8709 231.296 44.9344 232.207C45.922 233.052 46.032 233.923 45.2647 234.819C44.9785 235.154 44.56 235.427 44.0091 235.64C43.3737 235.86 42.904 235.839 42.6001 235.579C42.3722 235.384 42.3363 235.195 42.4924 235.013C42.6615 234.816 43.0747 234.748 43.732 234.811C44.4024 234.858 44.9001 234.692 45.2253 234.312C45.6675 233.795 45.6228 233.309 45.091 232.854C44.5288 232.373 43.5548 232.25 42.1687 232.485C41.1623 232.676 40.1928 232.979 39.2602 233.391C38.8482 233.565 38.3516 233.838 37.7704 234.209C37.2023 234.565 36.7231 234.971 36.3329 235.427C36.0077 235.807 35.8117 236.205 35.7447 236.621C35.6777 237.038 35.8569 237.428 36.2823 237.793C36.6773 238.131 37.1786 238.376 37.7861 238.527C38.4066 238.663 38.9988 238.71 39.5628 238.666C40.0422 238.629 40.63 238.526 41.3263 238.359C42.0507 238.189 42.8597 237.921 43.7532 237.554C43.8638 237.517 43.9419 237.518 43.9875 237.557C44.0787 237.635 44.0136 237.711 43.7924 237.785C43.0919 238.08 42.3881 238.333 41.6811 238.544C40.9892 238.768 40.2116 238.892 39.3482 238.917C38.8124 238.958 38.2267 238.904 37.591 238.755C36.9683 238.59 36.4062 238.294 35.9049 237.864ZM43.6205 243.492C42.6375 242.804 42.45 242.025 43.0579 241.157C43.5397 240.469 44.3606 239.872 45.5207 239.366C45.9188 239.18 46.906 238.834 48.4823 238.326C49.5277 237.984 50.1536 237.665 50.36 237.37C50.555 237.092 50.4232 236.792 49.9644 236.471C49.6531 236.253 49.3033 236.02 48.915 235.773C48.5431 235.537 48.2368 235.347 47.9959 235.202C47.7632 235.43 47.4773 235.682 47.1381 235.957C46.7989 236.232 46.4319 236.512 46.037 236.797C45.7945 236.969 45.4455 237.189 44.99 237.456C44.5508 237.734 44.0372 237.997 43.4489 238.245C43.3539 238.276 43.29 238.28 43.2572 238.257C43.2408 238.245 43.2441 238.223 43.2671 238.191C43.3244 238.109 43.4317 238.025 43.589 237.94C43.8807 237.802 44.2232 237.627 44.6164 237.414C45.0211 237.185 45.4406 236.917 45.8748 236.61C46.2582 236.342 46.6367 236.045 47.0103 235.721C47.4118 235.392 47.6723 235.159 47.7919 235.023C47.5708 234.502 47.6323 233.996 47.9764 233.504C48.3664 232.947 48.758 232.806 49.1512 233.081C49.4297 233.276 49.3912 233.628 49.0356 234.136C48.9553 234.251 48.8414 234.378 48.694 234.519C48.5465 234.66 48.3679 234.828 48.1581 235.023C48.399 235.167 48.7709 235.403 49.2739 235.731C49.8047 236.054 50.2995 236.376 50.7582 236.697C51.5938 237.282 51.8338 237.828 51.4782 238.336C51.0997 238.877 49.6725 239.538 47.1968 240.319C46.6315 240.534 45.9933 240.783 45.2821 241.066C44.5989 241.345 44.068 241.754 43.6895 242.295C43.5862 242.442 43.5215 242.605 43.4953 242.782C43.469 242.959 43.5624 243.122 43.7754 243.271C44.4799 243.764 45.5564 243.883 47.0048 243.627C47.729 243.5 48.4434 243.316 49.1479 243.077C49.8525 242.838 50.5644 242.518 51.2838 242.119C51.4411 242.033 51.5443 242.008 51.5934 242.042C51.6262 242.065 51.6254 242.101 51.591 242.151C51.5336 242.233 51.4459 242.305 51.328 242.369C50.648 242.748 49.9221 243.07 49.1504 243.335C48.3901 243.584 47.6061 243.78 46.7983 243.922C45.4335 244.163 44.3742 244.019 43.6205 243.492ZM50.8606 248.123C50.0945 247.69 49.6983 247.029 49.6718 246.141C49.6211 245.377 49.8221 244.595 50.2748 243.794C51.0523 242.419 52.211 241.385 53.7508 240.693C55.4366 239.946 56.9499 239.951 58.2906 240.709C58.9696 241.093 59.359 241.623 59.4589 242.3C59.5513 242.95 59.4006 243.623 59.0069 244.319C58.8298 244.632 58.6129 244.935 58.3563 245.226C58.117 245.528 57.8331 245.827 57.5046 246.123C56.8104 246.742 56.1487 247.16 55.5197 247.379L55.5276 247.487C55.6328 247.707 55.8073 247.886 56.0511 248.024C56.556 248.309 57.076 248.385 57.6112 248.251C58.1465 248.117 58.8728 247.747 59.7903 247.14C59.8471 247.08 59.9016 247.065 59.9539 247.094C59.9887 247.114 60 247.155 59.9879 247.217C59.9856 247.262 59.9474 247.309 59.8732 247.359C59.0746 247.918 58.3531 248.28 57.7089 248.444C57.0821 248.618 56.4988 248.553 55.9591 248.248C55.6109 248.051 55.3951 247.803 55.3119 247.503C54.9606 247.718 54.6018 247.906 54.2354 248.066C53.8788 248.209 53.5109 248.311 53.1316 248.373C52.2444 248.56 51.4874 248.477 50.8606 248.123ZM51.1615 248.017C52.0843 248.539 53.3883 248.345 55.0734 247.437C55.1029 247.385 55.1586 247.347 55.2403 247.325C55.2222 246.625 55.346 246.04 55.6117 245.57C55.6215 245.553 55.6412 245.518 55.6707 245.466C55.7101 245.396 55.768 245.314 55.8445 245.219C55.9702 245.038 56.1132 244.866 56.2737 244.704C56.4441 244.524 56.6394 244.382 56.8597 244.277C57.357 244.007 57.7885 243.975 58.1542 244.182L58.3892 244.314C58.449 244.371 58.4963 244.409 58.5312 244.429C58.566 244.449 58.5921 244.464 58.6095 244.473C59.4953 242.906 59.4419 241.842 58.4495 241.281C57.6138 240.809 56.5362 240.866 55.2167 241.453C54.1546 241.909 53.2125 242.56 52.3903 243.405C51.9285 243.856 51.5303 244.377 51.1957 244.969C50.3198 246.519 50.3084 247.535 51.1615 248.017ZM60.0056 252.704C58.5239 252.049 58.2157 250.743 59.0809 248.786C59.5984 247.615 60.457 246.366 61.6565 245.037C62.2096 244.429 62.769 243.856 63.3345 243.319C63.9 242.782 64.4635 242.298 65.0252 241.869C65.7166 241.343 66.4101 240.863 67.1058 240.427C67.8095 239.973 68.5245 239.567 69.2508 239.21C71.3748 238.115 72.9215 237.782 73.891 238.211C74.2934 238.389 74.4097 238.67 74.2399 239.054C74.0135 239.566 73.4554 240.26 72.5657 241.135C69.6127 244.006 65.9192 246.178 61.485 247.651C60.6646 248.666 60.1008 249.521 59.7935 250.216C59.2679 251.405 59.3801 252.165 60.1301 252.497C60.3862 252.61 60.6533 252.674 60.9316 252.687C61.2179 252.683 61.4808 252.657 61.7203 252.61C62.384 252.444 63.0029 252.182 63.5769 251.823C64.1508 251.464 64.6791 251.086 65.1616 250.687C65.6441 250.288 66.0628 249.959 66.4176 249.7C66.5129 249.633 66.5799 249.63 66.6186 249.691C66.6654 249.733 66.6503 249.792 66.5733 249.868C65.8678 250.474 65.1177 251.083 64.3229 251.694C63.5281 252.304 62.6871 252.698 61.8001 252.874C61.1525 253.004 60.5544 252.947 60.0056 252.704ZM61.6886 247.413C62.192 247.264 62.7459 247.049 63.3505 246.77C63.9551 246.491 64.6154 246.159 65.3315 245.776C66.0476 245.393 66.8011 244.95 67.592 244.447C68.383 243.943 69.1982 243.385 70.0377 242.772C72.2805 241.162 73.5918 239.926 73.9719 239.067C74.1094 238.756 74.0775 238.556 73.8763 238.467C73.1995 238.168 71.3493 239.088 68.3258 241.229C67.5046 241.85 66.7413 242.463 66.0358 243.07C65.1682 243.845 64.3666 244.595 63.6309 245.32C62.9216 246.034 62.2742 246.732 61.6886 247.413ZM66.8114 255.325C65.2853 254.781 64.8812 253.502 65.5991 251.486C66.0285 250.28 66.7921 248.97 67.89 247.556C68.3966 246.909 68.912 246.296 69.4361 245.719C69.9603 245.141 70.4865 244.617 71.0148 244.147C71.6654 243.572 72.3214 243.041 72.9829 242.555C73.6511 242.05 74.3341 241.593 75.0319 241.183C77.069 239.934 78.5868 239.487 79.5854 239.843C79.9999 239.99 80.1367 240.262 79.9958 240.658C79.8079 241.185 79.3027 241.918 78.4803 242.857C75.748 245.939 72.2254 248.378 67.9126 250.176C67.1696 251.249 66.6706 252.143 66.4157 252.859C65.9795 254.084 66.1477 254.834 66.9202 255.109C67.184 255.203 67.4551 255.246 67.7336 255.239C68.0188 255.213 68.2791 255.168 68.5144 255.103C69.164 254.889 69.7618 254.581 70.3076 254.181C70.8535 253.781 71.3522 253.364 71.8038 252.931C72.2555 252.497 72.6487 252.138 72.9834 251.854C73.0735 251.78 73.14 251.772 73.1831 251.83C73.233 251.869 73.2222 251.929 73.151 252.009C72.4924 252.667 71.7894 253.329 71.042 253.997C70.2946 254.665 69.4851 255.12 68.6136 255.361C67.9774 255.538 67.3767 255.526 66.8114 255.325ZM68.098 249.923C68.5889 249.737 69.1254 249.482 69.7077 249.159C70.2899 248.836 70.9239 248.456 71.6096 248.021C72.2953 247.586 73.014 247.088 73.7655 246.528C74.517 245.968 75.2887 245.351 76.0805 244.677C78.1978 242.905 79.4141 241.576 79.7294 240.69C79.8435 240.37 79.7969 240.173 79.5896 240.099C78.8925 239.851 77.1156 240.906 74.2589 243.264C73.486 243.944 72.7702 244.613 72.1116 245.27C71.3038 246.108 70.5599 246.915 69.8799 247.692C69.2254 248.457 68.6314 249.2 68.098 249.923ZM78.2513 258.299C76.8626 258.002 76.3146 257.169 76.6072 255.8C76.8371 254.724 77.5285 253.451 78.6815 251.979C78.7374 251.909 78.9963 251.607 79.4584 251.071C79.9442 250.521 80.6331 249.737 81.5251 248.721L79.9996 248.395L79.9535 248.324L80.0204 248.154L80.056 248.131L81.7283 248.489L84.6306 245.244C84.7899 245.36 84.9869 245.443 85.2216 245.493C85.4954 245.551 85.8097 245.516 86.1644 245.387C86.5345 245.282 86.8012 245.135 86.9645 244.945L87.0463 244.993L83.4592 248.859L85.4835 249.291L85.5065 249.327L85.4689 249.503L85.3977 249.549L83.2561 249.091L80.5087 252.186C78.8684 254.023 77.9271 255.509 77.6846 256.644C77.5133 257.446 77.7405 257.913 78.3664 258.047C79.3443 258.256 80.449 257.92 81.6806 257.038C82.0171 256.803 82.4339 256.432 82.9309 255.924C83.4279 255.417 83.8599 254.926 84.227 254.453C84.287 254.363 84.3422 254.344 84.3925 254.396C84.4666 254.432 84.4736 254.495 84.4136 254.585C83.9948 255.109 83.5628 255.599 83.1174 256.056C82.6916 256.517 82.2253 256.929 81.7184 257.291C80.4631 258.189 79.3074 258.524 78.2513 258.299ZM86.4483 259.744C85.5745 259.639 84.9545 259.182 84.5883 258.373C84.2475 257.687 84.1318 256.888 84.2414 255.975C84.4295 254.406 85.1009 253.006 86.2557 251.774C87.5241 250.436 88.9228 249.858 90.4519 250.042C91.2263 250.135 91.7899 250.474 92.1426 251.06C92.4779 251.624 92.5979 252.303 92.5026 253.098C92.4598 253.455 92.376 253.818 92.2513 254.185C92.1465 254.556 91.9996 254.941 91.8106 255.341C91.408 256.179 90.9585 256.82 90.4621 257.264L90.5109 257.361C90.6928 257.524 90.9228 257.622 91.2008 257.655C91.7767 257.724 92.2858 257.594 92.7282 257.264C93.1706 256.934 93.6984 256.313 94.3115 255.399C94.3409 255.322 94.3853 255.287 94.4449 255.295C94.4846 255.299 94.5108 255.333 94.5236 255.395C94.5387 255.437 94.5216 255.495 94.4723 255.57C93.9506 256.393 93.424 257.005 92.8926 257.405C92.3811 257.807 91.8176 257.971 91.202 257.897C90.8049 257.849 90.5102 257.703 90.3179 257.459C90.0765 257.792 89.8176 258.104 89.5412 258.393C89.2672 258.662 88.9669 258.898 88.6405 259.101C87.8939 259.615 87.1632 259.83 86.4483 259.744ZM86.6854 259.531C87.7378 259.657 88.8669 258.977 90.0725 257.49C90.0796 257.43 90.1165 257.374 90.1833 257.322C89.8973 256.683 89.7864 256.096 89.8507 255.559C89.8531 255.54 89.8578 255.5 89.865 255.44C89.8745 255.361 89.8963 255.263 89.9305 255.146C89.9765 254.93 90.0424 254.716 90.1282 254.505C90.2164 254.274 90.3418 254.067 90.5047 253.885C90.8597 253.444 91.2457 253.249 91.6627 253.299L91.9308 253.331C92.0078 253.361 92.0662 253.378 92.1059 253.382C92.1456 253.387 92.1754 253.391 92.1953 253.393C92.4096 251.606 91.9508 250.644 90.8189 250.509C89.8657 250.394 88.8931 250.862 87.9012 251.911C87.0966 252.741 86.4775 253.705 86.0439 254.801C85.7914 255.395 85.6247 256.03 85.5437 256.705C85.3318 258.472 85.7123 259.414 86.6854 259.531ZM102.86 260.192C101.661 260.239 101.041 259.733 100.999 258.674C100.967 257.834 101.259 256.862 101.877 255.757C102.082 255.369 102.658 254.496 103.606 253.138C104.231 252.233 104.537 251.601 104.523 251.241C104.51 250.901 104.223 250.742 103.664 250.764C103.284 250.779 102.865 250.805 102.406 250.843C101.967 250.88 101.608 250.914 101.329 250.945C101.282 251.267 101.206 251.64 101.102 252.065C100.999 252.489 100.876 252.934 100.734 253.4C100.645 253.684 100.5 254.069 100.299 254.558C100.118 255.045 99.8677 255.565 99.5489 256.118C99.4921 256.2 99.4437 256.242 99.4037 256.244C99.3837 256.245 99.3729 256.225 99.3714 256.185C99.3675 256.085 99.4024 255.954 99.4761 255.791C99.6251 255.505 99.7918 255.158 99.9761 254.75C100.16 254.323 100.332 253.856 100.492 253.349C100.635 252.903 100.757 252.438 100.858 251.954C100.978 251.449 101.045 251.106 101.058 250.925C100.567 250.644 100.31 250.204 100.286 249.604C100.26 248.925 100.486 248.576 100.966 248.557C101.306 248.544 101.488 248.847 101.512 249.467C101.517 249.607 101.504 249.777 101.472 249.979C101.439 250.18 101.399 250.422 101.35 250.704C101.629 250.673 102.068 250.636 102.666 250.593C103.284 250.529 103.873 250.486 104.433 250.464C105.452 250.424 105.974 250.714 105.998 251.334C106.023 251.993 105.287 253.383 103.788 255.503C103.468 256.016 103.11 256.6 102.716 257.256C102.34 257.891 102.165 258.538 102.191 259.198C102.198 259.377 102.244 259.546 102.33 259.703C102.417 259.859 102.59 259.933 102.849 259.923C103.709 259.889 104.638 259.333 105.637 258.253C106.136 257.713 106.594 257.135 107.01 256.518C107.426 255.902 107.8 255.216 108.131 254.463C108.205 254.3 108.272 254.217 108.332 254.215C108.372 254.213 108.393 254.243 108.395 254.303C108.399 254.403 108.373 254.514 108.318 254.636C108.005 255.349 107.622 256.044 107.168 256.722C106.713 257.38 106.208 258.01 105.651 258.613C104.709 259.63 103.779 260.157 102.86 260.192ZM111.011 259.618C110.039 259.744 109.33 259.563 108.884 259.076C108.436 258.569 108.148 257.819 108.02 256.828C107.836 255.399 108.239 253.835 109.23 252.135C110.29 250.344 111.504 249.361 112.873 249.185C113.885 249.054 114.435 249.336 114.525 250.031C114.634 250.884 114.283 251.836 113.471 252.889C112.316 254.409 111.004 255.263 109.537 255.453C109.378 256.098 109.338 256.728 109.417 257.343C109.504 258.018 109.701 258.527 110.007 258.87C110.314 259.214 110.715 259.354 111.211 259.29C111.727 259.224 112.244 259.016 112.764 258.666C113.281 258.297 113.712 257.889 114.058 257.441C114.352 257.06 114.67 256.556 115.012 255.927C115.372 255.275 115.715 254.495 116.041 253.586C116.088 253.479 116.141 253.422 116.201 253.414C116.32 253.399 116.333 253.498 116.239 253.712C115.989 254.43 115.705 255.122 115.387 255.788C115.09 256.451 114.661 257.111 114.1 257.768C113.772 258.194 113.339 258.592 112.802 258.964C112.263 259.316 111.666 259.534 111.011 259.618ZM109.54 255.24C110.631 255.1 111.775 254.357 112.973 253.013L112.969 252.984C113.305 252.618 113.606 252.135 113.872 251.536C114.189 250.87 114.32 250.319 114.264 249.883C114.223 249.565 113.964 249.437 113.488 249.499C112.734 249.596 111.909 250.388 111.011 251.875C110.592 252.534 110.267 253.14 110.036 253.694C109.805 254.248 109.639 254.764 109.54 255.24ZM124.316 256.622C123.304 256.865 122.63 256.287 122.293 254.887C122.162 254.342 122.1 253.699 122.106 252.957C121.377 255.91 120.342 257.547 119 257.871C118.359 258.025 117.795 257.821 117.31 257.259C116.921 256.839 116.637 256.259 116.459 255.52C116.314 254.917 116.25 254.264 116.265 253.561C116.32 252.334 116.76 251.087 117.586 249.818C118.51 248.443 119.506 247.627 120.576 247.37C121.548 247.136 122.175 247.602 122.456 248.769C122.577 249.274 122.613 249.893 122.563 250.625L123.499 246.697L123.587 246.676C123.669 246.759 123.807 246.777 124.001 246.73C124.39 246.637 124.83 246.284 125.32 245.672L125.393 245.716L124.079 251.155C123.551 253.319 123.406 254.896 123.645 255.888C123.739 256.277 123.961 256.429 124.311 256.345C124.544 256.289 124.805 256.133 125.093 255.879C125.382 255.624 125.661 255.248 125.933 254.751C126.268 254.094 126.543 253.483 126.756 252.917C126.984 252.327 127.219 251.551 127.46 250.588C127.495 250.476 127.542 250.414 127.6 250.4C127.717 250.372 127.74 250.469 127.671 250.691C127.48 251.437 127.26 252.189 127.011 252.949C126.776 253.684 126.445 254.401 126.017 255.101C125.485 255.97 124.918 256.476 124.316 256.622ZM119.068 257.638C120.157 257.376 121.187 255.503 122.158 252.019C122.468 250.915 122.504 249.868 122.265 248.876C122.013 247.826 121.546 247.383 120.865 247.547C120.126 247.725 119.438 248.539 118.799 249.989C118.552 250.583 118.35 251.156 118.195 251.708C118.059 252.255 117.968 252.771 117.92 253.255C117.792 254.52 117.841 255.619 118.066 256.553C118.267 257.389 118.601 257.751 119.068 257.638ZM131.039 254.449C130.368 254.71 129.784 254.615 129.287 254.165C128.79 253.715 128.411 253.154 128.149 252.483C127.881 251.794 127.751 251.157 127.76 250.574C127.753 249.783 127.863 248.935 128.09 248.031C128.311 247.108 128.681 246.267 129.2 245.507C129.713 244.728 130.388 244.175 131.227 243.849C132.159 243.486 132.835 243.845 133.256 244.926C133.466 245.466 133.579 246.088 133.595 246.79L134.669 236.07L134.725 236.048C134.829 236.094 134.974 236.08 135.16 236.008C135.552 235.855 135.934 235.459 136.308 234.82L136.385 234.855L135.315 244.51C134.906 248.254 134.889 250.611 135.267 251.58C135.462 252.083 135.765 252.255 136.175 252.095C136.399 252.008 136.637 251.819 136.888 251.528C137.14 251.237 137.366 250.827 137.568 250.297C137.812 249.601 138.002 248.959 138.138 248.37C138.284 247.754 138.413 246.953 138.522 245.966C138.542 245.851 138.579 245.783 138.635 245.761C138.747 245.718 138.783 245.811 138.744 246.041C138.655 246.805 138.539 247.58 138.394 248.366C138.261 249.126 138.029 249.882 137.699 250.633C137.289 251.565 136.795 252.144 136.217 252.369C135.751 252.55 135.309 252.572 134.891 252.434C134.491 252.289 134.168 251.9 133.921 251.266C133.689 250.67 133.534 249.968 133.456 249.162C133.131 252.186 132.325 253.948 131.039 254.449ZM131.137 254.121C131.64 253.925 132.092 253.32 132.491 252.306C132.89 251.292 133.187 249.932 133.381 248.225C133.398 248.047 133.4 247.778 133.389 247.417C133.389 247.031 133.359 246.624 133.3 246.197C133.252 245.743 133.159 245.339 133.021 244.985C132.876 244.612 132.682 244.334 132.438 244.15C132.195 243.965 131.887 243.946 131.514 244.091C131.16 244.229 130.829 244.508 130.52 244.928C130.223 245.323 129.976 245.902 129.78 246.665C129.442 247.891 129.288 249.014 129.32 250.032C129.326 250.158 129.348 250.407 129.385 250.779C129.415 251.132 129.473 251.528 129.558 251.967C129.636 252.387 129.747 252.784 129.892 253.157C130.03 253.511 130.202 253.787 130.408 253.986C130.615 254.185 130.857 254.23 131.137 254.121ZM143.93 249.472L143.847 249.454C143.795 248.299 143.71 247.13 143.592 245.946C143.474 244.762 143.348 243.548 143.214 242.303C143.162 241.814 143.083 241.21 142.979 240.493C142.892 239.764 142.779 238.922 142.64 237.965L142.691 237.933C142.863 237.942 143.024 237.897 143.176 237.8C143.529 237.573 143.814 237.165 144.029 236.575L144.047 236.492L144.054 236.559L144.029 236.575C144.063 236.886 144.108 237.439 144.167 238.233C144.231 239 144.322 240.011 144.439 241.267C144.414 238.193 144.865 236.359 145.791 235.765C146.414 235.365 146.914 235.46 147.292 236.049C147.605 236.537 147.854 237.387 148.038 238.6C148.079 237.885 148.119 237.3 148.16 236.846C148.191 236.375 148.227 236.043 148.269 235.85C148.49 234.638 148.878 233.855 149.433 233.498C150.157 233.033 150.746 233.155 151.2 233.862C151.535 234.383 151.74 235 151.817 235.711C151.899 236.395 151.936 237.12 151.929 237.885C151.91 238.634 151.925 239.361 151.974 240.066C152.012 240.422 152.07 240.789 152.146 241.168C152.229 241.519 152.346 241.812 152.497 242.048C152.638 242.267 152.824 242.408 153.056 242.473C153.277 242.522 153.547 242.443 153.867 242.238C154.103 242.087 154.303 241.899 154.468 241.674C154.622 241.433 154.745 241.199 154.838 240.973C155.065 240.328 155.188 239.667 155.205 238.991C155.222 238.314 155.197 237.665 155.131 237.042C155.064 236.42 155.02 235.889 155 235.45C154.997 235.334 155.031 235.276 155.103 235.277C155.164 235.262 155.205 235.307 155.225 235.413C155.343 236.336 155.437 237.297 155.508 238.297C155.58 239.297 155.444 240.215 155.103 241.053C154.981 241.345 154.818 241.628 154.614 241.901C154.426 242.164 154.189 242.388 153.903 242.571C153.314 242.95 152.804 243.099 152.372 243.019C151.947 242.912 151.599 242.648 151.329 242.227C151.135 241.924 150.964 241.511 150.818 240.987C150.725 240.619 150.646 240.218 150.581 239.784C150.522 239.323 150.49 238.809 150.483 238.243C150.424 236.189 150.254 234.944 149.974 234.506C149.79 234.22 149.572 234.158 149.319 234.32C148.612 234.774 148.293 236.535 148.362 239.604C148.374 240.548 148.423 241.514 148.512 242.503C148.589 243.475 148.688 244.481 148.809 245.52L148.758 245.553C148.619 245.595 148.493 245.64 148.381 245.688C148.27 245.736 148.172 245.787 148.087 245.841C147.583 246.165 147.393 246.536 147.519 246.954L147.411 246.952C147.337 245.431 147.275 244.223 147.224 243.329C147.173 242.435 147.141 241.849 147.13 241.572C146.889 238.827 146.585 237.168 146.217 236.596C146.055 236.344 145.882 236.277 145.697 236.396C145.007 236.839 144.695 238.631 144.763 241.772C144.794 243.82 144.944 245.85 145.215 247.863L145.18 247.921C144.908 247.977 144.687 248.059 144.519 248.167C144.233 248.351 144.067 248.611 144.022 248.949C143.995 249.276 143.964 249.45 143.93 249.472ZM160.507 237.411C159.838 237.983 159.082 238.129 158.239 237.85C157.504 237.636 156.837 237.179 156.24 236.48C155.214 235.279 154.639 233.836 154.516 232.152C154.391 230.313 154.914 228.893 156.085 227.892C156.678 227.386 157.31 227.201 157.98 227.339C158.622 227.475 159.203 227.847 159.722 228.455C159.956 228.729 160.166 229.036 160.352 229.377C160.553 229.705 160.737 230.074 160.903 230.484C161.247 231.348 161.413 232.113 161.404 232.779L161.508 232.809C161.751 232.785 161.979 232.683 162.192 232.501C162.633 232.124 162.882 231.661 162.939 231.113C162.996 230.564 162.897 229.754 162.641 228.685C162.604 228.611 162.608 228.554 162.654 228.515C162.684 228.489 162.727 228.493 162.781 228.525C162.822 228.543 162.853 228.595 162.875 228.682C163.127 229.624 163.22 230.425 163.154 231.087C163.103 231.735 162.842 232.261 162.37 232.664C162.066 232.924 161.759 233.041 161.449 233.017C161.531 233.42 161.584 233.822 161.609 234.221C161.622 234.605 161.592 234.986 161.52 235.363C161.392 236.261 161.055 236.944 160.507 237.411ZM160.511 237.092C161.317 236.404 161.582 235.113 161.305 233.218C161.266 233.173 161.25 233.108 161.257 233.023C160.593 232.801 160.086 232.484 159.736 232.074C159.723 232.058 159.697 232.028 159.658 231.982C159.606 231.921 159.548 231.839 159.486 231.735C159.358 231.554 159.245 231.361 159.148 231.155C159.038 230.933 158.971 230.701 158.948 230.458C158.864 229.898 158.982 229.482 159.301 229.209L159.506 229.034C159.58 228.997 159.632 228.966 159.663 228.94C159.693 228.914 159.716 228.894 159.731 228.881C158.562 227.513 157.544 227.199 156.677 227.939C155.947 228.563 155.632 229.595 155.732 231.035C155.797 232.189 156.086 233.297 156.598 234.359C156.864 234.947 157.218 235.5 157.659 236.017C158.815 237.37 159.766 237.729 160.511 237.092ZM168.488 229.625C167.659 230.492 166.861 230.56 166.095 229.828C165.487 229.247 165.021 228.345 164.696 227.122C164.574 226.701 164.381 225.672 164.117 224.037C163.937 222.952 163.717 222.285 163.456 222.037C163.211 221.802 162.894 221.887 162.507 222.291C162.245 222.566 161.962 222.877 161.659 223.223C161.369 223.555 161.135 223.829 160.956 224.045C161.146 224.31 161.351 224.631 161.572 225.007C161.792 225.384 162.014 225.79 162.236 226.223C162.369 226.489 162.533 226.867 162.728 227.358C162.937 227.834 163.119 228.382 163.275 229C163.291 229.099 163.286 229.163 163.258 229.192C163.244 229.206 163.223 229.2 163.194 229.172C163.122 229.103 163.055 228.984 162.995 228.816C162.903 228.507 162.782 228.142 162.631 227.721C162.465 227.286 162.264 226.831 162.027 226.355C161.819 225.936 161.583 225.516 161.319 225.098C161.054 224.651 160.864 224.359 160.748 224.22C160.199 224.36 159.708 224.222 159.274 223.808C158.782 223.338 158.702 222.93 159.034 222.582C159.269 222.337 159.611 222.428 160.059 222.856C160.16 222.953 160.269 223.085 160.386 223.252C160.503 223.419 160.642 223.621 160.803 223.858C160.982 223.642 161.271 223.31 161.672 222.862C162.071 222.386 162.464 221.946 162.851 221.541C163.556 220.804 164.132 220.649 164.58 221.077C165.058 221.533 165.495 223.044 165.893 225.61C166.019 226.201 166.169 226.869 166.341 227.615C166.513 228.333 166.838 228.92 167.315 229.376C167.445 229.5 167.596 229.588 167.767 229.641C167.938 229.694 168.113 229.626 168.292 229.438C168.887 228.816 169.167 227.77 169.134 226.3C169.117 225.565 169.044 224.831 168.914 224.098C168.784 223.366 168.576 222.614 168.29 221.842C168.229 221.674 168.22 221.568 168.261 221.524C168.289 221.495 168.325 221.502 168.368 221.543C168.44 221.612 168.499 221.71 168.544 221.836C168.816 222.566 169.024 223.332 169.169 224.135C169.3 224.924 169.375 225.729 169.394 226.549C169.425 227.934 169.123 228.96 168.488 229.625ZM173.948 223.527C173.338 224.294 172.704 224.658 172.045 224.619C171.37 224.568 170.641 224.231 169.858 223.609C168.731 222.713 167.931 221.309 167.456 219.399C166.97 217.376 167.156 215.825 168.015 214.745C168.649 213.947 169.241 213.765 169.789 214.201C170.462 214.736 170.874 215.664 171.024 216.985C171.255 218.88 170.909 220.407 169.988 221.566C170.324 222.139 170.735 222.619 171.22 223.005C171.752 223.428 172.248 223.656 172.707 223.689C173.166 223.723 173.552 223.543 173.863 223.152C174.186 222.745 174.413 222.235 174.542 221.623C174.656 220.998 174.681 220.404 174.617 219.842C174.562 219.364 174.439 218.781 174.246 218.091C174.051 217.373 173.753 216.574 173.354 215.695C173.313 215.585 173.311 215.507 173.348 215.46C173.423 215.366 173.501 215.429 173.583 215.647C173.904 216.336 174.182 217.031 174.419 217.73C174.667 218.413 174.819 219.186 174.875 220.047C174.936 220.581 174.903 221.169 174.777 221.809C174.635 222.438 174.359 223.01 173.948 223.527ZM169.842 221.411C170.527 220.551 170.831 219.221 170.754 217.422L170.73 217.403C170.716 216.906 170.596 216.351 170.369 215.736C170.133 215.037 169.843 214.551 169.498 214.277C169.248 214.078 168.973 214.166 168.675 214.542C168.202 215.136 168.161 216.28 168.553 217.972C168.712 218.736 168.901 219.398 169.121 219.956C169.342 220.515 169.582 221 169.842 221.411Z" fill="#C9AB81"/>
<path d="M23.3707 228.989C23.3475 228.903 23.3168 228.823 23.2787 228.75C23.2405 228.677 23.2032 228.589 23.1667 228.488C22.7322 227.456 22.6539 226.51 22.9318 225.648C22.0225 224.262 21.5873 222.883 21.6263 221.511C21.6986 220.056 22.348 218.785 23.5744 217.696C25.2196 216.235 27.1716 215.572 29.4303 215.706C31.6609 215.839 33.5131 216.735 34.9869 218.395C36.0226 219.562 36.5326 220.754 36.5169 221.971C37.0633 222.075 37.7359 222.2 38.5347 222.346C39.3618 222.495 40.315 222.665 41.3945 222.856L41.8208 222.478C43.7202 220.792 45.0616 220.39 45.845 221.272C46.0309 221.481 46.1147 221.741 46.0962 222.052C46.106 222.364 46.0062 222.613 45.7968 222.799C45.1985 223.33 43.8307 223.462 41.6933 223.193C41.5104 223.409 41.2486 223.761 40.9078 224.251C40.582 224.728 40.1913 225.342 39.7358 226.094C38.9677 227.338 38.2396 228.265 37.5516 228.876C35.6073 230.602 33.2144 231.175 30.373 230.595C27.7574 230.029 25.5666 228.751 23.8006 226.762C23.6944 226.642 23.589 226.509 23.4844 226.361C23.3649 226.226 23.2595 226.092 23.1683 225.959C22.9403 226.697 22.9938 227.465 23.3288 228.264C23.3885 228.452 23.4449 228.575 23.498 228.635C23.5378 228.68 23.6399 228.75 23.8043 228.845C23.9554 228.925 24.0509 228.987 24.0907 229.032C24.1704 229.122 24.1653 229.206 24.0756 229.286C23.9111 229.432 23.6761 229.333 23.3707 228.989ZM41.9226 222.909C43.8774 223.153 45.1464 223.016 45.7297 222.498C46.0288 222.232 46.0058 221.905 45.6605 221.516C45.0099 220.783 43.9667 221.054 42.5309 222.329C42.4262 222.422 42.3215 222.515 42.2168 222.608C42.1271 222.687 42.029 222.788 41.9226 222.909ZM23.3679 225.461C24.1779 226.374 25.3168 227.114 26.7847 227.683C27.4356 227.934 28.0891 228.143 28.745 228.31C29.4292 228.478 30.1167 228.59 30.8077 228.645C31.8224 228.733 32.6255 228.689 33.2169 228.512C35.2884 227.983 37.0794 227.048 38.59 225.707C38.4853 225.8 38.644 225.632 39.0661 225.204C39.4883 224.776 40.1813 224.08 41.1452 223.118C40.6271 223.016 39.9752 222.899 39.1897 222.768C38.4324 222.638 37.5348 222.485 36.4968 222.31C36.4398 223.27 36.0373 224.082 35.2895 224.746C34.2874 225.636 33.1163 226.034 31.776 225.94C30.4074 225.844 29.2783 225.295 28.3887 224.293C27.8841 223.725 27.593 223.141 27.5153 222.541C26.1431 222.984 25.0906 223.531 24.3577 224.181C24.1334 224.38 23.9439 224.589 23.7893 224.806C23.6198 225.037 23.4793 225.255 23.3679 225.461ZM23.1488 225.214C23.3434 224.801 23.6501 224.408 24.0688 224.037C24.8914 223.306 26.0403 222.687 27.5155 222.18C27.5408 221.516 27.8003 220.965 28.2938 220.526C28.4733 220.367 28.7225 220.226 29.0415 220.103C29.4618 219.944 29.7251 219.924 29.8313 220.044C29.8579 220.074 29.8695 220.117 29.8661 220.174C29.7498 220.223 29.6643 220.232 29.6095 220.201L29.6294 220.223C29.1444 220.279 28.7373 220.454 28.4083 220.746C28.0194 221.091 27.8016 221.538 27.7547 222.088C29.8629 221.42 32.566 221.347 35.8643 221.869C35.8932 220.666 35.4629 219.564 34.5733 218.562C33.3251 217.156 31.5617 216.435 29.2829 216.399C27.0756 216.353 25.254 216.967 23.8182 218.242C22.8162 219.131 22.2466 220.252 22.1096 221.604C22.0411 222.28 22.0955 222.913 22.2729 223.505C22.4353 224.109 22.7273 224.679 23.1488 225.214ZM28.4661 224.064C29.1831 224.872 30.2134 225.294 31.5571 225.332C32.9007 225.369 33.9689 225.036 34.7616 224.332C35.3598 223.801 35.7207 223.093 35.8441 222.208C34.2432 221.971 32.7609 221.883 31.3972 221.943C30.0485 221.991 28.8335 222.173 27.752 222.492C27.8032 223.061 28.0412 223.586 28.4661 224.064ZM35.9049 237.864C35.3123 237.357 34.9692 236.774 34.8756 236.114C34.7819 235.455 35.0407 234.768 35.652 234.054C36.1462 233.477 36.7805 232.967 37.5546 232.524C38.3288 232.081 39.2039 231.75 40.18 231.533C42.2861 231.072 43.8709 231.296 44.9344 232.207C45.922 233.052 46.032 233.923 45.2647 234.819C44.9785 235.154 44.56 235.427 44.0091 235.64C43.3737 235.86 42.904 235.839 42.6001 235.579C42.3722 235.384 42.3363 235.195 42.4924 235.013C42.6615 234.816 43.0747 234.748 43.732 234.811C44.4024 234.858 44.9001 234.692 45.2253 234.312C45.6675 233.795 45.6228 233.309 45.091 232.854C44.5288 232.373 43.5548 232.25 42.1687 232.485C41.1623 232.676 40.1928 232.979 39.2602 233.391C38.8482 233.565 38.3516 233.838 37.7704 234.209C37.2023 234.565 36.7231 234.971 36.3329 235.427C36.0077 235.807 35.8117 236.205 35.7447 236.621C35.6777 237.038 35.8569 237.428 36.2823 237.793C36.6773 238.131 37.1786 238.376 37.7861 238.527C38.4066 238.663 38.9988 238.71 39.5628 238.666C40.0422 238.629 40.63 238.526 41.3263 238.359C42.0507 238.189 42.8597 237.921 43.7532 237.554C43.8638 237.517 43.9419 237.518 43.9875 237.557C44.0787 237.635 44.0136 237.711 43.7924 237.785C43.0919 238.08 42.3881 238.333 41.6811 238.544C40.9892 238.768 40.2116 238.892 39.3482 238.917C38.8124 238.958 38.2267 238.904 37.591 238.755C36.9683 238.59 36.4062 238.294 35.9049 237.864ZM43.6205 243.492C42.6375 242.804 42.45 242.025 43.0579 241.157C43.5397 240.469 44.3606 239.872 45.5207 239.366C45.9188 239.18 46.906 238.834 48.4823 238.326C49.5277 237.984 50.1536 237.665 50.36 237.37C50.555 237.092 50.4232 236.792 49.9644 236.471C49.6531 236.253 49.3033 236.02 48.915 235.773C48.5431 235.537 48.2368 235.347 47.9959 235.202C47.7632 235.43 47.4773 235.682 47.1381 235.957C46.7989 236.232 46.4319 236.512 46.037 236.797C45.7945 236.969 45.4455 237.189 44.99 237.456C44.5508 237.734 44.0372 237.997 43.4489 238.245C43.3539 238.276 43.29 238.28 43.2572 238.257C43.2408 238.245 43.2441 238.223 43.2671 238.191C43.3244 238.109 43.4317 238.025 43.589 237.94C43.8807 237.802 44.2232 237.627 44.6164 237.414C45.0211 237.185 45.4406 236.917 45.8748 236.61C46.2582 236.342 46.6367 236.045 47.0103 235.721C47.4118 235.392 47.6723 235.159 47.7919 235.023C47.5708 234.502 47.6323 233.996 47.9764 233.504C48.3664 232.947 48.758 232.806 49.1512 233.081C49.4297 233.276 49.3912 233.628 49.0356 234.136C48.9553 234.251 48.8414 234.378 48.694 234.519C48.5465 234.66 48.3679 234.828 48.1581 235.023C48.399 235.167 48.7709 235.403 49.2739 235.731C49.8047 236.054 50.2995 236.376 50.7582 236.697C51.5938 237.282 51.8338 237.828 51.4782 238.336C51.0997 238.877 49.6725 239.538 47.1968 240.319C46.6315 240.534 45.9933 240.783 45.2821 241.066C44.5989 241.345 44.068 241.754 43.6895 242.295C43.5862 242.442 43.5215 242.605 43.4953 242.782C43.469 242.959 43.5624 243.122 43.7754 243.271C44.4799 243.764 45.5564 243.883 47.0048 243.627C47.729 243.5 48.4434 243.316 49.1479 243.077C49.8525 242.838 50.5644 242.518 51.2838 242.119C51.4411 242.033 51.5443 242.008 51.5934 242.042C51.6262 242.065 51.6254 242.101 51.591 242.151C51.5336 242.233 51.4459 242.305 51.328 242.369C50.648 242.748 49.9221 243.07 49.1504 243.335C48.3901 243.584 47.6061 243.78 46.7983 243.922C45.4335 244.163 44.3742 244.019 43.6205 243.492ZM50.8606 248.123C50.0945 247.69 49.6983 247.029 49.6718 246.141C49.6211 245.377 49.8221 244.595 50.2748 243.794C51.0523 242.419 52.211 241.385 53.7508 240.693C55.4366 239.946 56.9499 239.951 58.2906 240.709C58.9696 241.093 59.359 241.623 59.4589 242.3C59.5513 242.95 59.4006 243.623 59.0069 244.319C58.8298 244.632 58.6129 244.935 58.3563 245.226C58.117 245.528 57.8331 245.827 57.5046 246.123C56.8104 246.742 56.1487 247.16 55.5197 247.379L55.5276 247.487C55.6328 247.707 55.8073 247.886 56.0511 248.024C56.556 248.309 57.076 248.385 57.6112 248.251C58.1465 248.117 58.8728 247.747 59.7903 247.14C59.8471 247.08 59.9016 247.065 59.9539 247.094C59.9887 247.114 60 247.155 59.9879 247.217C59.9856 247.262 59.9474 247.309 59.8732 247.359C59.0746 247.918 58.3531 248.28 57.7089 248.444C57.0821 248.618 56.4988 248.553 55.9591 248.248C55.6109 248.051 55.3951 247.803 55.3119 247.503C54.9606 247.718 54.6018 247.906 54.2354 248.066C53.8788 248.209 53.5109 248.311 53.1316 248.373C52.2444 248.56 51.4874 248.477 50.8606 248.123ZM51.1615 248.017C52.0843 248.539 53.3883 248.345 55.0734 247.437C55.1029 247.385 55.1586 247.347 55.2403 247.325C55.2222 246.625 55.346 246.04 55.6117 245.57C55.6215 245.553 55.6412 245.518 55.6707 245.466C55.7101 245.396 55.768 245.314 55.8445 245.219C55.9702 245.038 56.1132 244.866 56.2737 244.704C56.4441 244.524 56.6394 244.382 56.8597 244.277C57.357 244.007 57.7885 243.975 58.1542 244.182L58.3892 244.314C58.449 244.371 58.4963 244.409 58.5312 244.429C58.566 244.449 58.5921 244.464 58.6095 244.473C59.4953 242.906 59.4419 241.842 58.4495 241.281C57.6138 240.809 56.5362 240.866 55.2167 241.453C54.1546 241.909 53.2125 242.56 52.3903 243.405C51.9285 243.856 51.5303 244.377 51.1957 244.969C50.3198 246.519 50.3084 247.535 51.1615 248.017ZM60.0056 252.704C58.5239 252.049 58.2157 250.743 59.0809 248.786C59.5984 247.615 60.457 246.366 61.6565 245.037C62.2096 244.429 62.769 243.856 63.3345 243.319C63.9 242.782 64.4635 242.298 65.0252 241.869C65.7166 241.343 66.4101 240.863 67.1058 240.427C67.8095 239.973 68.5245 239.567 69.2508 239.21C71.3748 238.115 72.9215 237.782 73.891 238.211C74.2934 238.389 74.4097 238.67 74.2399 239.054C74.0135 239.566 73.4554 240.26 72.5657 241.135C69.6127 244.006 65.9192 246.178 61.485 247.651C60.6646 248.666 60.1008 249.521 59.7935 250.216C59.2679 251.405 59.3801 252.165 60.1301 252.497C60.3862 252.61 60.6533 252.674 60.9316 252.687C61.2179 252.683 61.4808 252.657 61.7203 252.61C62.384 252.444 63.0029 252.182 63.5769 251.823C64.1508 251.464 64.6791 251.086 65.1616 250.687C65.6441 250.288 66.0628 249.959 66.4176 249.7C66.5129 249.633 66.5799 249.63 66.6186 249.691C66.6654 249.733 66.6503 249.792 66.5733 249.868C65.8678 250.474 65.1177 251.083 64.3229 251.694C63.5281 252.304 62.6871 252.698 61.8001 252.874C61.1525 253.004 60.5544 252.947 60.0056 252.704ZM61.6886 247.413C62.192 247.264 62.7459 247.049 63.3505 246.77C63.9551 246.491 64.6154 246.159 65.3315 245.776C66.0476 245.393 66.8011 244.95 67.592 244.447C68.383 243.943 69.1982 243.385 70.0377 242.772C72.2805 241.162 73.5918 239.926 73.9719 239.067C74.1094 238.756 74.0775 238.556 73.8763 238.467C73.1995 238.168 71.3493 239.088 68.3258 241.229C67.5046 241.85 66.7413 242.463 66.0358 243.07C65.1682 243.845 64.3666 244.595 63.6309 245.32C62.9216 246.034 62.2742 246.732 61.6886 247.413ZM66.8114 255.325C65.2853 254.781 64.8812 253.502 65.5991 251.486C66.0285 250.28 66.7921 248.97 67.89 247.556C68.3966 246.909 68.912 246.296 69.4361 245.719C69.9603 245.141 70.4865 244.617 71.0148 244.147C71.6654 243.572 72.3214 243.041 72.9829 242.555C73.6511 242.05 74.3341 241.593 75.0319 241.183C77.069 239.934 78.5868 239.487 79.5854 239.843C79.9999 239.99 80.1367 240.262 79.9958 240.658C79.8079 241.185 79.3027 241.918 78.4803 242.857C75.748 245.939 72.2254 248.378 67.9126 250.176C67.1696 251.249 66.6706 252.143 66.4157 252.859C65.9795 254.084 66.1477 254.834 66.9202 255.109C67.184 255.203 67.4551 255.246 67.7336 255.239C68.0188 255.213 68.2791 255.168 68.5144 255.103C69.164 254.889 69.7618 254.581 70.3076 254.181C70.8535 253.781 71.3522 253.364 71.8038 252.931C72.2555 252.497 72.6487 252.138 72.9834 251.854C73.0735 251.78 73.14 251.772 73.1831 251.83C73.233 251.869 73.2222 251.929 73.151 252.009C72.4924 252.667 71.7894 253.329 71.042 253.997C70.2946 254.665 69.4851 255.12 68.6136 255.361C67.9774 255.538 67.3767 255.526 66.8114 255.325ZM68.098 249.923C68.5889 249.737 69.1254 249.482 69.7077 249.159C70.2899 248.836 70.9239 248.456 71.6096 248.021C72.2953 247.586 73.014 247.088 73.7655 246.528C74.517 245.968 75.2887 245.351 76.0805 244.677C78.1978 242.905 79.4141 241.576 79.7294 240.69C79.8435 240.37 79.7969 240.173 79.5896 240.099C78.8925 239.851 77.1156 240.906 74.2589 243.264C73.486 243.944 72.7702 244.613 72.1116 245.27C71.3038 246.108 70.5599 246.915 69.8799 247.692C69.2254 248.457 68.6314 249.2 68.098 249.923ZM78.2513 258.299C76.8626 258.002 76.3146 257.169 76.6072 255.8C76.8371 254.724 77.5285 253.451 78.6815 251.979C78.7374 251.909 78.9963 251.607 79.4584 251.071C79.9442 250.521 80.6331 249.737 81.5251 248.721L79.9996 248.395L79.9535 248.324L80.0204 248.154L80.056 248.131L81.7283 248.489L84.6306 245.244C84.7899 245.36 84.9869 245.443 85.2216 245.493C85.4954 245.551 85.8097 245.516 86.1644 245.387C86.5345 245.282 86.8012 245.135 86.9645 244.945L87.0463 244.993L83.4592 248.859L85.4835 249.291L85.5065 249.327L85.4689 249.503L85.3977 249.549L83.2561 249.091L80.5087 252.186C78.8684 254.023 77.9271 255.509 77.6846 256.644C77.5133 257.446 77.7405 257.913 78.3664 258.047C79.3443 258.256 80.449 257.92 81.6806 257.038C82.0171 256.803 82.4339 256.432 82.9309 255.924C83.4279 255.417 83.8599 254.926 84.227 254.453C84.287 254.363 84.3422 254.344 84.3925 254.396C84.4666 254.432 84.4736 254.495 84.4136 254.585C83.9948 255.109 83.5628 255.599 83.1174 256.056C82.6916 256.517 82.2253 256.929 81.7184 257.291C80.4631 258.189 79.3074 258.524 78.2513 258.299ZM86.4483 259.744C85.5745 259.639 84.9545 259.182 84.5883 258.373C84.2475 257.687 84.1318 256.888 84.2414 255.975C84.4295 254.406 85.1009 253.006 86.2557 251.774C87.5241 250.436 88.9228 249.858 90.4519 250.042C91.2263 250.135 91.7899 250.474 92.1426 251.06C92.4779 251.624 92.5979 252.303 92.5026 253.098C92.4598 253.455 92.376 253.818 92.2513 254.185C92.1465 254.556 91.9996 254.941 91.8106 255.341C91.408 256.179 90.9585 256.82 90.4621 257.264L90.5109 257.361C90.6928 257.524 90.9228 257.622 91.2008 257.655C91.7767 257.724 92.2858 257.594 92.7282 257.264C93.1706 256.934 93.6984 256.313 94.3115 255.399C94.3409 255.322 94.3853 255.287 94.4449 255.295C94.4846 255.299 94.5108 255.333 94.5236 255.395C94.5387 255.437 94.5216 255.495 94.4723 255.57C93.9506 256.393 93.424 257.005 92.8926 257.405C92.3811 257.807 91.8176 257.971 91.202 257.897C90.8049 257.849 90.5102 257.703 90.3179 257.459C90.0765 257.792 89.8176 258.104 89.5412 258.393C89.2672 258.662 88.9669 258.898 88.6405 259.101C87.8939 259.615 87.1632 259.83 86.4483 259.744ZM86.6854 259.531C87.7378 259.657 88.8669 258.977 90.0725 257.49C90.0796 257.43 90.1165 257.374 90.1833 257.322C89.8973 256.683 89.7864 256.096 89.8507 255.559C89.8531 255.54 89.8578 255.5 89.865 255.44C89.8745 255.361 89.8963 255.263 89.9305 255.146C89.9765 254.93 90.0424 254.716 90.1282 254.505C90.2164 254.274 90.3418 254.067 90.5047 253.885C90.8597 253.444 91.2457 253.249 91.6627 253.299L91.9308 253.331C92.0078 253.361 92.0662 253.378 92.1059 253.382C92.1456 253.387 92.1754 253.391 92.1953 253.393C92.4096 251.606 91.9508 250.644 90.8189 250.509C89.8657 250.394 88.8931 250.862 87.9012 251.911C87.0966 252.741 86.4775 253.705 86.0439 254.801C85.7914 255.395 85.6247 256.03 85.5437 256.705C85.3318 258.472 85.7123 259.414 86.6854 259.531ZM102.86 260.192C101.661 260.239 101.041 259.733 100.999 258.674C100.967 257.834 101.259 256.862 101.877 255.757C102.082 255.369 102.658 254.496 103.606 253.138C104.231 252.233 104.537 251.601 104.523 251.241C104.51 250.901 104.223 250.742 103.664 250.764C103.284 250.779 102.865 250.805 102.406 250.843C101.967 250.88 101.608 250.914 101.329 250.945C101.282 251.267 101.206 251.64 101.102 252.065C100.999 252.489 100.876 252.934 100.734 253.4C100.645 253.684 100.5 254.069 100.299 254.558C100.118 255.045 99.8677 255.565 99.5489 256.118C99.4921 256.2 99.4437 256.242 99.4037 256.244C99.3837 256.245 99.3729 256.225 99.3714 256.185C99.3675 256.085 99.4024 255.954 99.4761 255.791C99.6251 255.505 99.7918 255.158 99.9761 254.75C100.16 254.323 100.332 253.856 100.492 253.349C100.635 252.903 100.757 252.438 100.858 251.954C100.978 251.449 101.045 251.106 101.058 250.925C100.567 250.644 100.31 250.204 100.286 249.604C100.26 248.925 100.486 248.576 100.966 248.557C101.306 248.544 101.488 248.847 101.512 249.467C101.517 249.607 101.504 249.777 101.472 249.979C101.439 250.18 101.399 250.422 101.35 250.704C101.629 250.673 102.068 250.636 102.666 250.593C103.284 250.529 103.873 250.486 104.433 250.464C105.452 250.424 105.974 250.714 105.998 251.334C106.023 251.993 105.287 253.383 103.788 255.503C103.468 256.016 103.11 256.6 102.716 257.256C102.34 257.891 102.165 258.538 102.191 259.198C102.198 259.377 102.244 259.546 102.33 259.703C102.417 259.859 102.59 259.933 102.849 259.923C103.709 259.889 104.638 259.333 105.637 258.253C106.136 257.713 106.594 257.135 107.01 256.518C107.426 255.902 107.8 255.216 108.131 254.463C108.205 254.3 108.272 254.217 108.332 254.215C108.372 254.213 108.393 254.243 108.395 254.303C108.399 254.403 108.373 254.514 108.318 254.636C108.005 255.349 107.622 256.044 107.168 256.722C106.713 257.38 106.208 258.01 105.651 258.613C104.709 259.63 103.779 260.157 102.86 260.192ZM111.011 259.618C110.039 259.744 109.33 259.563 108.884 259.076C108.436 258.569 108.148 257.819 108.02 256.828C107.836 255.399 108.239 253.835 109.23 252.135C110.29 250.344 111.504 249.361 112.873 249.185C113.885 249.054 114.435 249.336 114.525 250.031C114.634 250.884 114.283 251.836 113.471 252.889C112.316 254.409 111.004 255.263 109.537 255.453C109.378 256.098 109.338 256.728 109.417 257.343C109.504 258.018 109.701 258.527 110.007 258.87C110.314 259.214 110.715 259.354 111.211 259.29C111.727 259.224 112.244 259.016 112.764 258.666C113.281 258.297 113.712 257.889 114.058 257.441C114.352 257.06 114.67 256.556 115.012 255.927C115.372 255.275 115.715 254.495 116.041 253.586C116.088 253.479 116.141 253.422 116.201 253.414C116.32 253.399 116.333 253.498 116.239 253.712C115.989 254.43 115.705 255.122 115.387 255.788C115.09 256.451 114.661 257.111 114.1 257.768C113.772 258.194 113.339 258.592 112.802 258.964C112.263 259.316 111.666 259.534 111.011 259.618ZM109.54 255.24C110.631 255.1 111.775 254.357 112.973 253.013L112.969 252.984C113.305 252.618 113.606 252.135 113.872 251.536C114.189 250.87 114.32 250.319 114.264 249.883C114.223 249.565 113.964 249.437 113.488 249.499C112.734 249.596 111.909 250.388 111.011 251.875C110.592 252.534 110.267 253.14 110.036 253.694C109.805 254.248 109.639 254.764 109.54 255.24ZM124.316 256.622C123.304 256.865 122.63 256.287 122.293 254.887C122.162 254.342 122.1 253.699 122.106 252.957C121.377 255.91 120.342 257.547 119 257.871C118.359 258.025 117.795 257.821 117.31 257.259C116.921 256.839 116.637 256.259 116.459 255.52C116.314 254.917 116.25 254.264 116.265 253.561C116.32 252.334 116.76 251.087 117.586 249.818C118.51 248.443 119.506 247.627 120.576 247.37C121.548 247.136 122.175 247.602 122.456 248.769C122.577 249.274 122.613 249.893 122.563 250.625L123.499 246.697L123.587 246.676C123.669 246.759 123.807 246.777 124.001 246.73C124.39 246.637 124.83 246.284 125.32 245.672L125.393 245.716L124.079 251.155C123.551 253.319 123.406 254.896 123.645 255.888C123.739 256.277 123.961 256.429 124.311 256.345C124.544 256.289 124.805 256.133 125.093 255.879C125.382 255.624 125.661 255.248 125.933 254.751C126.268 254.094 126.543 253.483 126.756 252.917C126.984 252.327 127.219 251.551 127.46 250.588C127.495 250.476 127.542 250.414 127.6 250.4C127.717 250.372 127.74 250.469 127.671 250.691C127.48 251.437 127.26 252.189 127.011 252.949C126.776 253.684 126.445 254.401 126.017 255.101C125.485 255.97 124.918 256.476 124.316 256.622ZM119.068 257.638C120.157 257.376 121.187 255.503 122.158 252.019C122.468 250.915 122.504 249.868 122.265 248.876C122.013 247.826 121.546 247.383 120.865 247.547C120.126 247.725 119.438 248.539 118.799 249.989C118.552 250.583 118.35 251.156 118.195 251.708C118.059 252.255 117.968 252.771 117.92 253.255C117.792 254.52 117.841 255.619 118.066 256.553C118.267 257.389 118.601 257.751 119.068 257.638ZM131.039 254.449C130.368 254.71 129.784 254.615 129.287 254.165C128.79 253.715 128.411 253.154 128.149 252.483C127.881 251.794 127.751 251.157 127.76 250.574C127.753 249.783 127.863 248.935 128.09 248.031C128.311 247.108 128.681 246.267 129.2 245.507C129.713 244.728 130.388 244.175 131.227 243.849C132.159 243.486 132.835 243.845 133.256 244.926C133.466 245.466 133.579 246.088 133.595 246.79L134.669 236.07L134.725 236.048C134.829 236.094 134.974 236.08 135.16 236.008C135.552 235.855 135.934 235.459 136.308 234.82L136.385 234.855L135.315 244.51C134.906 248.254 134.889 250.611 135.267 251.58C135.462 252.083 135.765 252.255 136.175 252.095C136.399 252.008 136.637 251.819 136.888 251.528C137.14 251.237 137.366 250.827 137.568 250.297C137.812 249.601 138.002 248.959 138.138 248.37C138.284 247.754 138.413 246.953 138.522 245.966C138.542 245.851 138.579 245.783 138.635 245.761C138.747 245.718 138.783 245.811 138.744 246.041C138.655 246.805 138.539 247.58 138.394 248.366C138.261 249.126 138.029 249.882 137.699 250.633C137.289 251.565 136.795 252.144 136.217 252.369C135.751 252.55 135.309 252.572 134.891 252.434C134.491 252.289 134.168 251.9 133.921 251.266C133.689 250.67 133.534 249.968 133.456 249.162C133.131 252.186 132.325 253.948 131.039 254.449ZM131.137 254.121C131.64 253.925 132.092 253.32 132.491 252.306C132.89 251.292 133.187 249.932 133.381 248.225C133.398 248.047 133.4 247.778 133.389 247.417C133.389 247.031 133.359 246.624 133.3 246.197C133.252 245.743 133.159 245.339 133.021 244.985C132.876 244.612 132.682 244.334 132.438 244.15C132.195 243.965 131.887 243.946 131.514 244.091C131.16 244.229 130.829 244.508 130.52 244.928C130.223 245.323 129.976 245.902 129.78 246.665C129.442 247.891 129.288 249.014 129.32 250.032C129.326 250.158 129.348 250.407 129.385 250.779C129.415 251.132 129.473 251.528 129.558 251.967C129.636 252.387 129.747 252.784 129.892 253.157C130.03 253.511 130.202 253.787 130.408 253.986C130.615 254.185 130.857 254.23 131.137 254.121ZM143.93 249.472L143.847 249.454C143.795 248.299 143.71 247.13 143.592 245.946C143.474 244.762 143.348 243.548 143.214 242.303C143.162 241.814 143.083 241.21 142.979 240.493C142.892 239.764 142.779 238.922 142.64 237.965L142.691 237.933C142.863 237.942 143.024 237.897 143.176 237.8C143.529 237.573 143.814 237.165 144.029 236.575L144.047 236.492L144.054 236.559L144.029 236.575C144.063 236.886 144.108 237.439 144.167 238.233C144.231 239 144.322 240.011 144.439 241.267C144.414 238.193 144.865 236.359 145.791 235.765C146.414 235.365 146.914 235.46 147.292 236.049C147.605 236.537 147.854 237.387 148.038 238.6C148.079 237.885 148.119 237.3 148.16 236.846C148.191 236.375 148.227 236.043 148.269 235.85C148.49 234.638 148.878 233.855 149.433 233.498C150.157 233.033 150.746 233.155 151.2 233.862C151.535 234.383 151.74 235 151.817 235.711C151.899 236.395 151.936 237.12 151.929 237.885C151.91 238.634 151.925 239.361 151.974 240.066C152.012 240.422 152.07 240.789 152.146 241.168C152.229 241.519 152.346 241.812 152.497 242.048C152.638 242.267 152.824 242.408 153.056 242.473C153.277 242.522 153.547 242.443 153.867 242.238C154.103 242.087 154.303 241.899 154.468 241.674C154.622 241.433 154.745 241.199 154.838 240.973C155.065 240.328 155.188 239.667 155.205 238.991C155.222 238.314 155.197 237.665 155.131 237.042C155.064 236.42 155.02 235.889 155 235.45C154.997 235.334 155.031 235.276 155.103 235.277C155.164 235.262 155.205 235.307 155.225 235.413C155.343 236.336 155.437 237.297 155.508 238.297C155.58 239.297 155.444 240.215 155.103 241.053C154.981 241.345 154.818 241.628 154.614 241.901C154.426 242.164 154.189 242.388 153.903 242.571C153.314 242.95 152.804 243.099 152.372 243.019C151.947 242.912 151.599 242.648 151.329 242.227C151.135 241.924 150.964 241.511 150.818 240.987C150.725 240.619 150.646 240.218 150.581 239.784C150.522 239.323 150.49 238.809 150.483 238.243C150.424 236.189 150.254 234.944 149.974 234.506C149.79 234.22 149.572 234.158 149.319 234.32C148.612 234.774 148.293 236.535 148.362 239.604C148.374 240.548 148.423 241.514 148.512 242.503C148.589 243.475 148.688 244.481 148.809 245.52L148.758 245.553C148.619 245.595 148.493 245.64 148.381 245.688C148.27 245.736 148.172 245.787 148.087 245.841C147.583 246.165 147.393 246.536 147.519 246.954L147.411 246.952C147.337 245.431 147.275 244.223 147.224 243.329C147.173 242.435 147.141 241.849 147.13 241.572C146.889 238.827 146.585 237.168 146.217 236.596C146.055 236.344 145.882 236.277 145.697 236.396C145.007 236.839 144.695 238.631 144.763 241.772C144.794 243.82 144.944 245.85 145.215 247.863L145.18 247.921C144.908 247.977 144.687 248.059 144.519 248.167C144.233 248.351 144.067 248.611 144.022 248.949C143.995 249.276 143.964 249.45 143.93 249.472ZM160.507 237.411C159.838 237.983 159.082 238.129 158.239 237.85C157.504 237.636 156.837 237.179 156.24 236.48C155.214 235.279 154.639 233.836 154.516 232.152C154.391 230.313 154.914 228.893 156.085 227.892C156.678 227.386 157.31 227.201 157.98 227.339C158.622 227.475 159.203 227.847 159.722 228.455C159.956 228.729 160.166 229.036 160.352 229.377C160.553 229.705 160.737 230.074 160.903 230.484C161.247 231.348 161.413 232.113 161.404 232.779L161.508 232.809C161.751 232.785 161.979 232.683 162.192 232.501C162.633 232.124 162.882 231.661 162.939 231.113C162.996 230.564 162.897 229.754 162.641 228.685C162.604 228.611 162.608 228.554 162.654 228.515C162.684 228.489 162.727 228.493 162.781 228.525C162.822 228.543 162.853 228.595 162.875 228.682C163.127 229.624 163.22 230.425 163.154 231.087C163.103 231.735 162.842 232.261 162.37 232.664C162.066 232.924 161.759 233.041 161.449 233.017C161.531 233.42 161.584 233.822 161.609 234.221C161.622 234.605 161.592 234.986 161.52 235.363C161.392 236.261 161.055 236.944 160.507 237.411ZM160.511 237.092C161.317 236.404 161.582 235.113 161.305 233.218C161.266 233.173 161.25 233.108 161.257 233.023C160.593 232.801 160.086 232.484 159.736 232.074C159.723 232.058 159.697 232.028 159.658 231.982C159.606 231.921 159.548 231.839 159.486 231.735C159.358 231.554 159.245 231.361 159.148 231.155C159.038 230.933 158.971 230.701 158.948 230.458C158.864 229.898 158.982 229.482 159.301 229.209L159.506 229.034C159.58 228.997 159.632 228.966 159.663 228.94C159.693 228.914 159.716 228.894 159.731 228.881C158.562 227.513 157.544 227.199 156.677 227.939C155.947 228.563 155.632 229.595 155.732 231.035C155.797 232.189 156.086 233.297 156.598 234.359C156.864 234.947 157.218 235.5 157.659 236.017C158.815 237.37 159.766 237.729 160.511 237.092ZM168.488 229.625C167.659 230.492 166.861 230.56 166.095 229.828C165.487 229.247 165.021 228.345 164.696 227.122C164.574 226.701 164.381 225.672 164.117 224.037C163.937 222.952 163.717 222.285 163.456 222.037C163.211 221.802 162.894 221.887 162.507 222.291C162.245 222.566 161.962 222.877 161.659 223.223C161.369 223.555 161.135 223.829 160.956 224.045C161.146 224.31 161.351 224.631 161.572 225.007C161.792 225.384 162.014 225.79 162.236 226.223C162.369 226.489 162.533 226.867 162.728 227.358C162.937 227.834 163.119 228.382 163.275 229C163.291 229.099 163.286 229.163 163.258 229.192C163.244 229.206 163.223 229.2 163.194 229.172C163.122 229.103 163.055 228.984 162.995 228.816C162.903 228.507 162.782 228.142 162.631 227.721C162.465 227.286 162.264 226.831 162.027 226.355C161.819 225.936 161.583 225.516 161.319 225.098C161.054 224.651 160.864 224.359 160.748 224.22C160.199 224.36 159.708 224.222 159.274 223.808C158.782 223.338 158.702 222.93 159.034 222.582C159.269 222.337 159.611 222.428 160.059 222.856C160.16 222.953 160.269 223.085 160.386 223.252C160.503 223.419 160.642 223.621 160.803 223.858C160.982 223.642 161.271 223.31 161.672 222.862C162.071 222.386 162.464 221.946 162.851 221.541C163.556 220.804 164.132 220.649 164.58 221.077C165.058 221.533 165.495 223.044 165.893 225.61C166.019 226.201 166.169 226.869 166.341 227.615C166.513 228.333 166.838 228.92 167.315 229.376C167.445 229.5 167.596 229.588 167.767 229.641C167.938 229.694 168.113 229.626 168.292 229.438C168.887 228.816 169.167 227.77 169.134 226.3C169.117 225.565 169.044 224.831 168.914 224.098C168.784 223.366 168.576 222.614 168.29 221.842C168.229 221.674 168.22 221.568 168.261 221.524C168.289 221.495 168.325 221.502 168.368 221.543C168.44 221.612 168.499 221.71 168.544 221.836C168.816 222.566 169.024 223.332 169.169 224.135C169.3 224.924 169.375 225.729 169.394 226.549C169.425 227.934 169.123 228.96 168.488 229.625ZM173.948 223.527C173.338 224.294 172.704 224.658 172.045 224.619C171.37 224.568 170.641 224.231 169.858 223.609C168.731 222.713 167.931 221.309 167.456 219.399C166.97 217.376 167.156 215.825 168.015 214.745C168.649 213.947 169.241 213.765 169.789 214.201C170.462 214.736 170.874 215.664 171.024 216.985C171.255 218.88 170.909 220.407 169.988 221.566C170.324 222.139 170.735 222.619 171.22 223.005C171.752 223.428 172.248 223.656 172.707 223.689C173.166 223.723 173.552 223.543 173.863 223.152C174.186 222.745 174.413 222.235 174.542 221.623C174.656 220.998 174.681 220.404 174.617 219.842C174.562 219.364 174.439 218.781 174.246 218.091C174.051 217.373 173.753 216.574 173.354 215.695C173.313 215.585 173.311 215.507 173.348 215.46C173.423 215.366 173.501 215.429 173.583 215.647C173.904 216.336 174.182 217.031 174.419 217.73C174.667 218.413 174.819 219.186 174.875 220.047C174.936 220.581 174.903 221.169 174.777 221.809C174.635 222.438 174.359 223.01 173.948 223.527ZM169.842 221.411C170.527 220.551 170.831 219.221 170.754 217.422L170.73 217.403C170.716 216.906 170.596 216.351 170.369 215.736C170.133 215.037 169.843 214.551 169.498 214.277C169.248 214.078 168.973 214.166 168.675 214.542C168.202 215.136 168.161 216.28 168.553 217.972C168.712 218.736 168.901 219.398 169.121 219.956C169.342 220.515 169.582 221 169.842 221.411Z" fill="#C9AB81"/>
<circle cx="21.5" cy="205.5" r="1.5" fill="#C9AB81"/>
<circle cx="174.5" cy="205.5" r="1.5" fill="#C9AB81"/>
<line x1="98.5" y1="-2.18557e-08" x2="98.5" y2="223" stroke="#C9AB81"/>
<circle cx="98.5" cy="222.5" r="1.5" fill="#C9AB81"/>
</svg>
