<svg width="146" height="146" viewBox="0 0 146 146" fill="none" xmlns="http://www.w3.org/2000/svg">
<path d="M22.931 114.144C22.9173 114.086 22.8985 114.032 22.8746 113.983C22.8507 113.933 22.8276 113.874 22.8054 113.806C22.537 113.109 22.5043 112.477 22.7071 111.908C22.1297 110.966 21.868 110.039 21.9222 109.125C22.0003 108.157 22.4591 107.323 23.2987 106.623C24.425 105.683 25.7393 105.281 27.2416 105.417C28.7252 105.551 29.941 106.187 30.889 107.323C31.5552 108.122 31.8706 108.927 31.8351 109.738C32.1971 109.818 32.6427 109.915 33.172 110.029C33.72 110.145 34.3517 110.278 35.0671 110.427L35.3589 110.184C36.6592 109.099 37.5614 108.859 38.0653 109.463C38.1848 109.607 38.2353 109.781 38.2166 109.988C38.2167 110.196 38.1451 110.36 38.0017 110.48C37.5922 110.821 36.678 110.881 35.2593 110.658C35.133 110.798 34.9513 111.028 34.7142 111.347C34.4873 111.658 34.2143 112.059 33.8953 112.551C33.3579 113.364 32.8538 113.967 32.3828 114.359C31.0517 115.47 29.4455 115.803 27.564 115.358C25.8327 114.927 24.3991 114.03 23.2632 112.669C23.1949 112.587 23.1274 112.495 23.0608 112.395C22.9839 112.303 22.9164 112.211 22.8583 112.121C22.6913 112.607 22.7111 113.12 22.918 113.66C22.9539 113.786 22.9889 113.87 23.0231 113.911C23.0487 113.941 23.1153 113.99 23.2229 114.057C23.3219 114.113 23.3843 114.156 23.4099 114.187C23.4611 114.249 23.456 114.305 23.3946 114.356C23.282 114.45 23.1274 114.379 22.931 114.144ZM35.4179 110.473C36.7155 110.676 37.5639 110.611 37.9632 110.278C38.168 110.107 38.1594 109.888 37.9373 109.622C37.5188 109.12 36.8181 109.279 35.8352 110.099C35.7635 110.159 35.6918 110.219 35.6202 110.279C35.5587 110.33 35.4913 110.395 35.4179 110.473ZM23.0016 111.793C23.5225 112.418 24.2663 112.934 25.2327 113.344C25.6613 113.525 26.0924 113.677 26.5261 113.801C26.9786 113.928 27.4344 114.016 27.8937 114.067C28.568 114.147 29.1041 114.134 29.5018 114.028C30.893 113.718 32.1056 113.132 33.1398 112.27C33.0681 112.329 33.1773 112.221 33.4674 111.944C33.7575 111.667 34.2335 111.218 34.8956 110.597C34.5524 110.518 34.1205 110.427 33.5998 110.323C33.0978 110.221 32.5028 110.101 31.8147 109.963C31.757 110.601 31.4722 111.134 30.9602 111.561C30.2742 112.134 29.4856 112.375 28.5945 112.285C27.6845 112.193 26.9434 111.804 26.3712 111.118C26.0466 110.729 25.8646 110.334 25.8252 109.933C24.9017 110.199 24.1891 110.542 23.6874 110.96C23.5339 111.089 23.4033 111.223 23.2958 111.365C23.1781 111.516 23.08 111.658 23.0016 111.793ZM22.8606 111.624C22.9988 111.353 23.2112 111.097 23.4979 110.858C24.061 110.388 24.8393 110 25.8327 109.692C25.8632 109.25 26.0474 108.888 26.3853 108.606C26.5082 108.503 26.6772 108.414 26.8922 108.339C27.1756 108.242 27.3514 108.234 27.4197 108.316C27.4368 108.336 27.4436 108.365 27.4403 108.403C27.3617 108.434 27.3045 108.438 27.2687 108.416L27.2815 108.431C26.9572 108.459 26.6824 108.566 26.4571 108.754C26.1909 108.976 26.0365 109.27 25.994 109.635C27.4125 109.234 29.2152 109.24 31.4023 109.656C31.4463 108.855 31.1822 108.112 30.61 107.426C29.8071 106.463 28.6469 105.947 27.1292 105.876C25.6593 105.8 24.4329 106.172 23.4499 106.991C22.7639 107.564 22.3614 108.299 22.2423 109.197C22.1828 109.646 22.2061 110.069 22.3121 110.467C22.4079 110.873 22.5907 111.259 22.8606 111.624ZM26.4274 110.967C26.8886 111.52 27.5665 111.822 28.4611 111.875C29.3557 111.927 30.0743 111.727 30.6169 111.275C31.0265 110.933 31.2815 110.469 31.3819 109.881C30.32 109.691 29.3341 109.601 28.4242 109.614C27.5245 109.618 26.7111 109.714 25.9839 109.904C26.0063 110.285 26.1541 110.639 26.4274 110.967ZM31.1701 120.337C30.7821 119.991 30.5614 119.598 30.5081 119.157C30.4547 118.716 30.6366 118.262 31.0539 117.794C31.3912 117.416 31.8209 117.085 32.343 116.8C32.8651 116.516 33.4529 116.308 34.1065 116.176C35.5166 115.898 36.5698 116.069 37.2662 116.691C37.9128 117.268 37.9742 117.85 37.4504 118.436C37.2551 118.655 36.9724 118.832 36.6023 118.966C36.1757 119.104 35.863 119.084 35.664 118.906C35.5148 118.773 35.4935 118.647 35.6 118.528C35.7154 118.398 35.9917 118.359 36.429 118.41C36.8752 118.45 37.2092 118.346 37.4312 118.098C37.733 117.759 37.7098 117.435 37.3617 117.124C36.9936 116.796 36.346 116.7 35.419 116.838C34.7455 116.952 34.0952 117.14 33.4679 117.402C33.1909 117.512 32.8562 117.687 32.4637 117.927C32.0801 118.156 31.7552 118.42 31.4889 118.719C31.2669 118.967 31.1308 119.23 31.0804 119.507C31.03 119.784 31.1441 120.046 31.4226 120.295C31.6813 120.526 32.012 120.696 32.4149 120.805C32.8266 120.904 33.2207 120.943 33.5972 120.922C33.9172 120.904 34.3104 120.844 34.7768 120.742C35.262 120.638 35.8049 120.471 36.4055 120.238C36.4797 120.215 36.5318 120.217 36.5616 120.243C36.6213 120.297 36.5769 120.346 36.4284 120.393C35.9575 120.58 35.4849 120.739 35.0107 120.87C34.5465 121.01 34.0265 121.082 33.4507 121.086C33.093 121.106 32.7033 121.062 32.2817 120.954C31.8689 120.836 31.4984 120.63 31.1701 120.337ZM36.1965 124.19C35.5534 123.714 35.4419 123.192 35.8621 122.624C36.1951 122.174 36.7526 121.79 37.5345 121.473C37.8031 121.356 38.467 121.143 39.5263 120.832C40.2289 120.622 40.6516 120.42 40.7943 120.227C40.9291 120.045 40.8464 119.843 40.5463 119.621C40.3426 119.47 40.1135 119.309 39.8591 119.137C39.6153 118.974 39.4144 118.842 39.2564 118.741C39.0974 118.889 38.9025 119.052 38.6717 119.229C38.4408 119.407 38.1914 119.587 37.9232 119.77C37.7586 119.881 37.5222 120.021 37.214 120.191C36.9165 120.369 36.5696 120.535 36.1733 120.69C36.1094 120.709 36.0668 120.711 36.0453 120.695C36.0346 120.687 36.0372 120.672 36.053 120.651C36.0927 120.597 36.1657 120.543 36.272 120.489C36.4687 120.403 36.7 120.292 36.9658 120.157C37.2395 120.011 37.5237 119.84 37.8184 119.643C38.0786 119.471 38.336 119.279 38.5906 119.07C38.8639 118.857 39.0415 118.707 39.1236 118.618C38.9853 118.267 39.035 117.931 39.2729 117.609C39.5425 117.245 39.8059 117.158 40.0632 117.348C40.2454 117.483 40.2136 117.716 39.9678 118.049C39.9123 118.124 39.8342 118.207 39.7335 118.298C39.6328 118.39 39.5108 118.498 39.3677 118.625C39.5257 118.725 39.7694 118.889 40.0989 119.116C40.4471 119.34 40.7713 119.563 41.0714 119.785C41.6181 120.19 41.7685 120.558 41.5227 120.89C41.2611 121.244 40.2985 121.66 38.635 122.138C38.2545 122.271 37.8249 122.426 37.346 122.602C36.8858 122.776 36.5249 123.04 36.2632 123.393C36.1919 123.49 36.1459 123.597 36.1254 123.714C36.1048 123.832 36.1642 123.942 36.3036 124.045C36.7645 124.386 37.4798 124.484 38.4496 124.339C38.9344 124.266 39.4137 124.156 39.8874 124.009C40.3611 123.862 40.8411 123.662 41.3275 123.408C41.4338 123.354 41.503 123.339 41.5352 123.362C41.5566 123.378 41.5554 123.402 41.5316 123.434C41.492 123.488 41.4323 123.535 41.3526 123.576C40.8928 123.816 40.4035 124.018 39.8846 124.181C39.3736 124.334 38.8477 124.451 38.3069 124.532C37.3931 124.669 36.6896 124.555 36.1965 124.19ZM40.9946 127.405C40.4893 127.107 40.2333 126.662 40.2266 126.07C40.2023 125.56 40.3459 125.041 40.6576 124.513C41.1928 123.606 41.9779 122.931 43.0128 122.489C44.1458 122.012 45.1544 122.034 46.0386 122.556C46.4865 122.82 46.7395 123.178 46.7978 123.63C46.8513 124.065 46.7425 124.511 46.4715 124.971C46.3496 125.177 46.2013 125.376 46.0266 125.567C45.8634 125.765 45.6705 125.961 45.4478 126.155C44.9775 126.558 44.5313 126.829 44.1093 126.967L44.1132 127.039C44.1806 127.187 44.2947 127.309 44.4555 127.404C44.7885 127.6 45.1342 127.657 45.4926 127.574C45.851 127.492 46.3398 127.254 46.9589 126.86C46.9974 126.821 47.034 126.812 47.0684 126.832C47.0914 126.846 47.0984 126.873 47.0896 126.914C47.0875 126.944 47.0615 126.975 47.0114 127.007C46.4721 127.37 45.9868 127.603 45.5553 127.704C45.1354 127.813 44.7474 127.762 44.3914 127.552C44.1617 127.416 44.021 127.248 43.9692 127.047C43.7324 127.186 43.4909 127.307 43.2447 127.409C43.0053 127.5 42.7588 127.564 42.5052 127.6C41.9115 127.714 41.408 127.649 40.9946 127.405ZM41.1964 127.339C41.8051 127.698 42.6766 127.585 43.8111 127C43.8314 126.966 43.869 126.942 43.9237 126.927C43.9203 126.461 44.01 126.073 44.193 125.763C44.1997 125.751 44.2133 125.728 44.2336 125.694C44.2607 125.648 44.3003 125.594 44.3525 125.532C44.4385 125.412 44.536 125.299 44.6449 125.193C44.7607 125.076 44.8926 124.983 45.0408 124.916C45.3756 124.742 45.6637 124.726 45.9048 124.868L46.0598 124.96C46.099 124.998 46.1301 125.025 46.153 125.038C46.176 125.052 46.1932 125.062 46.2047 125.069C46.8145 124.035 46.7921 123.325 46.1375 122.939C45.5863 122.614 44.8673 122.639 43.9805 123.013C43.267 123.304 42.6309 123.726 42.0725 124.279C41.7591 124.574 41.4872 124.917 41.2569 125.308C40.6539 126.33 40.6337 127.007 41.1964 127.339ZM47.0364 130.572C46.0567 130.118 45.867 129.243 46.4673 127.949C46.8264 127.175 47.4137 126.352 48.2292 125.481C48.6053 125.083 48.985 124.707 49.3684 124.356C49.7518 124.005 50.1333 123.689 50.5128 123.41C50.98 123.068 51.4481 122.756 51.9171 122.474C52.3916 122.18 52.8731 121.918 53.3615 121.689C54.7905 120.985 55.8254 120.781 56.4665 121.079C56.7326 121.202 56.8068 121.391 56.6889 121.645C56.5318 121.983 56.1515 122.439 55.5479 123.012C53.5449 124.89 51.0568 126.293 48.0834 127.222C47.5244 127.888 47.1382 128.451 46.925 128.911C46.5604 129.697 46.626 130.205 47.1219 130.435C47.2912 130.514 47.4685 130.559 47.6538 130.572C47.8447 130.572 48.0203 130.558 48.1805 130.529C48.6249 130.427 49.0406 130.26 49.4275 130.028C49.8144 129.795 50.1711 129.549 50.4975 129.289C50.8239 129.029 51.107 128.815 51.3466 128.647C51.4109 128.603 51.4556 128.602 51.4807 128.643C51.5114 128.672 51.5006 128.711 51.4484 128.76C50.9708 129.156 50.4635 129.553 49.9263 129.95C49.3892 130.348 48.8239 130.6 48.2305 130.707C47.7973 130.785 47.3993 130.74 47.0364 130.572ZM48.222 127.065C48.5593 126.972 48.9311 126.836 49.3375 126.657C49.7439 126.478 50.188 126.265 50.6699 126.018C51.1518 125.771 51.6595 125.485 52.1927 125.159C52.726 124.833 53.2762 124.471 53.8431 124.073C55.3574 123.026 56.2464 122.219 56.5101 121.65C56.6055 121.444 56.5867 121.311 56.4536 121.249C56.0061 121.041 54.7617 121.633 52.7206 123.023C52.1658 123.427 51.6496 123.827 51.172 124.223C50.5844 124.729 50.041 125.219 49.5419 125.693C49.0605 126.161 48.6205 126.618 48.222 127.065ZM51.5514 132.4C50.5401 132.02 50.2848 131.163 50.7856 129.827C51.0852 129.028 51.6086 128.163 52.356 127.233C52.7009 126.807 53.0512 126.405 53.4069 126.025C53.7627 125.646 54.1192 125.303 54.4766 124.995C54.9166 124.619 55.3598 124.273 55.8061 123.956C56.257 123.626 56.7173 123.329 57.187 123.064C58.5587 122.254 59.5753 121.973 60.237 122.221C60.5117 122.324 60.5999 122.506 60.5016 122.768C60.3706 123.118 60.0257 123.601 59.4671 124.218C57.6119 126.242 55.2369 127.829 52.3422 128.98C51.8351 129.687 51.4926 130.277 51.3148 130.752C51.0105 131.563 51.1144 132.065 51.6262 132.257C51.801 132.322 51.9813 132.354 52.167 132.353C52.3574 132.339 52.5314 132.311 52.689 132.271C53.1244 132.135 53.5262 131.937 53.8944 131.676C54.2627 131.415 54.5997 131.143 54.9056 130.859C55.2114 130.575 55.4775 130.34 55.7037 130.154C55.7646 130.106 55.8091 130.101 55.8372 130.14C55.8699 130.167 55.8621 130.207 55.8138 130.26C55.3675 130.69 54.8916 131.124 54.386 131.561C53.8804 131.998 53.3358 132.292 52.7522 132.444C52.3262 132.555 51.9259 132.54 51.5514 132.4ZM52.4686 128.813C52.7978 128.695 53.1583 128.531 53.55 128.322C53.9416 128.113 54.3684 127.867 54.8303 127.584C55.2922 127.302 55.7767 126.978 56.2839 126.613C56.791 126.247 57.3122 125.845 57.8474 125.405C59.2783 124.246 60.1037 123.374 60.3237 122.787C60.4033 122.575 60.3744 122.443 60.2371 122.392C59.7751 122.218 58.579 122.902 56.6488 124.443C56.1261 124.887 55.6416 125.325 55.1953 125.756C54.6476 126.305 54.1428 126.835 53.681 127.346C53.2363 127.848 52.8321 128.337 52.4686 128.813ZM59.1529 134.509C58.2302 134.297 57.8733 133.736 58.082 132.827C58.246 132.112 58.7197 131.27 59.503 130.301C59.5409 130.255 59.7165 130.055 60.0299 129.703C60.3593 129.341 60.8263 128.826 61.4311 128.157L60.4175 127.925L60.3874 127.877L60.4338 127.764L60.4577 127.749L61.5688 128.004L63.536 125.87C63.641 125.949 63.7715 126.006 63.9274 126.042C64.1094 126.084 64.3192 126.064 64.557 125.981C64.8047 125.915 64.984 125.82 65.0948 125.694L65.1488 125.727L62.719 128.268L64.064 128.577L64.079 128.601L64.0522 128.718L64.0042 128.748L62.5812 128.421L60.7189 130.456C59.6071 131.665 58.9647 132.646 58.7918 133.4C58.6695 133.933 58.8163 134.247 59.2322 134.342C59.8819 134.491 60.6217 134.278 61.4515 133.703C61.6782 133.549 61.9597 133.306 62.2961 132.973C62.6324 132.64 62.9253 132.317 63.1748 132.005C63.2157 131.946 63.2527 131.934 63.2857 131.969C63.3347 131.994 63.3387 132.036 63.2978 132.095C63.0134 132.44 62.7205 132.763 62.4191 133.063C62.1306 133.366 61.8157 133.636 61.4742 133.872C60.6284 134.458 59.8547 134.67 59.1529 134.509ZM64.6108 135.551C64.0293 135.473 63.6202 135.163 63.3834 134.62C63.1625 134.16 63.0927 133.626 63.1741 133.018C63.3138 131.974 63.7742 131.047 64.5553 130.237C65.413 129.356 66.3507 128.984 67.3683 129.12C67.8837 129.189 68.2563 129.421 68.486 129.815C68.7044 130.194 68.7782 130.647 68.7074 131.176C68.6756 131.414 68.6164 131.655 68.5299 131.899C68.4567 132.145 68.3552 132.4 68.2256 132.665C67.9495 133.22 67.644 133.643 67.3091 133.935L67.3407 134C67.4605 134.11 67.6129 134.177 67.7979 134.202C68.1812 134.253 68.5218 134.171 68.8197 133.955C69.1176 133.74 69.4751 133.33 69.8921 132.727C69.9124 132.676 69.9424 132.653 69.982 132.658C70.0085 132.662 70.0256 132.684 70.0336 132.726C70.0432 132.754 70.0313 132.793 69.9978 132.842C69.6425 133.386 69.2859 133.789 68.928 134.051C68.5834 134.314 68.2062 134.418 67.7965 134.363C67.5322 134.328 67.3371 134.228 67.2112 134.063C67.0472 134.283 66.8718 134.488 66.6849 134.679C66.4997 134.856 66.2975 135.01 66.078 135.142C65.5756 135.479 65.0865 135.615 64.6108 135.551ZM64.7708 135.411C65.4712 135.505 66.23 135.062 67.0473 134.081C67.0526 134.042 67.0777 134.005 67.1227 133.97C66.9379 133.542 66.8693 133.15 66.9171 132.793C66.9189 132.78 66.9224 132.753 66.9277 132.713C66.9348 132.661 66.9502 132.595 66.9741 132.518C67.0067 132.374 67.0526 132.232 67.1117 132.092C67.1726 131.939 67.2581 131.803 67.3683 131.683C67.609 131.392 67.8681 131.265 68.1456 131.303L68.3241 131.326C68.3751 131.347 68.4139 131.359 68.4403 131.362C68.4668 131.366 68.4866 131.368 68.4998 131.37C68.659 130.181 68.362 129.536 67.6087 129.435C66.9743 129.35 66.3217 129.653 65.6509 130.343C65.107 130.889 64.6855 131.526 64.3864 132.252C64.2127 132.646 64.0957 133.068 64.0356 133.517C63.8781 134.693 64.1232 135.324 64.7708 135.411ZM75.5503 136C74.7506 136.02 74.3415 135.677 74.3231 134.971C74.3086 134.411 74.5119 133.766 74.933 133.035C75.073 132.777 75.4648 132.2 76.1084 131.303C76.533 130.705 76.7421 130.287 76.7359 130.047C76.73 129.82 76.5405 129.712 76.1673 129.721C75.914 129.728 75.6343 129.742 75.3281 129.763C75.0352 129.784 74.7956 129.804 74.6093 129.822C74.5749 130.036 74.5213 130.284 74.4486 130.566C74.376 130.848 74.2903 131.144 74.1916 131.453C74.1298 131.642 74.0298 131.898 73.8915 132.221C73.7665 132.545 73.5954 132.889 73.3782 133.255C73.3396 133.309 73.307 133.337 73.2803 133.338C73.267 133.338 73.26 133.325 73.2593 133.298C73.2576 133.232 73.282 133.144 73.3325 133.036C73.4343 132.847 73.5483 132.617 73.6747 132.347C73.8007 132.064 73.9193 131.754 74.0306 131.417C74.1296 131.121 74.215 130.812 74.2866 130.491C74.3713 130.155 74.4187 129.927 74.4289 129.807C74.1038 129.615 73.936 129.319 73.9256 128.919C73.9139 128.466 74.0679 128.235 74.3878 128.227C74.6144 128.221 74.7331 128.425 74.7438 128.838C74.7462 128.931 74.7358 129.045 74.7127 129.179C74.6895 129.313 74.6603 129.474 74.6252 129.661C74.8114 129.643 75.1043 129.622 75.5038 129.599C75.9163 129.561 76.3092 129.538 76.6824 129.528C77.3622 129.51 77.7074 129.708 77.7182 130.121C77.7296 130.561 77.2267 131.481 76.2094 132.881C75.9915 133.22 75.7482 133.607 75.4793 134.041C75.2235 134.461 75.1013 134.891 75.1128 135.331C75.1159 135.451 75.1455 135.563 75.2016 135.668C75.2577 135.774 75.3724 135.824 75.5456 135.82C76.1188 135.805 76.7429 135.442 77.4179 134.731C77.7555 134.375 78.0657 133.993 78.3485 133.586C78.6313 133.178 78.8863 132.725 79.1134 132.226C79.1639 132.118 79.2092 132.063 79.2492 132.062C79.2758 132.061 79.2897 132.081 79.2907 132.121C79.2924 132.188 79.2744 132.261 79.2365 132.342C79.022 132.815 78.7605 133.275 78.4521 133.723C78.1433 134.158 77.8007 134.574 77.4242 134.97C76.7881 135.641 76.1634 135.984 75.5503 136ZM81.0143 135.671C80.3656 135.749 79.8941 135.624 79.5996 135.297C79.3035 134.956 79.1157 134.455 79.0361 133.793C78.9215 132.84 79.1993 131.8 79.8695 130.672C80.5863 129.484 81.4013 128.836 82.3148 128.726C82.9899 128.645 83.3553 128.836 83.411 129.299C83.4794 129.868 83.24 130.501 82.6926 131.198C81.9138 132.205 81.0346 132.768 80.055 132.885C79.9455 133.315 79.9154 133.735 79.9647 134.145C80.0188 134.595 80.147 134.936 80.3494 135.166C80.5517 135.397 80.8183 135.493 81.1493 135.453C81.4935 135.412 81.8398 135.276 82.1882 135.046C82.535 134.803 82.8248 134.533 83.0578 134.237C83.2558 133.984 83.4707 133.65 83.7025 133.232C83.946 132.8 84.1792 132.282 84.402 131.678C84.4338 131.607 84.4695 131.569 84.5092 131.564C84.5886 131.555 84.5966 131.621 84.5331 131.763C84.3621 132.24 84.1689 132.7 83.9535 133.142C83.7513 133.582 83.4615 134.02 83.084 134.455C82.8627 134.737 82.5721 135 82.212 135.245C81.8504 135.476 81.4512 135.618 81.0143 135.671ZM80.0582 132.744C80.7863 132.656 81.5535 132.168 82.3598 131.279L82.3574 131.259C82.5834 131.017 82.7867 130.697 82.9672 130.299C83.1826 129.857 83.2729 129.49 83.2378 129.199C83.2124 128.987 83.0408 128.9 82.7231 128.939C82.22 128.999 81.6652 129.522 81.0585 130.509C80.7753 130.945 80.5551 131.348 80.3979 131.716C80.2407 132.084 80.1275 132.427 80.0582 132.744ZM89.9195 133.719C89.2447 133.878 88.7971 133.49 88.5766 132.556C88.4908 132.193 88.4512 131.764 88.4577 131.269C87.9628 133.235 87.2677 134.324 86.3723 134.535C85.944 134.636 85.5691 134.499 85.2474 134.123C84.9891 133.841 84.8018 133.454 84.6854 132.961C84.5905 132.558 84.5494 132.123 84.562 131.654C84.6019 130.836 84.8991 130.006 85.4536 129.163C86.0736 128.249 86.7405 127.708 87.4543 127.54C88.1031 127.386 88.5194 127.699 88.7032 128.478C88.7828 128.815 88.8048 129.228 88.7693 129.716L89.4054 127.1L89.4638 127.086C89.518 127.142 89.61 127.154 89.7398 127.123C89.9993 127.062 90.2935 126.828 90.6223 126.422L90.6704 126.452L89.7785 130.073C89.4198 131.514 89.3186 132.566 89.4748 133.228C89.5361 133.487 89.6835 133.589 89.9171 133.534C90.0728 133.497 90.2472 133.395 90.4402 133.226C90.6333 133.057 90.8209 132.807 91.0032 132.476C91.2289 132.04 91.4137 131.633 91.5578 131.256C91.7117 130.864 91.8705 130.347 92.0342 129.705C92.0579 129.631 92.0891 129.59 92.1281 129.581C92.2059 129.562 92.2212 129.627 92.174 129.775C92.0446 130.272 91.8956 130.773 91.7273 131.278C91.5688 131.768 91.3458 132.245 91.0583 132.71C90.7014 133.287 90.3218 133.624 89.9195 133.719ZM86.418 134.381C87.1447 134.209 87.837 132.963 88.4951 130.644C88.7053 129.909 88.7323 129.211 88.5761 128.549C88.4107 127.848 88.1009 127.551 87.6467 127.659C87.1536 127.775 86.6921 128.315 86.2622 129.28C86.0952 129.676 85.9592 130.057 85.8541 130.424C85.762 130.789 85.6992 131.132 85.6659 131.455C85.5771 132.298 85.6062 133.031 85.7532 133.654C85.8849 134.212 86.1065 134.454 86.418 134.381ZM94.4186 132.281C93.9708 132.454 93.5816 132.39 93.2509 132.089C92.9202 131.788 92.6683 131.414 92.4953 130.966C92.3175 130.506 92.2322 130.081 92.2392 129.692C92.2356 129.165 92.3103 128.6 92.4636 127.998C92.612 127.383 92.86 126.823 93.2077 126.317C93.5506 125.798 94.0019 125.431 94.5616 125.215C95.1834 124.974 95.6337 125.215 95.9124 125.936C96.0518 126.297 96.1261 126.711 96.1354 127.18L96.8699 120.035L96.9072 120.02C96.9762 120.051 97.0728 120.042 97.1972 119.994C97.4584 119.893 97.7141 119.63 97.9642 119.205L98.016 119.227L97.2862 125.663C97.0066 128.158 96.9917 129.729 97.2416 130.376C97.3713 130.711 97.573 130.826 97.8466 130.721C97.9959 130.663 98.1546 130.537 98.3228 130.344C98.491 130.15 98.6428 129.877 98.7782 129.525C98.9421 129.061 99.0697 128.633 99.161 128.24C99.26 127.831 99.3468 127.297 99.4214 126.639C99.4347 126.562 99.46 126.517 99.4973 126.502C99.5719 126.474 99.596 126.536 99.5694 126.689C99.5089 127.198 99.4297 127.715 99.3319 128.239C99.2417 128.745 99.086 129.249 98.8647 129.749C98.5899 130.369 98.2597 130.754 97.8742 130.903C97.5632 131.023 97.2684 131.037 96.9897 130.945C96.7234 130.847 96.5086 130.587 96.3452 130.164C96.1915 129.766 96.0893 129.299 96.0387 128.761C95.8168 130.776 95.2767 131.949 94.4186 132.281ZM94.4843 132.063C94.8201 131.933 95.122 131.53 95.39 130.855C95.6579 130.18 95.8581 129.273 95.9904 128.136C96.0017 128.017 96.0038 127.838 95.9968 127.598C95.9973 127.34 95.9782 127.069 95.9395 126.783C95.9084 126.481 95.8472 126.212 95.7559 125.975C95.6598 125.727 95.5308 125.541 95.3688 125.417C95.2069 125.294 95.0015 125.281 94.7528 125.377C94.5165 125.468 94.2951 125.654 94.0888 125.933C93.8901 126.196 93.7246 126.581 93.5923 127.09C93.3647 127.907 93.2605 128.655 93.2797 129.333C93.2837 129.418 93.2978 129.584 93.3221 129.832C93.3416 130.067 93.3794 130.331 93.4353 130.624C93.4865 130.904 93.5601 131.169 93.6562 131.418C93.7475 131.654 93.8617 131.839 93.9988 131.972C94.1359 132.104 94.2977 132.135 94.4843 132.063ZM103.041 128.971L102.985 128.959C102.95 128.189 102.892 127.41 102.813 126.62C102.733 125.831 102.648 125.022 102.558 124.192C102.523 123.866 102.47 123.464 102.4 122.986C102.342 122.5 102.266 121.938 102.173 121.301L102.206 121.279C102.321 121.285 102.429 121.255 102.529 121.19C102.765 121.039 102.954 120.766 103.098 120.373L103.11 120.318L103.114 120.362L103.098 120.373C103.12 120.58 103.151 120.949 103.19 121.478C103.234 121.989 103.295 122.664 103.374 123.501C103.356 121.451 103.655 120.228 104.271 119.832C104.686 119.565 105.02 119.627 105.272 120.02C105.482 120.345 105.648 120.912 105.772 121.72C105.798 121.243 105.825 120.854 105.852 120.551C105.872 120.237 105.896 120.015 105.924 119.886C106.07 119.079 106.328 118.556 106.698 118.318C107.18 118.008 107.573 118.088 107.876 118.559C108.1 118.906 108.237 119.317 108.289 119.792C108.344 120.247 108.369 120.731 108.365 121.241C108.353 121.74 108.364 122.225 108.397 122.695C108.422 122.932 108.461 123.177 108.512 123.429C108.568 123.663 108.646 123.858 108.747 124.015C108.841 124.161 108.965 124.256 109.119 124.299C109.267 124.331 109.447 124.278 109.66 124.141C109.817 124.04 109.95 123.915 110.06 123.765C110.163 123.604 110.245 123.448 110.306 123.297C110.458 122.867 110.539 122.426 110.55 121.975C110.561 121.524 110.544 121.091 110.499 120.676C110.454 120.261 110.424 119.908 110.411 119.615C110.408 119.538 110.431 119.499 110.479 119.5C110.52 119.49 110.547 119.52 110.561 119.59C110.64 120.205 110.703 120.846 110.751 121.513C110.8 122.179 110.71 122.792 110.483 123.35C110.402 123.545 110.294 123.734 110.158 123.916C110.033 124.092 109.875 124.241 109.684 124.363C109.292 124.616 108.952 124.716 108.664 124.663C108.381 124.592 108.149 124.416 107.968 124.136C107.838 123.934 107.724 123.658 107.627 123.309C107.564 123.064 107.511 122.797 107.468 122.508C107.428 122.2 107.406 121.858 107.401 121.48C107.361 120.111 107.247 119.281 107.059 118.989C106.936 118.799 106.791 118.758 106.623 118.866C106.152 119.169 105.94 120.343 105.988 122.389C105.997 123.018 106.03 123.662 106.09 124.322C106.142 124.97 106.209 125.64 106.29 126.333L106.257 126.355C106.164 126.383 106.08 126.413 106.006 126.445C105.931 126.477 105.866 126.511 105.81 126.547C105.473 126.764 105.347 127.011 105.431 127.29L105.359 127.289C105.309 126.275 105.267 125.47 105.232 124.873C105.198 124.277 105.176 123.887 105.168 123.702C105.006 121.872 104.802 120.767 104.556 120.385C104.448 120.217 104.332 120.173 104.209 120.252C103.749 120.548 103.543 121.743 103.59 123.837C103.612 125.202 103.714 126.556 103.896 127.897L103.873 127.936C103.691 127.974 103.544 128.029 103.432 128.101C103.242 128.223 103.131 128.397 103.102 128.622C103.084 128.84 103.063 128.956 103.041 128.971ZM114.085 120.914C113.64 121.296 113.136 121.394 112.573 121.209C112.083 121.068 111.638 120.764 111.239 120.298C110.553 119.499 110.169 118.538 110.085 117.415C109.999 116.189 110.346 115.242 111.126 114.574C111.521 114.235 111.941 114.111 112.388 114.203C112.816 114.292 113.204 114.539 113.551 114.944C113.707 115.127 113.848 115.331 113.972 115.558C114.107 115.777 114.229 116.022 114.341 116.296C114.571 116.871 114.683 117.381 114.677 117.825L114.747 117.845C114.909 117.829 115.06 117.76 115.202 117.639C115.496 117.387 115.661 117.078 115.699 116.712C115.736 116.346 115.669 115.807 115.497 115.094C115.472 115.045 115.475 115.007 115.506 114.981C115.526 114.964 115.554 114.966 115.59 114.988C115.618 114.999 115.639 115.034 115.653 115.092C115.822 115.719 115.885 116.254 115.842 116.695C115.809 117.127 115.635 117.478 115.321 117.747C115.119 117.921 114.914 117.999 114.708 117.983C114.763 118.252 114.799 118.52 114.816 118.786C114.825 119.042 114.805 119.296 114.758 119.548C114.674 120.146 114.45 120.602 114.085 120.914ZM114.087 120.702C114.624 120.242 114.799 119.381 114.612 118.118C114.586 118.088 114.575 118.044 114.58 117.988C114.137 117.84 113.799 117.63 113.564 117.357C113.556 117.347 113.538 117.326 113.512 117.296C113.478 117.255 113.439 117.2 113.397 117.131C113.312 117.011 113.237 116.882 113.172 116.745C113.098 116.597 113.053 116.443 113.037 116.281C112.981 115.908 113.059 115.63 113.271 115.448L113.408 115.331C113.457 115.306 113.492 115.285 113.512 115.268C113.532 115.25 113.548 115.237 113.558 115.229C112.777 114.318 112.098 114.109 111.521 114.604C111.035 115.02 110.826 115.709 110.894 116.669C110.939 117.439 111.133 118.177 111.475 118.884C111.653 119.276 111.89 119.644 112.185 119.988C112.957 120.889 113.591 121.127 114.087 120.702ZM119.402 115.691C118.852 116.272 118.32 116.32 117.807 115.834C117.4 115.449 117.086 114.85 116.866 114.035C116.783 113.755 116.65 113.07 116.469 111.981C116.345 111.258 116.196 110.814 116.022 110.649C115.857 110.493 115.647 110.551 115.39 110.822C115.216 111.006 115.028 111.214 114.827 111.446C114.635 111.668 114.48 111.852 114.362 111.997C114.489 112.172 114.627 112.386 114.776 112.636C114.924 112.887 115.073 113.156 115.222 113.444C115.312 113.621 115.423 113.873 115.555 114.199C115.695 114.516 115.819 114.88 115.925 115.292C115.936 115.358 115.932 115.4 115.914 115.42C115.905 115.43 115.89 115.425 115.871 115.407C115.823 115.361 115.778 115.282 115.737 115.17C115.675 114.964 115.593 114.721 115.491 114.441C115.379 114.152 115.243 113.849 115.083 113.533C114.944 113.254 114.785 112.975 114.607 112.697C114.429 112.4 114.301 112.206 114.223 112.114C113.858 112.209 113.53 112.119 113.24 111.844C112.91 111.533 112.856 111.261 113.076 111.028C113.231 110.863 113.459 110.923 113.76 111.207C113.827 111.271 113.901 111.359 113.979 111.47C114.058 111.581 114.151 111.715 114.259 111.872C114.378 111.728 114.57 111.505 114.835 111.206C115.099 110.887 115.36 110.592 115.617 110.321C116.084 109.827 116.468 109.722 116.768 110.006C117.088 110.308 117.384 111.314 117.658 113.023C117.745 113.417 117.847 113.862 117.964 114.358C118.081 114.836 118.299 115.226 118.619 115.529C118.706 115.611 118.807 115.67 118.921 115.704C119.035 115.739 119.152 115.693 119.271 115.567C119.665 115.151 119.848 114.452 119.821 113.472C119.808 112.982 119.756 112.493 119.667 112.005C119.578 111.517 119.437 111.016 119.243 110.503C119.203 110.391 119.196 110.32 119.223 110.291C119.242 110.272 119.265 110.276 119.295 110.304C119.343 110.349 119.382 110.414 119.413 110.498C119.596 110.984 119.738 111.494 119.838 112.029C119.928 112.554 119.98 113.09 119.995 113.637C120.021 114.561 119.823 115.245 119.402 115.691ZM123.026 111.586C122.624 112.1 122.203 112.347 121.763 112.324C121.313 112.294 120.825 112.073 120.3 111.663C119.544 111.071 119.003 110.14 118.676 108.869C118.341 107.524 118.456 106.488 119.023 105.764C119.442 105.228 119.835 105.104 120.203 105.391C120.654 105.745 120.934 106.361 121.042 107.241C121.206 108.503 120.984 109.523 120.376 110.3C120.603 110.681 120.879 110.998 121.205 111.253C121.562 111.532 121.894 111.682 122.2 111.701C122.506 111.721 122.762 111.599 122.967 111.336C123.181 111.063 123.329 110.722 123.412 110.313C123.485 109.896 123.498 109.5 123.452 109.126C123.413 108.808 123.328 108.419 123.196 107.96C123.061 107.483 122.859 106.952 122.588 106.368C122.56 106.295 122.558 106.243 122.583 106.212C122.632 106.149 122.685 106.19 122.74 106.335C122.958 106.793 123.147 107.254 123.308 107.719C123.478 108.173 123.584 108.687 123.625 109.261C123.669 109.617 123.65 110.009 123.57 110.436C123.479 110.856 123.297 111.239 123.026 111.586ZM120.278 110.198C120.73 109.62 120.925 108.732 120.864 107.533L120.848 107.521C120.836 107.19 120.753 106.82 120.598 106.412C120.437 105.947 120.241 105.624 120.01 105.444C119.842 105.312 119.659 105.373 119.462 105.625C119.15 106.024 119.129 106.786 119.4 107.912C119.51 108.421 119.639 108.861 119.789 109.232C119.939 109.603 120.102 109.925 120.278 110.198Z" fill="#C9AB81"/>
<path d="M125.669 94.4346C128.534 87.7768 130.008 80.6409 130.008 73.4346H73.0083L16.0083 73.4346C16.0083 80.6409 17.4826 87.7767 20.3472 94.4346" stroke="#C9AB81"/>
<circle cx="20.5083" cy="94.9346" r="1.5" fill="#C9AB81"/>
<circle cx="125.508" cy="94.9346" r="1.5" fill="#C9AB81"/>
<line x1="73.5" y1="20" x2="73.5" y2="111" stroke="#C9AB81"/>
<circle cx="73.5088" cy="111.936" r="1.5" fill="#C9AB81"/>
</svg>
